# Made in Blockbench 5.1.4
mtllib item.mtl

o core
v 0.1875 0.9375 0.4375
v 0.0625 0.9375 0.4375
v 0.0625 0.9375 0.5625
v 0.1875 0.9375 0.5625
v 0.1875 0.0625 0.5625
v 0.0625 0.0625 0.5625
v 0.0625 0.0625 0.4375
v 0.1875 0.0625 0.4375
v -0.0625 0.875 0.6875
v 0.0625 0.875 0.6875
v 0.0625 0.875 0.3125
v -0.0625 0.875 0.3125
v -0.0625 0.125 0.3125
v 0.0625 0.125 0.3125
v 0.0625 0.125 0.6875
v -0.0625 0.125 0.6875
v 0.0625 0.875 0.6875
v 0.0625 0.875 0.3125
v 0.0625 0.125 0.3125
v 0.0625 0.125 0.6875
v 0.3125 0.875 0.0625
v 0.3125 0.125 0.0625
v 0.135416875 0.125 0.651015625
v 0.135416875 0.125 0.348985
v 0.6875 0.875 0.0625
v 0.6875 0.125 0.0625
v 0.348985 0.125 0.135416875
v 0.9375 0.875 0.3125
v 0.9375 0.125 0.3125
v 0.651015625 0.125 0.135416875
v 0.9375 0.875 0.6875
v 0.9375 0.125 0.6875
v 0.864583125 0.125 0.348985
v 0.6875 0.875 0.9375
v 0.6875 0.125 0.9375
v 0.864583125 0.125 0.651015625
v 0.3125 0.875 0.9375
v 0.3125 0.125 0.9375
v 0.651015 0.125 0.864583125
v 0.348984375 0.125 0.864583125
v 0.5 0.125 0.5
v 0.5 0.875 0.5
v 0.135416875 0.875 0.348984375
v 0.135416875 0.875 0.651015
v 0.348985 0.875 0.864583125
v 0.651015625 0.875 0.864583125
v 0.864583125 0.875 0.651015
v 0.864583125 0.875 0.348984375
v 0.651015625 0.875 0.135416875
v 0.348985 0.875 0.135416875
v 0.3125 0.875 -0.0625
v 0.3125 0.875 0.0625
v 0.6875 0.875 0.0625
v 0.6875 0.875 -0.0625
v 0.6875 0.125 -0.0625
v 0.6875 0.125 0.0625
v 0.3125 0.125 0.0625
v 0.3125 0.125 -0.0625
v 0.5625 0.9375 0.0625
v 0.4375 0.9375 0.0625
v 0.4375 0.9375 0.1875
v 0.5625 0.9375 0.1875
v 0.5625 0.0625 0.1875
v 0.4375 0.0625 0.1875
v 0.4375 0.0625 0.0625
v 0.5625 0.0625 0.0625
v 0.75 0.9375 0.25
v 0.25 0.9375 0.25
v 0.25 0.9375 0.75
v 0.75 0.9375 0.75
v 0.75 0.0625 0.75
v 0.25 0.0625 0.75
v 0.25 0.0625 0.25
v 0.75 0.0625 0.25
v 0.9375 0.9375 0.4375
v 0.8125 0.9375 0.4375
v 0.8125 0.9375 0.5625
v 0.9375 0.9375 0.5625
v 0.9375 0.0625 0.5625
v 0.8125 0.0625 0.5625
v 0.8125 0.0625 0.4375
v 0.9375 0.0625 0.4375
v 1.0625 0.875 0.3125
v 0.9375 0.875 0.3125
v 0.9375 0.875 0.6875
v 1.0625 0.875 0.6875
v 1.0625 0.125 0.6875
v 0.9375 0.125 0.6875
v 0.9375 0.125 0.3125
v 1.0625 0.125 0.3125
v 0.5625 0.9375 0.8125
v 0.4375 0.9375 0.8125
v 0.4375 0.9375 0.9375
v 0.5625 0.9375 0.9375
v 0.5625 0.0625 0.9375
v 0.4375 0.0625 0.9375
v 0.4375 0.0625 0.8125
v 0.5625 0.0625 0.8125
v 0.6875 0.875 1.0625
v 0.6875 0.875 0.9375
v 0.3125 0.875 0.9375
v 0.3125 0.875 1.0625
v 0.3125 0.125 1.0625
v 0.3125 0.125 0.9375
v 0.6875 0.125 0.9375
v 0.6875 0.125 1.0625
vt 0.8125 0.375
vt 0.8125 0.4375
vt 0.75 0.4375
vt 0.75 0.375
vt 0.75 0.375
vt 0.75 0.4375
vt 0.8125 0.4375
vt 0.8125 0.375
vt 0.8125 0.4375
vt 0.8125 0.375
vt 0.75 0.375
vt 0.75 0.4375
vt 0.8125 0.375
vt 0.8125 0.4375
vt 0.75 0.4375
vt 0.75 0.375
vt 0.8125 0.375
vt 0.8125 0.4375
vt 0.75 0.4375
vt 0.75 0.375
vt 0.8125 0.375
vt 0.8125 0.4375
vt 0.75 0.4375
vt 0.75 0.375
vt 0.8125 0.46875
vt 0.8125 0.40625
vt 1 0.40625
vt 1 0.46875
vt 0.8125 0.46875
vt 0.8125 0.40625
vt 1 0.40625
vt 1 0.46875
vt 0.5625 0
vt 0.625 0
vt 0.625 0.375
vt 0.5625 0.375
vt 0.5625 0
vt 0.625 0
vt 0.625 0.375
vt 0.5625 0.375
vt 0.5625 0
vt 0.625 0
vt 0.625 0.375
vt 0.5625 0.375
vt 0.5625 0
vt 0.625 0
vt 0.625 0.375
vt 0.5625 0.375
vt 0.5625 0
vt 0.625 0
vt 0.625 0.375
vt 0.5625 0.375
vt 0.5625 0
vt 0.625 0
vt 0.625 0.375
vt 0.5625 0.375
vt 0.981759375 0.375
vt 1 0.40625
vt 0.8125 0.40625
vt 0.83074375 0.375
vt 0.5625 0
vt 0.625 0
vt 0.625 0.375
vt 0.5625 0.375
vt 0.981759375 0.4375
vt 1 0.46875
vt 0.8125 0.46875
vt 0.83074375 0.4375
vt 0.5625 0
vt 0.625 0
vt 0.625 0.375
vt 0.5625 0.375
vt 0.981759375 0.375
vt 1 0.40625
vt 0.8125 0.40625
vt 0.83074375 0.375
vt 0.5625 0
vt 0.625 0
vt 0.625 0.375
vt 0.5625 0.375
vt 0.981759375 0.4375
vt 1 0.46875
vt 0.8125 0.46875
vt 0.83074375 0.4375
vt 0.5625 0
vt 0.625 0
vt 0.625 0.375
vt 0.5625 0.375
vt 0.981759375 0.375
vt 1 0.40625
vt 0.8125 0.40625
vt 0.83074375 0.375
vt 0.5625 0
vt 0.625 0
vt 0.625 0.375
vt 0.5625 0.375
vt 0.981759375 0.4375
vt 1 0.46875
vt 0.8125 0.46875
vt 0.83074375 0.4375
vt 0.5625 0
vt 0.625 0
vt 0.625 0.375
vt 0.5625 0.375
vt 0.981759375 0.375
vt 1 0.40625
vt 0.8125 0.40625
vt 0.83074375 0.375
vt 0.981759375 0.4375
vt 1 0.46875
vt 0.8125 0.46875
vt 0.83074375 0.4375
vt 0.8125 0.1875
vt 1 0.26249999999999996
vt 0.8875 0.375
vt 0.8125 0.1875
vt 1 0.11250000000000004
vt 1 0.26249999999999996
vt 0.8125 0.1875
vt 0.8875 0
vt 1 0.11250000000000004
vt 0.8125 0.1875
vt 0.7375 0
vt 0.8875 0
vt 0.8125 0.1875
vt 0.8875 0.375
vt 0.7375 0.375
vt 0.8125 0.1875
vt 0.7375 0.375
vt 0.625 0.26249999999999996
vt 0.8125 0.1875
vt 0.625 0.26249999999999996
vt 0.625 0.11250000000000004
vt 0.8125 0.1875
vt 0.625 0.11250000000000004
vt 0.7375 0
vt 0.8125 0.1875
vt 0.7375 0
vt 0.8875 0
vt 0.8125 0.1875
vt 0.625 0.11250000000000004
vt 0.7375 0
vt 0.8125 0.1875
vt 0.8875 0
vt 1 0.11250000000000004
vt 0.8125 0.1875
vt 1 0.11250000000000004
vt 1 0.26249999999999996
vt 0.8125 0.1875
vt 0.625 0.26249999999999996
vt 0.625 0.11250000000000004
vt 0.981759375 0.4375
vt 1 0.46875
vt 0.8125 0.46875
vt 0.83074375 0.4375
vt 0.8125 0.1875
vt 1 0.26249999999999996
vt 0.8875 0.375
vt 0.981759375 0.375
vt 1 0.40625
vt 0.8125 0.40625
vt 0.83074375 0.375
vt 0.981759375 0.4375
vt 1 0.46875
vt 0.8125 0.46875
vt 0.83074375 0.4375
vt 0.8125 0.1875
vt 0.7375 0.375
vt 0.625 0.26249999999999996
vt 0.981759375 0.4375
vt 1 0.46875
vt 0.8125 0.46875
vt 0.83074375 0.4375
vt 0.981759375 0.375
vt 1 0.40625
vt 0.8125 0.40625
vt 0.83074375 0.375
vt 0.981759375 0.375
vt 1 0.40625
vt 0.8125 0.40625
vt 0.83074375 0.375
vt 0.981759375 0.4375
vt 1 0.46875
vt 0.8125 0.46875
vt 0.83074375 0.4375
vt 0.8125 0.1875
vt 0.8875 0.375
vt 0.7375 0.375
vt 0.981759375 0.375
vt 1 0.40625
vt 0.8125 0.40625
vt 0.83074375 0.375
vt 0.8125 0.46875
vt 0.8125 0.40625
vt 1 0.40625
vt 1 0.46875
vt 0.8125 0.46875
vt 0.8125 0.40625
vt 1 0.40625
vt 1 0.46875
vt 0.5625 0
vt 0.625 0
vt 0.625 0.375
vt 0.5625 0.375
vt 0.5625 0
vt 0.625 0
vt 0.625 0.375
vt 0.5625 0.375
vt 0.5625 0
vt 0.625 0
vt 0.625 0.375
vt 0.5625 0.375
vt 0.5625 0
vt 0.625 0
vt 0.625 0.375
vt 0.5625 0.375
vt 0.8125 0.375
vt 0.8125 0.4375
vt 0.75 0.4375
vt 0.75 0.375
vt 0.75 0.375
vt 0.75 0.4375
vt 0.8125 0.4375
vt 0.8125 0.375
vt 0.8125 0.4375
vt 0.8125 0.375
vt 0.75 0.375
vt 0.75 0.4375
vt 0.8125 0.375
vt 0.8125 0.4375
vt 0.75 0.4375
vt 0.75 0.375
vt 0.8125 0.375
vt 0.8125 0.4375
vt 0.75 0.4375
vt 0.75 0.375
vt 0.8125 0.375
vt 0.8125 0.4375
vt 0.75 0.4375
vt 0.75 0.375
vt 0.9375 0.0625
vt 0.9375 0.3125
vt 0.6875 0.3125
vt 0.6875 0.0625
vt 0.9375 0.0625
vt 0.9375 0.3125
vt 0.6875 0.3125
vt 0.6875 0.0625
vt 0.5625 0.34375
vt 0.625 0.34375
vt 0.625 0.375
vt 0.5625 0.375
vt 0.5625 0.34375
vt 0.625 0.34375
vt 0.625 0.375
vt 0.5625 0.375
vt 0.5625 0.34375
vt 0.625 0.34375
vt 0.625 0.375
vt 0.5625 0.375
vt 0.5625 0.34375
vt 0.625 0.34375
vt 0.625 0.375
vt 0.5625 0.375
vt 0.8125 0.375
vt 0.8125 0.4375
vt 0.75 0.4375
vt 0.75 0.375
vt 0.75 0.375
vt 0.75 0.4375
vt 0.8125 0.4375
vt 0.8125 0.375
vt 0.8125 0.4375
vt 0.8125 0.375
vt 0.75 0.375
vt 0.75 0.4375
vt 0.8125 0.375
vt 0.8125 0.4375
vt 0.75 0.4375
vt 0.75 0.375
vt 0.8125 0.375
vt 0.8125 0.4375
vt 0.75 0.4375
vt 0.75 0.375
vt 0.8125 0.375
vt 0.8125 0.4375
vt 0.75 0.4375
vt 0.75 0.375
vt 0.8125 0.46875
vt 0.8125 0.40625
vt 1 0.40625
vt 1 0.46875
vt 0.8125 0.46875
vt 0.8125 0.40625
vt 1 0.40625
vt 1 0.46875
vt 0.5625 0
vt 0.625 0
vt 0.625 0.375
vt 0.5625 0.375
vt 0.5625 0
vt 0.625 0
vt 0.625 0.375
vt 0.5625 0.375
vt 0.5625 0
vt 0.625 0
vt 0.625 0.375
vt 0.5625 0.375
vt 0.5625 0
vt 0.625 0
vt 0.625 0.375
vt 0.5625 0.375
vt 0.8125 0.375
vt 0.8125 0.4375
vt 0.75 0.4375
vt 0.75 0.375
vt 0.75 0.375
vt 0.75 0.4375
vt 0.8125 0.4375
vt 0.8125 0.375
vt 0.8125 0.4375
vt 0.8125 0.375
vt 0.75 0.375
vt 0.75 0.4375
vt 0.8125 0.375
vt 0.8125 0.4375
vt 0.75 0.4375
vt 0.75 0.375
vt 0.8125 0.375
vt 0.8125 0.4375
vt 0.75 0.4375
vt 0.75 0.375
vt 0.8125 0.375
vt 0.8125 0.4375
vt 0.75 0.4375
vt 0.75 0.375
vt 0.8125 0.46875
vt 0.8125 0.40625
vt 1 0.40625
vt 1 0.46875
vt 0.8125 0.46875
vt 0.8125 0.40625
vt 1 0.40625
vt 1 0.46875
vt 0.5625 0
vt 0.625 0
vt 0.625 0.375
vt 0.5625 0.375
vt 0.5625 0
vt 0.625 0
vt 0.625 0.375
vt 0.5625 0.375
vt 0.5625 0
vt 0.625 0
vt 0.625 0.375
vt 0.5625 0.375
vt 0.5625 0
vt 0.625 0
vt 0.625 0.375
vt 0.5625 0.375
vn 0 1 0
vn 0 -1 0
vn -1 0 0
vn 1 0 0
vn 0 0 1
vn 0 0 -1
vn 0 1 0
vn 0 -1 0
vn 1 0 0
vn -1 0 0
vn 0 0 -1
vn 0 0 1
vn -1 0 0
vn -0.7071067811865476 0 -0.7071067811865476
vn 0 -1 0
vn 0 0 -1
vn 0 -1 0
vn 0.7071067811865476 0 -0.7071067811865476
vn 0 -1 0
vn 1 0 0
vn 0 -1 0
vn 0.7071067811865476 0 0.7071067811865476
vn 0 -1 0
vn 0 0 1
vn 0 -1 0
vn -0.7071067811865476 0 0.7071067811865476
vn 0 -1 0
vn 0 -1 0
vn 0 -1 0
vn 0 -1 0
vn 0 -1 0
vn 0 -1 0
vn 0 1 0
vn 0 1 0
vn 0 1 0
vn 0 -1 0
vn 0 1 0
vn 0 1 0
vn 0 1 0
vn 0 1 0
vn 0 -1 0
vn 0 1 0
vn 0 1 0
vn 0 1 0
vn 0 1 0
vn 0 -1 0
vn 0 1 0
vn 0 1 0
vn 0 1 0
vn 0 1 0
vn 0 -1 0
vn 0 1 0
vn 0 1 0
vn 0 -1 0
vn 0 0 1
vn 0 0 -1
vn 1 0 0
vn -1 0 0
vn 0 1 0
vn 0 -1 0
vn -1 0 0
vn 1 0 0
vn 0 0 1
vn 0 0 -1
vn 0 1 0
vn 0 -1 0
vn -1 0 0
vn 1 0 0
vn 0 0 1
vn 0 0 -1
vn 0 1 0
vn 0 -1 0
vn -1 0 0
vn 1 0 0
vn 0 0 1
vn 0 0 -1
vn 0 1 0
vn 0 -1 0
vn -1 0 0
vn 1 0 0
vn 0 0 1
vn 0 0 -1
vn 0 1 0
vn 0 -1 0
vn -1 0 0
vn 1 0 0
vn 0 0 1
vn 0 0 -1
vn 0 1 0
vn 0 -1 0
vn 0 0 -1
vn 0 0 1
vn -1 0 0
vn 1 0 0
usemtl m_372e1cad-2b0d-c674-ced3-79f40d3648ff
f 1/1/1 2/2/1 3/3/1 4/4/1
f 5/5/2 6/6/2 7/7/2 8/8/2
f 3/9/3 2/10/3 7/11/3 6/12/3
f 1/13/4 4/14/4 5/15/4 8/16/4
f 4/17/5 3/18/5 6/19/5 5/20/5
f 8/21/6 7/22/6 2/23/6 1/24/6
f 9/25/7 10/26/7 11/27/7 12/28/7
f 13/29/8 14/30/8 15/31/8 16/32/8
f 11/33/9 10/34/9 15/35/9 14/36/9
f 9/37/10 12/38/10 13/39/10 16/40/10
f 12/41/11 11/42/11 14/43/11 13/44/11
f 16/45/12 15/46/12 10/47/12 9/48/12
f 17/49/13 18/50/13 19/51/13 20/52/13
f 18/53/14 21/54/14 22/55/14 19/56/14
f 23/57/15 20/58/15 19/59/15 24/60/15
f 21/61/16 25/62/16 26/63/16 22/64/16
f 24/65/17 19/66/17 22/67/17 27/68/17
f 25/69/18 28/70/18 29/71/18 26/72/18
f 27/73/19 22/74/19 26/75/19 30/76/19
f 28/77/20 31/78/20 32/79/20 29/80/20
f 30/81/21 26/82/21 29/83/21 33/84/21
f 31/85/22 34/86/22 35/87/22 32/88/22
f 33/89/23 29/90/23 32/91/23 36/92/23
f 34/93/24 37/94/24 38/95/24 35/96/24
f 36/97/25 32/98/25 35/99/25 39/100/25
f 37/101/26 17/102/26 20/103/26 38/104/26
f 39/105/27 35/106/27 38/107/27 40/108/27
f 40/109/28 38/110/28 20/111/28 23/112/28
f 41/113/29 40/114/29 23/115/29
f 41/116/30 39/117/30 40/118/30
f 41/119/31 36/120/31 39/121/31
f 41/122/32 33/123/32 36/124/32
f 42/125/33 43/126/33 44/127/33
f 42/128/34 44/129/34 45/130/34
f 42/131/35 45/132/35 46/133/35
f 41/134/36 30/135/36 33/136/36
f 42/137/37 47/138/37 48/139/37
f 42/140/38 46/141/38 47/142/38
f 42/143/39 48/144/39 49/145/39
f 42/146/40 49/147/40 50/148/40
f 41/149/41 27/150/41 30/151/41
f 50/152/42 21/153/42 18/154/42 43/155/42
f 42/156/43 50/157/43 43/158/43
f 49/159/44 25/160/44 21/161/44 50/162/44
f 48/163/45 28/164/45 25/165/45 49/166/45
f 41/167/46 24/168/46 27/169/46
f 46/170/47 34/171/47 31/172/47 47/173/47
f 47/174/48 31/175/48 28/176/48 48/177/48
f 45/178/49 37/179/49 34/180/49 46/181/49
f 44/182/50 17/183/50 37/184/50 45/185/50
f 41/186/51 23/187/51 24/188/51
f 43/189/52 18/190/52 17/191/52 44/192/52
f 51/193/53 52/194/53 53/195/53 54/196/53
f 55/197/54 56/198/54 57/199/54 58/200/54
f 53/201/55 52/202/55 57/203/55 56/204/55
f 51/205/56 54/206/56 55/207/56 58/208/56
f 54/209/57 53/210/57 56/211/57 55/212/57
f 58/213/58 57/214/58 52/215/58 51/216/58
f 59/217/59 60/218/59 61/219/59 62/220/59
f 63/221/60 64/222/60 65/223/60 66/224/60
f 61/225/61 60/226/61 65/227/61 64/228/61
f 59/229/62 62/230/62 63/231/62 66/232/62
f 62/233/63 61/234/63 64/235/63 63/236/63
f 66/237/64 65/238/64 60/239/64 59/240/64
f 67/241/65 68/242/65 69/243/65 70/244/65
f 71/245/66 72/246/66 73/247/66 74/248/66
f 69/249/67 68/250/67 73/251/67 72/252/67
f 67/253/68 70/254/68 71/255/68 74/256/68
f 70/257/69 69/258/69 72/259/69 71/260/69
f 74/261/70 73/262/70 68/263/70 67/264/70
f 75/265/71 76/266/71 77/267/71 78/268/71
f 79/269/72 80/270/72 81/271/72 82/272/72
f 77/273/73 76/274/73 81/275/73 80/276/73
f 75/277/74 78/278/74 79/279/74 82/280/74
f 78/281/75 77/282/75 80/283/75 79/284/75
f 82/285/76 81/286/76 76/287/76 75/288/76
f 83/289/77 84/290/77 85/291/77 86/292/77
f 87/293/78 88/294/78 89/295/78 90/296/78
f 85/297/79 84/298/79 89/299/79 88/300/79
f 83/301/80 86/302/80 87/303/80 90/304/80
f 86/305/81 85/306/81 88/307/81 87/308/81
f 90/309/82 89/310/82 84/311/82 83/312/82
f 91/313/83 92/314/83 93/315/83 94/316/83
f 95/317/84 96/318/84 97/319/84 98/320/84
f 93/321/85 92/322/85 97/323/85 96/324/85
f 91/325/86 94/326/86 95/327/86 98/328/86
f 94/329/87 93/330/87 96/331/87 95/332/87
f 98/333/88 97/334/88 92/335/88 91/336/88
f 99/337/89 100/338/89 101/339/89 102/340/89
f 103/341/90 104/342/90 105/343/90 106/344/90
f 101/345/91 100/346/91 105/347/91 104/348/91
f 99/349/92 102/350/92 103/351/92 106/352/92
f 102/353/93 101/354/93 104/355/93 103/356/93
f 106/357/94 105/358/94 100/359/94 99/360/94
o spokes
v 1.1875 0.75 0.215228125
v -0.1875 0.75 0.784771875
v 0.215228125 0.75 1.1875
v 0.5 0.75 0.5
v -0.1875 0.25 0.784771875
v 0.215228125 0.25 1.1875
v 0.5 0.25 0.5
v -0.1875 0.75 0.215228125
v -0.1875 0.25 0.215228125
v 0.215228125 0.75 -0.1875
v 0.215228125 0.25 -0.1875
v 0.784771875 0.75 -0.1875
v 0.784771875 0.25 -0.1875
v 1.1875 0.25 0.215228125
v 1.1875 0.75 0.784771875
v 1.1875 0.25 0.784771875
v 0.784771875 0.75 1.1875
v 0.784771875 0.25 1.1875
vt 0.953125 0.9375
vt 0.671875 0.9375
vt 0.8125 0.59375
vt 0.671875 0.90625
vt 0.953125 0.90625
vt 0.953125 0.9375
vt 0.671875 0.9375
vt 0.953125 0.9375
vt 0.671875 0.9375
vt 0.8125 0.59375
vt 0.953125 0.9375
vt 0.671875 0.9375
vt 0.8125 0.59375
vt 0.671875 0.90625
vt 0.953125 0.90625
vt 0.953125 0.9375
vt 0.671875 0.9375
vt 0.953125 0.9375
vt 0.671875 0.9375
vt 0.8125 0.59375
vt 0.953125 0.9375
vt 0.671875 0.9375
vt 0.8125 0.59375
vt 0.671875 0.90625
vt 0.953125 0.90625
vt 0.953125 0.9375
vt 0.671875 0.9375
vt 0.953125 0.9375
vt 0.671875 0.9375
vt 0.8125 0.59375
vt 0.953125 0.9375
vt 0.671875 0.9375
vt 0.8125 0.59375
vt 0.671875 0.90625
vt 0.953125 0.90625
vt 0.953125 0.9375
vt 0.671875 0.9375
vt 0.953125 0.9375
vt 0.671875 0.9375
vt 0.8125 0.59375
vt 0.953125 0.9375
vt 0.671875 0.9375
vt 0.8125 0.59375
vt 0.671875 0.90625
vt 0.953125 0.90625
vt 0.953125 0.9375
vt 0.671875 0.9375
vt 0.953125 0.9375
vt 0.671875 0.9375
vt 0.8125 0.59375
vt 0.953125 0.9375
vt 0.671875 0.9375
vt 0.8125 0.59375
vt 0.671875 0.90625
vt 0.953125 0.90625
vt 0.953125 0.9375
vt 0.671875 0.9375
vt 0.953125 0.9375
vt 0.671875 0.9375
vt 0.8125 0.59375
vt 0.953125 0.9375
vt 0.671875 0.9375
vt 0.8125 0.59375
vt 0.671875 0.90625
vt 0.953125 0.90625
vt 0.953125 0.9375
vt 0.671875 0.9375
vt 0.953125 0.9375
vt 0.671875 0.9375
vt 0.8125 0.59375
vt 0.953125 0.9375
vt 0.671875 0.9375
vt 0.8125 0.59375
vt 0.671875 0.90625
vt 0.953125 0.90625
vt 0.953125 0.9375
vt 0.671875 0.9375
vt 0.953125 0.9375
vt 0.671875 0.9375
vt 0.8125 0.59375
vn 0 1 0
vn -0.7071067811865476 0 0.7071067811865476
vn 0 -1 0
vn 0 1 0
vn -1 0 0
vn 0 -1 0
vn 0 1 0
vn -0.7071067811865476 0 -0.7071067811865476
vn 0 -1 0
vn 0 1 0
vn 0 0 -1
vn 0 -1 0
vn 0 1 0
vn 0.7071067811865476 0 -0.7071067811865476
vn 0 -1 0
vn 0 1 0
vn 1 0 0
vn 0 -1 0
vn 0 1 0
vn 0.7071067811865476 0 0.7071067811865476
vn 0 -1 0
vn 0 1 0
vn 0 0 1
vn 0 -1 0
usemtl m_372e1cad-2b0d-c674-ced3-79f40d3648ff
f 108/361/95 109/362/95 110/363/95
f 109/364/96 108/365/96 111/366/96 112/367/96
f 112/368/97 111/369/97 113/370/97
f 114/371/98 108/372/98 110/373/98
f 108/374/99 114/375/99 115/376/99 111/377/99
f 111/378/100 115/379/100 113/380/100
f 116/381/101 114/382/101 110/383/101
f 114/384/102 116/385/102 117/386/102 115/387/102
f 115/388/103 117/389/103 113/390/103
f 118/391/104 116/392/104 110/393/104
f 116/394/105 118/395/105 119/396/105 117/397/105
f 117/398/106 119/399/106 113/400/106
f 107/401/107 118/402/107 110/403/107
f 118/404/108 107/405/108 120/406/108 119/407/108
f 119/408/109 120/409/109 113/410/109
f 121/411/110 107/412/110 110/413/110
f 107/414/111 121/415/111 122/416/111 120/417/111
f 120/418/112 122/419/112 113/420/112
f 123/421/113 121/422/113 110/423/113
f 121/424/114 123/425/114 124/426/114 122/427/114
f 122/428/115 124/429/115 113/430/115
f 109/431/116 123/432/116 110/433/116
f 123/434/117 109/435/117 112/436/117 124/437/117
f 124/438/118 112/439/118 113/440/118
o rim
v 0.15625 0.875 1.3124975
v -0.3125 0.875 0.84375
v -0.3125 0.125 0.84375
v 0.15625 0.125 1.3125
v 0.21875 0.125 1.1875
v -0.1875 0.125 0.78125
v -0.1875 0.875 0.78125
v 0.21875 0.875 1.1875
v -0.3125 0.875 0.15625
v -0.3125 0.125 0.15625
v -0.1875 0.125 0.21875
v -0.1875 0.875 0.21875
v 0.15625 0.875 -0.3124975
v 0.15625 0.125 -0.3125
v 0.21875 0.125 -0.1875
v 0.21875 0.875 -0.1875
v 0.84375 0.875 -0.3124975
v 0.84375 0.125 -0.3125
v 0.78125 0.125 -0.1875
v 0.78125 0.875 -0.1875
v 1.3125 0.875 0.15625
v 1.3125 0.125 0.15625
v 1.1875 0.125 0.21875
v 1.1875 0.875 0.21875
v 1.3125 0.875 0.84375
v 1.3125 0.125 0.84375
v 1.1875 0.125 0.78125
v 1.1875 0.875 0.78125
v 0.84375 0.875 1.3124975
v 0.84375 0.125 1.3125
v 0.78125 0.125 1.1875
v 0.78125 0.875 1.1875
vt 0.625 0
vt 0.5625 0
vt 0.5625 0.375
vt 0.625 0.375
vt 0.625 0.375
vt 0.5625 0.375
vt 0.5625 0
vt 0.625 0
vt 0.6661271875 0.9375
vt 0.9588728125 0.9375
vt 0.984375 1
vt 0.640625 1
vt 0.984375 1
vt 0.640625 1
vt 0.6661278125 0.9375
vt 0.9588721875 0.9375
vt 0.625 0
vt 0.5625 0
vt 0.5625 0.375
vt 0.625 0.375
vt 0.625 0.375
vt 0.5625 0.375
vt 0.5625 0
vt 0.625 0
vt 0.6661271875 0.9375
vt 0.9588728125 0.9375
vt 0.984375 1
vt 0.640625 1
vt 0.984375 1
vt 0.640625 1
vt 0.6661278125 0.9375
vt 0.9588721875 0.9375
vt 0.625 0
vt 0.5625 0
vt 0.5625 0.375
vt 0.625 0.375
vt 0.625 0.375
vt 0.5625 0.375
vt 0.5625 0
vt 0.625 0
vt 0.6661271875 0.9375
vt 0.9588728125 0.9375
vt 0.984375 1
vt 0.640625 1
vt 0.984375 1
vt 0.640625 1
vt 0.6661278125 0.9375
vt 0.9588721875 0.9375
vt 0.625 0
vt 0.5625 0
vt 0.5625 0.375
vt 0.625 0.375
vt 0.625 0.375
vt 0.5625 0.375
vt 0.5625 0
vt 0.625 0
vt 0.6661271875 0.9375
vt 0.9588728125 0.9375
vt 0.984375 1
vt 0.640625 1
vt 0.984375 1
vt 0.640625 1
vt 0.6661278125 0.9375
vt 0.9588721875 0.9375
vt 0.625 0
vt 0.5625 0
vt 0.5625 0.375
vt 0.625 0.375
vt 0.625 0.375
vt 0.5625 0.375
vt 0.5625 0
vt 0.625 0
vt 0.6661271875 0.9375
vt 0.9588728125 0.9375
vt 0.984375 1
vt 0.640625 1
vt 0.984375 1
vt 0.640625 1
vt 0.6661278125 0.9375
vt 0.9588721875 0.9375
vt 0.625 0
vt 0.5625 0
vt 0.5625 0.375
vt 0.625 0.375
vt 0.625 0.375
vt 0.5625 0.375
vt 0.5625 0
vt 0.625 0
vt 0.6661271875 0.9375
vt 0.9588728125 0.9375
vt 0.984375 1
vt 0.640625 1
vt 0.984375 1
vt 0.640625 1
vt 0.6661278125 0.9375
vt 0.9588721875 0.9375
vt 0.625 0
vt 0.5625 0
vt 0.5625 0.375
vt 0.625 0.375
vt 0.625 0.375
vt 0.5625 0.375
vt 0.5625 0
vt 0.625 0
vt 0.6661271875 0.9375
vt 0.9588728125 0.9375
vt 0.984375 1
vt 0.640625 1
vt 0.984375 1
vt 0.640625 1
vt 0.6661278125 0.9375
vt 0.9588721875 0.9375
vt 0.625 0
vt 0.5625 0
vt 0.5625 0.375
vt 0.625 0.375
vt 0.625 0.375
vt 0.5625 0.375
vt 0.5625 0
vt 0.625 0
vt 0.6661271875 0.9375
vt 0.9588728125 0.9375
vt 0.984375 1
vt 0.640625 1
vt 0.984375 1
vt 0.640625 1
vt 0.6661278125 0.9375
vt 0.9588721875 0.9375
vn -0.7071048955609219 0 0.7071086668071448
vn 0.7071067811865476 0 -0.7071067811865476
vn 0 1 0
vn 0 -1 0
vn -1 0 0
vn 1 0 0
vn 0 1 0
vn 0 -1 0
vn -0.7071048955589576 0.0000023570288893730216 -0.7071086668051807
vn 0.7071067811865476 0 0.7071067811865476
vn 0 1 0
vn 0 -1 0
vn 0 0.000003333333333336652 -0.9999999999944444
vn 0 0 1
vn 0 1 0
vn 0 -1 0
vn 0.7071048955609219 0 -0.7071086668071449
vn -0.7071067811865476 0 0.7071067811865476
vn 0 1 0
vn 0 -1 0
vn 1 0 0
vn -1 0 0
vn 0 1 0
vn 0 -1 0
vn 0.7071048955589577 0.0000023570288892613704 0.7071086668051806
vn -0.7071067811865476 0 -0.7071067811865476
vn 0 1 0
vn 0 -1 0
vn 0 0.0000033333333331886224 0.9999999999944444
vn 0 0 -1
vn 0 1 0
vn 0 -1 0
usemtl m_372e1cad-2b0d-c674-ced3-79f40d3648ff
f 125/441/119 126/442/119 127/443/119 128/444/119
f 129/445/120 130/446/120 131/447/120 132/448/120
f 132/449/121 131/450/121 126/451/121 125/452/121
f 128/453/122 127/454/122 130/455/122 129/456/122
f 126/457/123 133/458/123 134/459/123 127/460/123
f 130/461/124 135/462/124 136/463/124 131/464/124
f 131/465/125 136/466/125 133/467/125 126/468/125
f 127/469/126 134/470/126 135/471/126 130/472/126
f 133/473/127 137/474/127 138/475/127 134/476/127
f 135/477/128 139/478/128 140/479/128 136/480/128
f 136/481/129 140/482/129 137/483/129 133/484/129
f 134/485/130 138/486/130 139/487/130 135/488/130
f 137/489/131 141/490/131 142/491/131 138/492/131
f 139/493/132 143/494/132 144/495/132 140/496/132
f 140/497/133 144/498/133 141/499/133 137/500/133
f 138/501/134 142/502/134 143/503/134 139/504/134
f 141/505/135 145/506/135 146/507/135 142/508/135
f 143/509/136 147/510/136 148/511/136 144/512/136
f 144/513/137 148/514/137 145/515/137 141/516/137
f 142/517/138 146/518/138 147/519/138 143/520/138
f 145/521/139 149/522/139 150/523/139 146/524/139
f 147/525/140 151/526/140 152/527/140 148/528/140
f 148/529/141 152/530/141 149/531/141 145/532/141
f 146/533/142 150/534/142 151/535/142 147/536/142
f 149/537/143 153/538/143 154/539/143 150/540/143
f 151/541/144 155/542/144 156/543/144 152/544/144
f 152/545/145 156/546/145 153/547/145 149/548/145
f 150/549/146 154/550/146 155/551/146 151/552/146
f 153/553/147 125/554/147 128/555/147 154/556/147
f 155/557/148 129/558/148 132/559/148 156/560/148
f 156/561/149 132/562/149 125/563/149 153/564/149
f 154/565/150 128/566/150 129/567/150 155/568/150
o belt_tire
v 0.91421375 0.125 1.5
v 1.5 0.125 0.91421375
v 1.5 0.875 0.91421375
v 0.91421375 0.875 1.5
v 0.839610625 0.875 1.3198925
v 1.3198925 0.875 0.839610625
v 1.3198925 0.125 0.839610625
v 0.839610625 0.125 1.3198925
v 1.5 0.125 0.08578625
v 1.5 0.875 0.08578625
v 1.3198925 0.875 0.160389375
v 1.3198925 0.125 0.160389375
v 0.91421375 0.125 -0.5
v 0.91421375 0.875 -0.5
v 0.839610625 0.875 -0.3198925
v 0.839610625 0.125 -0.3198925
v 0.08578625 0.125 -0.5
v 0.08578625 0.875 -0.5
v 0.160389375 0.875 -0.3198925
v 0.160389375 0.125 -0.3198925
v -0.5 0.125 0.08578625
v -0.5 0.875 0.08578625
v -0.3198925 0.875 0.160389375
v -0.3198925 0.125 0.160389375
v -0.5 0.125 0.91421375
v -0.5 0.875 0.91421375
v -0.3198925 0.875 0.839610625
v -0.3198925 0.125 0.839610625
v 0.08578625 0.125 1.5
v 0.08578625 0.875 1.5
v 0.160389375 0.875 1.3198925
v 0.160389375 0.125 1.3198925
vt 0 0.0625
vt 0.4375 0.0625
vt 0.4375 0.4375
vt 0 0.4375
vt 0.1833625 0.5625
vt 0.15625 0.5625
vt 0.15625 0.53125
vt 0.1833625 0.53125
vt 0.369666875 0
vt 0.036583125 0
vt 0 0.09375
vt 0.40625 0.09375
vt 0.40625 0.09375
vt 0 0.09375
vt 0.036583125 0
vt 0.369666875 0
vt 0 0.0625
vt 0.4375 0.0625
vt 0.4375 0.4375
vt 0 0.4375
vt 0.1833625 0.5625
vt 0.15625 0.5625
vt 0.15625 0.53125
vt 0.1833625 0.53125
vt 0.369666875 0
vt 0.036583125 0
vt 0 0.09375
vt 0.40625 0.09375
vt 0.40625 0.09375
vt 0 0.09375
vt 0.036583125 0
vt 0.369666875 0
vt 0 0.0625
vt 0.4375 0.0625
vt 0.4375 0.4375
vt 0 0.4375
vt 0.1833625 0.5625
vt 0.15625 0.5625
vt 0.15625 0.53125
vt 0.1833625 0.53125
vt 0.369666875 0
vt 0.036583125 0
vt 0 0.09375
vt 0.40625 0.09375
vt 0.40625 0.09375
vt 0 0.09375
vt 0.036583125 0
vt 0.369666875 0
vt 0 0.0625
vt 0.4375 0.0625
vt 0.4375 0.4375
vt 0 0.4375
vt 0.1833625 0.5625
vt 0.15625 0.5625
vt 0.15625 0.53125
vt 0.1833625 0.53125
vt 0.369666875 0
vt 0.036583125 0
vt 0 0.09375
vt 0.40625 0.09375
vt 0.40625 0.09375
vt 0 0.09375
vt 0.036583125 0
vt 0.369666875 0
vt 0 0.0625
vt 0.4375 0.0625
vt 0.4375 0.4375
vt 0 0.4375
vt 0.1833625 0.5625
vt 0.15625 0.5625
vt 0.15625 0.53125
vt 0.1833625 0.53125
vt 0.369666875 0
vt 0.036583125 0
vt 0 0.09375
vt 0.40625 0.09375
vt 0.40625 0.09375
vt 0 0.09375
vt 0.036583125 0
vt 0.369666875 0
vt 0 0.0625
vt 0.4375 0.0625
vt 0.4375 0.4375
vt 0 0.4375
vt 0.1833625 0.5625
vt 0.15625 0.5625
vt 0.15625 0.53125
vt 0.1833625 0.53125
vt 0.369666875 0
vt 0.036583125 0
vt 0 0.09375
vt 0.40625 0.09375
vt 0.40625 0.09375
vt 0 0.09375
vt 0.036583125 0
vt 0.369666875 0
vt 0 0.0625
vt 0.4375 0.0625
vt 0.4375 0.4375
vt 0 0.4375
vt 0.1833625 0.5625
vt 0.15625 0.5625
vt 0.15625 0.53125
vt 0.1833625 0.53125
vt 0.369666875 0
vt 0.036583125 0
vt 0 0.09375
vt 0.40625 0.09375
vt 0.40625 0.09375
vt 0 0.09375
vt 0.036583125 0
vt 0.369666875 0
vt 0 0.0625
vt 0.4375 0.0625
vt 0.4375 0.4375
vt 0 0.4375
vt 0.1833625 0.5625
vt 0.15625 0.5625
vt 0.15625 0.53125
vt 0.1833625 0.53125
vt 0.369666875 0
vt 0.036583125 0
vt 0 0.09375
vt 0.40625 0.09375
vt 0.40625 0.09375
vt 0 0.09375
vt 0.036583125 0
vt 0.369666875 0
vn 0.7071067811865476 0 0.7071067811865476
vn -0.7071067811865476 0 -0.7071067811865476
vn 0 -1 0
vn 0 1 0
vn 1 0 0
vn -1 0 0
vn 0 -1 0
vn 0 1 0
vn 0.7071067811865476 0 -0.7071067811865476
vn -0.7071067811865477 0 0.7071067811865475
vn 0 -1 0
vn 0 1 0
vn 0 0 -1
vn 0 0 1
vn 0 -1 0
vn 0 1 0
vn -0.7071067811865476 0 -0.7071067811865476
vn 0.7071067811865476 0 0.7071067811865476
vn 0 -1 0
vn 0 1 0
vn -1 0 0
vn 1 0 0
vn 0 -1 0
vn 0 1 0
vn -0.7071067811865476 0 0.7071067811865476
vn 0.7071067811865475 0 -0.7071067811865477
vn 0 -1 0
vn 0 1 0
vn 0 0 1
vn 0 0 -1
vn 0 -1 0
vn 0 1 0
usemtl m_372e1cad-2b0d-c674-ced3-79f40d3648ff
f 157/569/151 158/570/151 159/571/151 160/572/151
f 161/573/152 162/574/152 163/575/152 164/576/152
f 164/577/153 163/578/153 158/579/153 157/580/153
f 160/581/154 159/582/154 162/583/154 161/584/154
f 158/585/155 165/586/155 166/587/155 159/588/155
f 162/589/156 167/590/156 168/591/156 163/592/156
f 163/593/157 168/594/157 165/595/157 158/596/157
f 159/597/158 166/598/158 167/599/158 162/600/158
f 165/601/159 169/602/159 170/603/159 166/604/159
f 167/605/160 171/606/160 172/607/160 168/608/160
f 168/609/161 172/610/161 169/611/161 165/612/161
f 166/613/162 170/614/162 171/615/162 167/616/162
f 169/617/163 173/618/163 174/619/163 170/620/163
f 171/621/164 175/622/164 176/623/164 172/624/164
f 172/625/165 176/626/165 173/627/165 169/628/165
f 170/629/166 174/630/166 175/631/166 171/632/166
f 173/633/167 177/634/167 178/635/167 174/636/167
f 175/637/168 179/638/168 180/639/168 176/640/168
f 176/641/169 180/642/169 177/643/169 173/644/169
f 174/645/170 178/646/170 179/647/170 175/648/170
f 177/649/171 181/650/171 182/651/171 178/652/171
f 179/653/172 183/654/172 184/655/172 180/656/172
f 180/657/173 184/658/173 181/659/173 177/660/173
f 178/661/174 182/662/174 183/663/174 179/664/174
f 181/665/175 185/666/175 186/667/175 182/668/175
f 183/669/176 187/670/176 188/671/176 184/672/176
f 184/673/177 188/674/177 185/675/177 181/676/177
f 182/677/178 186/678/178 187/679/178 183/680/178
f 185/681/179 157/682/179 160/683/179 186/684/179
f 187/685/180 161/686/180 164/687/180 188/688/180
f 188/689/181 164/690/181 157/691/181 185/692/181
f 186/693/182 160/694/182 161/695/182 187/696/182
o chain_1
v 0.125 0.938125 0.40625
v -0.5625 0.938125 0.40625
v 0.125 0.938125 0.59375
v -0.5625 0.938125 0.59375
v 0.125 0.844375 0.5
v -0.5625 0.844375 0.5
v 0.125 1.0318749999999999 0.5
v -0.5625 1.0318749999999999 0.5
v 0.125 0.06187500000000001 0.40625
v -0.5625 0.06187500000000001 0.40625
v 0.125 0.06187500000000001 0.59375
v -0.5625 0.06187500000000001 0.59375
v 0.125 -0.03187499999999999 0.5
v -0.5625 -0.03187499999999999 0.5
v 0.125 0.155625 0.5
v -0.5625 0.155625 0.5
v -0.5625 0.0625 0.40625
v -0.5625 0.9375 0.40625
v -0.5625 0.0625 0.59375
v -0.5625 0.9375 0.59375
v -0.65625 0 0.5
v -0.65625 1 0.5
v -0.46875 0 0.5
v -0.46875 1 0.5
vt 0.1875 0.6875
vt 0.1875 0
vt 0.375 0
vt 0.375 0.6875
vt 0.1875 0.3125
vt 0.1875 1
vt 0 1
vt 0 0.3125
vt 0.1875 0.6875
vt 0.1875 0
vt 0.375 0
vt 0.375 0.6875
vt 0.1875 0.3125
vt 0.1875 1
vt 0 1
vt 0 0.3125
vt 0.375 0.0625
vt 0.375 0.9375
vt 0.1875 0.9375
vt 0.1875 0.0625
vt 0.1875 0
vt 0.1875 1
vt 0 1
vt 0 0
vn 0 1 0
vn 0 0 -1
vn 0 1 0
vn 0 0 -1
vn 1 0 0
vn 0 0 -1
usemtl m_0b1f4c7a-f663-e13c-6904-88e0aabc2040
f 189/697/183 190/698/183 192/699/183 191/700/183
f 193/701/184 194/702/184 196/703/184 195/704/184
f 197/705/185 198/706/185 200/707/185 199/708/185
f 201/709/186 202/710/186 204/711/186 203/712/186
f 205/713/187 206/714/187 208/715/187 207/716/187
f 209/717/188 210/718/188 212/719/188 211/720/188
o chain_2
v 0.875 0.938125 0.59375
v 1.5625 0.938125 0.59375
v 0.875 0.938125 0.40625
v 1.5625 0.938125 0.40624999999999994
v 0.875 0.844375 0.5
v 1.5625 0.844375 0.49999999999999994
v 0.875 1.0318749999999999 0.5
v 1.5625 1.0318749999999999 0.49999999999999994
v 0.875 0.06187500000000001 0.59375
v 1.5625 0.06187500000000001 0.59375
v 0.875 0.06187500000000001 0.40625
v 1.5625 0.06187500000000001 0.40624999999999994
v 0.875 -0.03187499999999999 0.5
v 1.5625 -0.03187499999999999 0.49999999999999994
v 0.875 0.155625 0.5
v 1.5625 0.155625 0.49999999999999994
v 1.5625 0.0625 0.59375
v 1.5625 0.9375 0.59375
v 1.5625 0.0625 0.40624999999999994
v 1.5625 0.9375 0.40624999999999994
v 1.65625 0 0.49999999999999994
v 1.65625 1 0.49999999999999994
v 1.46875 0 0.49999999999999994
v 1.46875 1 0.49999999999999994
vt 0.1875 0.6875
vt 0.1875 0
vt 0.375 0
vt 0.375 0.6875
vt 0.1875 0.3125
vt 0.1875 1
vt 0 1
vt 0 0.3125
vt 0.1875 0.6875
vt 0.1875 0
vt 0.375 0
vt 0.375 0.6875
vt 0.1875 0.3125
vt 0.1875 1
vt 0 1
vt 0 0.3125
vt 0.375 0.0625
vt 0.375 0.9375
vt 0.1875 0.9375
vt 0.1875 0.0625
vt 0.1875 0
vt 0.1875 1
vt 0 1
vt 0 0
vn 0 1 0
vn 1.2246467991473532e-16 0 1
vn 0 1 0
vn 1.2246467991473532e-16 0 1
vn -1 0 1.2246467991473532e-16
vn 1.2246467991473532e-16 0 1
usemtl m_0b1f4c7a-f663-e13c-6904-88e0aabc2040
f 213/721/189 214/722/189 216/723/189 215/724/189
f 217/725/190 218/726/190 220/727/190 219/728/190
f 221/729/191 222/730/191 224/731/191 223/732/191
f 225/733/192 226/734/192 228/735/192 227/736/192
f 229/737/193 230/738/193 232/739/193 231/740/193
f 233/741/194 234/742/194 236/743/194 235/744/194
o chain_3
v 0.5937499999999999 0.938125 0.125
v 0.5937499999999998 0.938125 -0.5625
v 0.4062499999999999 0.938125 0.125
v 0.4062499999999998 0.938125 -0.5625
v 0.4999999999999999 0.844375 0.125
v 0.4999999999999998 0.844375 -0.5625
v 0.4999999999999999 1.0318749999999999 0.125
v 0.4999999999999998 1.0318749999999999 -0.5625
v 0.5937499999999999 0.06187500000000001 0.125
v 0.5937499999999998 0.06187500000000001 -0.5625
v 0.4062499999999999 0.06187500000000001 0.125
v 0.4062499999999998 0.06187500000000001 -0.5625
v 0.4999999999999999 -0.03187499999999999 0.125
v 0.4999999999999998 -0.03187499999999999 -0.5625
v 0.4999999999999999 0.155625 0.125
v 0.4999999999999998 0.155625 -0.5625
v 0.5937499999999998 0.0625 -0.5625
v 0.5937499999999998 0.9375 -0.5625
v 0.4062499999999998 0.0625 -0.5625
v 0.4062499999999998 0.9375 -0.5625
v 0.4999999999999997 0 -0.65625
v 0.4999999999999997 1 -0.65625
v 0.4999999999999998 0 -0.46875
v 0.4999999999999998 1 -0.46875
vt 0.1875 0.6875
vt 0.1875 0
vt 0.375 0
vt 0.375 0.6875
vt 0.1875 0.3125
vt 0.1875 1
vt 0 1
vt 0 0.3125
vt 0.1875 0.6875
vt 0.1875 0
vt 0.375 0
vt 0.375 0.6875
vt 0.1875 0.3125
vt 0.1875 1
vt 0 1
vt 0 0.3125
vt 0.375 0.0625
vt 0.375 0.9375
vt 0.1875 0.9375
vt 0.1875 0.0625
vt 0.1875 0
vt 0.1875 1
vt 0 1
vt 0 0
vn 0 1 0
vn 1 0 -2.220446049250313e-16
vn 0 1 0
vn 1 0 -2.220446049250313e-16
vn 2.220446049250313e-16 0 1
vn 1 0 -2.220446049250313e-16
usemtl m_0b1f4c7a-f663-e13c-6904-88e0aabc2040
f 237/745/195 238/746/195 240/747/195 239/748/195
f 241/749/196 242/750/196 244/751/196 243/752/196
f 245/753/197 246/754/197 248/755/197 247/756/197
f 249/757/198 250/758/198 252/759/198 251/760/198
f 253/761/199 254/762/199 256/763/199 255/764/199
f 257/765/200 258/766/200 260/767/200 259/768/200
o chain_2
v 0.4062499999999999 0.938125 0.875
v 0.4062499999999998 0.938125 1.5625
v 0.5937499999999999 0.938125 0.875
v 0.5937499999999998 0.938125 1.5625
v 0.4999999999999999 0.844375 0.875
v 0.4999999999999998 0.844375 1.5625
v 0.4999999999999999 1.0318749999999999 0.875
v 0.4999999999999998 1.0318749999999999 1.5625
v 0.4062499999999999 0.06187500000000001 0.875
v 0.4062499999999998 0.06187500000000001 1.5625
v 0.5937499999999999 0.06187500000000001 0.875
v 0.5937499999999998 0.06187500000000001 1.5625
v 0.4999999999999999 -0.03187499999999999 0.875
v 0.4999999999999998 -0.03187499999999999 1.5625
v 0.4999999999999999 0.155625 0.875
v 0.4999999999999998 0.155625 1.5625
v 0.4062499999999998 0.0625 1.5625
v 0.4062499999999998 0.9375 1.5625
v 0.5937499999999998 0.0625 1.5625
v 0.5937499999999998 0.9375 1.5625
v 0.4999999999999997 0 1.65625
v 0.4999999999999997 1 1.65625
v 0.4999999999999998 0 1.46875
v 0.4999999999999998 1 1.46875
vt 0.1875 0.6875
vt 0.1875 0
vt 0.375 0
vt 0.375 0.6875
vt 0.1875 0.3125
vt 0.1875 1
vt 0 1
vt 0 0.3125
vt 0.1875 0.6875
vt 0.1875 0
vt 0.375 0
vt 0.375 0.6875
vt 0.1875 0.3125
vt 0.1875 1
vt 0 1
vt 0 0.3125
vt 0.375 0.0625
vt 0.375 0.9375
vt 0.1875 0.9375
vt 0.1875 0.0625
vt 0.1875 0
vt 0.1875 1
vt 0 1
vt 0 0
vn 0 1 0
vn -1 0 -2.220446049250313e-16
vn 0 1 0
vn -1 0 -2.220446049250313e-16
vn 2.220446049250313e-16 0 -1
vn -1 0 -2.220446049250313e-16
usemtl m_0b1f4c7a-f663-e13c-6904-88e0aabc2040
f 261/769/201 262/770/201 264/771/201 263/772/201
f 265/773/202 266/774/202 268/775/202 267/776/202
f 269/777/203 270/778/203 272/779/203 271/780/203
f 273/781/204 274/782/204 276/783/204 275/784/204
f 277/785/205 278/786/205 280/787/205 279/788/205
f 281/789/206 282/790/206 284/791/206 283/792/206
o shaft
v 0.375 1 0.375
v 0.625 1 0.375
v 0.625 0 0.375
v 0.375 0 0.375
v 0.375 1 0.625
v 0.375 0 0.625
v 0.625 1 0.625
v 0.625 0 0.625
vt 0.625 1
vt 0.375 1
vt 0.375 0
vt 0.625 0
vt 0.625 1
vt 0.375 1
vt 0.375 0
vt 0.625 0
vt 0.625 1
vt 0.375 1
vt 0.375 0
vt 0.625 0
vt 0.625 1
vt 0.375 1
vt 0.375 0
vt 0.625 0
vt 0.625 0.375
vt 0.625 0.625
vt 0.375 0.625
vt 0.375 0.375
vt 0.625 0.625
vt 0.375 0.625
vt 0.375 0.375
vt 0.625 0.375
vn 0 0 -1
vn -1 0 0
vn 0 0 1
vn 1 0 0
vn 0 -1 0
vn 0 1 0
usemtl m_5033f061-23ac-bcdb-882f-e6ae25cdd10f
f 285/793/207 286/794/207 287/795/207 288/796/207
f 289/797/208 285/798/208 288/799/208 290/800/208
f 291/801/209 289/802/209 290/803/209 292/804/209
f 286/805/210 291/806/210 292/807/210 287/808/210
usemtl m_042bdf08-dac5-183f-613d-cc72af39cf49
f 292/809/211 290/810/211 288/811/211 287/812/211
f 286/813/212 285/814/212 289/815/212 291/816/212
o chain_3
v 0.4062499999999999 0.938125 0.875
v 0.4062499999999998 0.938125 1.5625
v 0.5937499999999999 0.938125 0.875
v 0.5937499999999998 0.938125 1.5625
v 0.4999999999999999 0.844375 0.875
v 0.4999999999999998 0.844375 1.5625
v 0.4999999999999999 1.0318749999999999 0.875
v 0.4999999999999998 1.0318749999999999 1.5625
v 0.4062499999999999 0.06187500000000001 0.875
v 0.4062499999999998 0.06187500000000001 1.5625
v 0.5937499999999999 0.06187500000000001 0.875
v 0.5937499999999998 0.06187500000000001 1.5625
v 0.4999999999999999 -0.03187499999999999 0.875
v 0.4999999999999998 -0.03187499999999999 1.5625
v 0.4999999999999999 0.155625 0.875
v 0.4999999999999998 0.155625 1.5625
v 0.4062499999999998 0.0625 1.5625
v 0.4062499999999998 0.9375 1.5625
v 0.5937499999999998 0.0625 1.5625
v 0.5937499999999998 0.9375 1.5625
v 0.4999999999999997 0 1.65625
v 0.4999999999999997 1 1.65625
v 0.4999999999999998 0 1.46875
v 0.4999999999999998 1 1.46875
vt 0.375 0
vt 0.1875 0
vt 0.1875 0.6875
vt 0.375 0.6875
vt 0 1
vt 0.1875 1
vt 0.1875 0.3125
vt 0 0.3125
vt 0.375 0
vt 0.1875 0
vt 0.1875 0.6875
vt 0.375 0.6875
vt 0 1
vt 0.1875 1
vt 0.1875 0.3125
vt 0 0.3125
vt 0.1875 0.9375
vt 0.375 0.9375
vt 0.375 0.0625
vt 0.1875 0.0625
vt 0 1
vt 0.1875 1
vt 0.1875 0
vt 0 0
vn 0 -1 0
vn 1 0 2.220446049250313e-16
vn 0 -1 0
vn 1 0 2.220446049250313e-16
vn -2.220446049250313e-16 0 1
vn 1 0 2.220446049250313e-16
usemtl m_0b1f4c7a-f663-e13c-6904-88e0aabc2040
f 296/817/213 294/818/213 293/819/213 295/820/213
f 300/821/214 298/822/214 297/823/214 299/824/214
f 304/825/215 302/826/215 301/827/215 303/828/215
f 308/829/216 306/830/216 305/831/216 307/832/216
f 312/833/217 310/834/217 309/835/217 311/836/217
f 316/837/218 314/838/218 313/839/218 315/840/218
o chain_4
v 0.5937499999999999 0.938125 0.125
v 0.5937499999999998 0.938125 -0.5625
v 0.4062499999999999 0.938125 0.125
v 0.4062499999999998 0.938125 -0.5625
v 0.4999999999999999 0.844375 0.125
v 0.4999999999999998 0.844375 -0.5625
v 0.4999999999999999 1.0318749999999999 0.125
v 0.4999999999999998 1.0318749999999999 -0.5625
v 0.5937499999999999 0.06187500000000001 0.125
v 0.5937499999999998 0.06187500000000001 -0.5625
v 0.4062499999999999 0.06187500000000001 0.125
v 0.4062499999999998 0.06187500000000001 -0.5625
v 0.4999999999999999 -0.03187499999999999 0.125
v 0.4999999999999998 -0.03187499999999999 -0.5625
v 0.4999999999999999 0.155625 0.125
v 0.4999999999999998 0.155625 -0.5625
v 0.5937499999999998 0.0625 -0.5625
v 0.5937499999999998 0.9375 -0.5625
v 0.4062499999999998 0.0625 -0.5625
v 0.4062499999999998 0.9375 -0.5625
v 0.4999999999999997 0 -0.65625
v 0.4999999999999997 1 -0.65625
v 0.4999999999999998 0 -0.46875
v 0.4999999999999998 1 -0.46875
vt 0.375 0
vt 0.1875 0
vt 0.1875 0.6875
vt 0.375 0.6875
vt 0 1
vt 0.1875 1
vt 0.1875 0.3125
vt 0 0.3125
vt 0.375 0
vt 0.1875 0
vt 0.1875 0.6875
vt 0.375 0.6875
vt 0 1
vt 0.1875 1
vt 0.1875 0.3125
vt 0 0.3125
vt 0.1875 0.9375
vt 0.375 0.9375
vt 0.375 0.0625
vt 0.1875 0.0625
vt 0 1
vt 0.1875 1
vt 0.1875 0
vt 0 0
vn 0 -1 0
vn -1 0 2.220446049250313e-16
vn 0 -1 0
vn -1 0 2.220446049250313e-16
vn -2.220446049250313e-16 0 -1
vn -1 0 2.220446049250313e-16
usemtl m_0b1f4c7a-f663-e13c-6904-88e0aabc2040
f 320/841/219 318/842/219 317/843/219 319/844/219
f 324/845/220 322/846/220 321/847/220 323/848/220
f 328/849/221 326/850/221 325/851/221 327/852/221
f 332/853/222 330/854/222 329/855/222 331/856/222
f 336/857/223 334/858/223 333/859/223 335/860/223
f 340/861/224 338/862/224 337/863/224 339/864/224
o chain_3
v 0.875 0.938125 0.59375
v 1.5625 0.938125 0.59375
v 0.875 0.938125 0.40625
v 1.5625 0.938125 0.40624999999999994
v 0.875 0.844375 0.5
v 1.5625 0.844375 0.49999999999999994
v 0.875 1.0318749999999999 0.5
v 1.5625 1.0318749999999999 0.49999999999999994
v 0.875 0.06187500000000001 0.59375
v 1.5625 0.06187500000000001 0.59375
v 0.875 0.06187500000000001 0.40625
v 1.5625 0.06187500000000001 0.40624999999999994
v 0.875 -0.03187499999999999 0.5
v 1.5625 -0.03187499999999999 0.49999999999999994
v 0.875 0.155625 0.5
v 1.5625 0.155625 0.49999999999999994
v 1.5625 0.0625 0.59375
v 1.5625 0.9375 0.59375
v 1.5625 0.0625 0.40624999999999994
v 1.5625 0.9375 0.40624999999999994
v 1.65625 0 0.49999999999999994
v 1.65625 1 0.49999999999999994
v 1.46875 0 0.49999999999999994
v 1.46875 1 0.49999999999999994
vt 0.375 0
vt 0.1875 0
vt 0.1875 0.6875
vt 0.375 0.6875
vt 0 1
vt 0.1875 1
vt 0.1875 0.3125
vt 0 0.3125
vt 0.375 0
vt 0.1875 0
vt 0.1875 0.6875
vt 0.375 0.6875
vt 0 1
vt 0.1875 1
vt 0.1875 0.3125
vt 0 0.3125
vt 0.1875 0.9375
vt 0.375 0.9375
vt 0.375 0.0625
vt 0.1875 0.0625
vt 0 1
vt 0.1875 1
vt 0.1875 0
vt 0 0
vn 0 -1 0
vn -1.2246467991473532e-16 0 -1
vn 0 -1 0
vn -1.2246467991473532e-16 0 -1
vn 1 0 -1.2246467991473532e-16
vn -1.2246467991473532e-16 0 -1
usemtl m_0b1f4c7a-f663-e13c-6904-88e0aabc2040
f 344/865/225 342/866/225 341/867/225 343/868/225
f 348/869/226 346/870/226 345/871/226 347/872/226
f 352/873/227 350/874/227 349/875/227 351/876/227
f 356/877/228 354/878/228 353/879/228 355/880/228
f 360/881/229 358/882/229 357/883/229 359/884/229
f 364/885/230 362/886/230 361/887/230 363/888/230
o chain_2
v 0.125 0.938125 0.40625
v -0.5625 0.938125 0.40625
v 0.125 0.938125 0.59375
v -0.5625 0.938125 0.59375
v 0.125 0.844375 0.5
v -0.5625 0.844375 0.5
v 0.125 1.0318749999999999 0.5
v -0.5625 1.0318749999999999 0.5
v 0.125 0.06187500000000001 0.40625
v -0.5625 0.06187500000000001 0.40625
v 0.125 0.06187500000000001 0.59375
v -0.5625 0.06187500000000001 0.59375
v 0.125 -0.03187499999999999 0.5
v -0.5625 -0.03187499999999999 0.5
v 0.125 0.155625 0.5
v -0.5625 0.155625 0.5
v -0.5625 0.0625 0.40625
v -0.5625 0.9375 0.40625
v -0.5625 0.0625 0.59375
v -0.5625 0.9375 0.59375
v -0.65625 0 0.5
v -0.65625 1 0.5
v -0.46875 0 0.5
v -0.46875 1 0.5
vt 0.375 0
vt 0.1875 0
vt 0.1875 0.6875
vt 0.375 0.6875
vt 0 1
vt 0.1875 1
vt 0.1875 0.3125
vt 0 0.3125
vt 0.375 0
vt 0.1875 0
vt 0.1875 0.6875
vt 0.375 0.6875
vt 0 1
vt 0.1875 1
vt 0.1875 0.3125
vt 0 0.3125
vt 0.1875 0.9375
vt 0.375 0.9375
vt 0.375 0.0625
vt 0.1875 0.0625
vt 0 1
vt 0.1875 1
vt 0.1875 0
vt 0 0
vn 0 -1 0
vn 0 0 1
vn 0 -1 0
vn 0 0 1
vn -1 0 0
vn 0 0 1
usemtl m_0b1f4c7a-f663-e13c-6904-88e0aabc2040
f 368/889/231 366/890/231 365/891/231 367/892/231
f 372/893/232 370/894/232 369/895/232 371/896/232
f 376/897/233 374/898/233 373/899/233 375/900/233
f 380/901/234 378/902/234 377/903/234 379/904/234
f 384/905/235 382/906/235 381/907/235 383/908/235
f 388/909/236 386/910/236 385/911/236 387/912/236