# Made in Blockbench 5.1.4
mtllib item.mtl

o spokes
v -0.0625 0.75 0.732995
v 0.267005 0.75 1.0625
v 0.5 0.75 0.5
v -0.0625 0.25 0.732995
v 0.267005 0.25 1.0625
v 0.5 0.25 0.5
v -0.0625 0.75 0.267005
v -0.0625 0.25 0.267005
v 0.267005 0.75 -0.0625
v 0.267005 0.25 -0.0625
v 0.732995 0.75 -0.0625
v 0.732995 0.25 -0.0625
v 1.0625 0.75 0.267005
v 1.0625 0.25 0.267005
v 1.0625 0.75 0.732995
v 1.0625 0.25 0.732995
v 0.732995 0.75 1.0625
v 0.732995 0.25 1.0625
vt 0.9296875 0.9375
vt 0.6953125 0.9375
vt 0.8125 0.65625
vt 0.6953125 0.90625
vt 0.9296875 0.90625
vt 0.9296875 0.9375
vt 0.6953125 0.9375
vt 0.9296875 0.9375
vt 0.6953125 0.9375
vt 0.8125 0.65625
vt 0.9296875 0.9375
vt 0.6953125 0.9375
vt 0.8125 0.65625
vt 0.6953125 0.90625
vt 0.9296875 0.90625
vt 0.9296875 0.9375
vt 0.6953125 0.9375
vt 0.9296875 0.9375
vt 0.6953125 0.9375
vt 0.8125 0.65625
vt 0.9296875 0.9375
vt 0.6953125 0.9375
vt 0.8125 0.65625
vt 0.6953125 0.90625
vt 0.9296875 0.90625
vt 0.9296875 0.9375
vt 0.6953125 0.9375
vt 0.9296875 0.9375
vt 0.6953125 0.9375
vt 0.8125 0.65625
vt 0.9296875 0.9375
vt 0.6953125 0.9375
vt 0.8125 0.65625
vt 0.6953125 0.90625
vt 0.9296875 0.90625
vt 0.9296875 0.9375
vt 0.6953125 0.9375
vt 0.9296875 0.9375
vt 0.6953125 0.9375
vt 0.8125 0.65625
vt 0.9296875 0.9375
vt 0.6953125 0.9375
vt 0.8125 0.65625
vt 0.6953125 0.90625
vt 0.9296875 0.90625
vt 0.9296875 0.9375
vt 0.6953125 0.9375
vt 0.9296875 0.9375
vt 0.6953125 0.9375
vt 0.8125 0.65625
vt 0.9296875 0.9375
vt 0.6953125 0.9375
vt 0.8125 0.65625
vt 0.6953125 0.90625
vt 0.9296875 0.90625
vt 0.9296875 0.9375
vt 0.6953125 0.9375
vt 0.9296875 0.9375
vt 0.6953125 0.9375
vt 0.8125 0.65625
vt 0.9296875 0.9375
vt 0.6953125 0.9375
vt 0.8125 0.65625
vt 0.6953125 0.90625
vt 0.9296875 0.90625
vt 0.9296875 0.9375
vt 0.6953125 0.9375
vt 0.9296875 0.9375
vt 0.6953125 0.9375
vt 0.8125 0.65625
vt 0.9296875 0.9375
vt 0.6953125 0.9375
vt 0.8125 0.65625
vt 0.6953125 0.90625
vt 0.9296875 0.90625
vt 0.9296875 0.9375
vt 0.6953125 0.9375
vt 0.9296875 0.9375
vt 0.6953125 0.9375
vt 0.8125 0.65625
vn 0 1 0
vn -0.7071067811865477 0 0.7071067811865475
vn 0 -1 0
vn 0 1 0
vn -1 0 0
vn 0 -1 0
vn 0 1 0
vn -0.7071067811865476 0 -0.7071067811865476
vn 0 -1 0
vn 0 1 0
vn 0 0 -1
vn 0 -1 0
vn 0 1 0
vn 0.7071067811865475 0 -0.7071067811865477
vn 0 -1 0
vn 0 1 0
vn 1 0 0
vn 0 -1 0
vn 0 1 0
vn 0.7071067811865476 0 0.7071067811865476
vn 0 -1 0
vn 0 1 0
vn 0 0 1
vn 0 -1 0
usemtl m_1a375f9a-28e8-14c5-fdce-c14984e7260e
f 1/1/1 2/2/1 3/3/1
f 2/4/2 1/5/2 4/6/2 5/7/2
f 5/8/3 4/9/3 6/10/3
f 7/11/4 1/12/4 3/13/4
f 1/14/5 7/15/5 8/16/5 4/17/5
f 4/18/6 8/19/6 6/20/6
f 9/21/7 7/22/7 3/23/7
f 7/24/8 9/25/8 10/26/8 8/27/8
f 8/28/9 10/29/9 6/30/9
f 11/31/10 9/32/10 3/33/10
f 9/34/11 11/35/11 12/36/11 10/37/11
f 10/38/12 12/39/12 6/40/12
f 13/41/13 11/42/13 3/43/13
f 11/44/14 13/45/14 14/46/14 12/47/14
f 12/48/15 14/49/15 6/50/15
f 15/51/16 13/52/16 3/53/16
f 13/54/17 15/55/17 16/56/17 14/57/17
f 14/58/18 16/59/18 6/60/18
f 17/61/19 15/62/19 3/63/19
f 15/64/20 17/65/20 18/66/20 16/67/20
f 16/68/21 18/69/21 6/70/21
f 2/71/22 17/72/22 3/73/22
f 17/74/23 2/75/23 5/76/23 18/77/23
f 18/78/24 5/79/24 6/80/24
o core
v 0.75 0.8125 0.25
v 0.25 0.8125 0.25
v 0.25 0.8125 0.75
v 0.75 0.8125 0.75
v 0.75 0.1875 0.75
v 0.25 0.1875 0.75
v 0.25 0.1875 0.25
v 0.75 0.1875 0.25
vt 0.9375 0.0625
vt 0.9375 0.3125
vt 0.6875 0.3125
vt 0.6875 0.0625
vt 0.9375 0.0625
vt 0.9375 0.3125
vt 0.6875 0.3125
vt 0.6875 0.0625
vt 0.5625 0.34375
vt 0.625 0.34375
vt 0.625 0.375
vt 0.5625 0.375
vt 0.5625 0.34375
vt 0.625 0.34375
vt 0.625 0.375
vt 0.5625 0.375
vt 0.5625 0.34375
vt 0.625 0.34375
vt 0.625 0.375
vt 0.5625 0.375
vt 0.5625 0.34375
vt 0.625 0.34375
vt 0.625 0.375
vt 0.5625 0.375
vn 0 1 0
vn 0 -1 0
vn -1 0 0
vn 1 0 0
vn 0 0 1
vn 0 0 -1
usemtl m_1a375f9a-28e8-14c5-fdce-c14984e7260e
f 19/81/25 20/82/25 21/83/25 22/84/25
f 23/85/26 24/86/26 25/87/26 26/88/26
f 21/89/27 20/90/27 25/91/27 24/92/27
f 19/93/28 22/94/28 23/95/28 26/96/28
f 22/97/29 21/98/29 24/99/29 23/100/29
f 26/101/30 25/102/30 20/103/30 19/104/30
o belt_tire
v 0.81066 0.75 1.249998125
v 0.81066 0.5 1.249998125
v 1.25 0.5 0.81065875
v 1.25 0.75 0.81065875
v 0.7327025 0.75 1.0617925
v 1.061794375 0.75 0.73270125
v 1.061794375 0.25 0.73270125
v 0.7327025 0.25 1.0617925
v 1.25 0.25 0.81065875
v 0.81066 0.25 1.249998125
v 1.25 0.5 0.189338125
v 1.25 0.75 0.189338125
v 1.061794375 0.75 0.267295625
v 1.061794375 0.25 0.267295625
v 1.25 0.25 0.189338125
v 0.81066 0.5 -0.250001875
v 0.81066 0.75 -0.250001875
v 0.7327025 0.75 -0.061795625
v 0.7327025 0.25 -0.061795625
v 0.81066 0.25 -0.250001875
v 0.18934 0.5 -0.250001875
v 0.18934 0.75 -0.250001875
v 0.2672975 0.75 -0.061795625
v 0.2672975 0.25 -0.061795625
v 0.18934 0.25 -0.250001875
v -0.25 0.5 0.189338125
v -0.25 0.75 0.189338125
v -0.061794375 0.75 0.267295625
v -0.061794375 0.25 0.267295625
v -0.25 0.25 0.189338125
v -0.25 0.5 0.81065875
v -0.25 0.75 0.81065875
v -0.061794375 0.75 0.73270125
v -0.061794375 0.25 0.73270125
v -0.25 0.25 0.81065875
v 0.18934 0.5 1.249998125
v 0.18934 0.75 1.249998125
v 0.2672975 0.75 1.0617925
v 0.2672975 0.25 1.0617925
v 0.18934 0.25 1.249998125
vt 0.4375 0
vt 0.5625 0
vt 0.5625 0.3125
vt 0.4375 0.3125
vt 0.3577 0.90625
vt 0.125 0.90625
vt 0.125 0.875
vt 0.3577 0.875
vt 0.101711875 0
vt 0.335788125 0
vt 0.375 0.09375
vt 0.0625 0.09375
vt 0.375 0.09375
vt 0.0625 0.09375
vt 0.101711875 0
vt 0.335788125 0
vt 0.4375 0
vt 0.5625 0
vt 0.5625 0.3125
vt 0.4375 0.3125
vt 0.3577 0.90625
vt 0.125 0.90625
vt 0.125 0.875
vt 0.3577 0.875
vt 0.101711875 0
vt 0.335788125 0
vt 0.375 0.09375
vt 0.0625 0.09375
vt 0.375 0.09375
vt 0.0625 0.09375
vt 0.101711875 0
vt 0.335788125 0
vt 0.4375 0
vt 0.5625 0
vt 0.5625 0.3125
vt 0.4375 0.3125
vt 0.3577 0.90625
vt 0.125 0.90625
vt 0.125 0.875
vt 0.3577 0.875
vt 0.101711875 0
vt 0.335788125 0
vt 0.375 0.09375
vt 0.0625 0.09375
vt 0.375 0.09375
vt 0.0625 0.09375
vt 0.101711875 0
vt 0.335788125 0
vt 0.4375 0
vt 0.5625 0
vt 0.5625 0.3125
vt 0.4375 0.3125
vt 0.3577 0.90625
vt 0.125 0.90625
vt 0.125 0.875
vt 0.3577 0.875
vt 0.101711875 0
vt 0.335788125 0
vt 0.375 0.09375
vt 0.0625 0.09375
vt 0.375 0.09375
vt 0.0625 0.09375
vt 0.101711875 0
vt 0.335788125 0
vt 0.4375 0
vt 0.5625 0
vt 0.5625 0.3125
vt 0.4375 0.3125
vt 0.3577 0.90625
vt 0.125 0.90625
vt 0.125 0.875
vt 0.3577 0.875
vt 0.101711875 0
vt 0.335788125 0
vt 0.375 0.09375
vt 0.0625 0.09375
vt 0.375 0.09375
vt 0.0625 0.09375
vt 0.101711875 0
vt 0.335788125 0
vt 0.4375 0
vt 0.5625 0
vt 0.5625 0.3125
vt 0.4375 0.3125
vt 0.3577 0.90625
vt 0.125 0.90625
vt 0.125 0.875
vt 0.3577 0.875
vt 0.101711875 0
vt 0.335788125 0
vt 0.375 0.09375
vt 0.0625 0.09375
vt 0.375 0.09375
vt 0.0625 0.09375
vt 0.101711875 0
vt 0.335788125 0
vt 0.4375 0
vt 0.5625 0
vt 0.5625 0.3125
vt 0.4375 0.3125
vt 0.3577 0.90625
vt 0.125 0.90625
vt 0.125 0.875
vt 0.3577 0.875
vt 0.101711875 0
vt 0.335788125 0
vt 0.375 0.09375
vt 0.0625 0.09375
vt 0.375 0.09375
vt 0.0625 0.09375
vt 0.101711875 0
vt 0.335788125 0
vt 0.4375 0
vt 0.5625 0
vt 0.5625 0.3125
vt 0.4375 0.3125
vt 0.3577 0.90625
vt 0.125 0.90625
vt 0.125 0.875
vt 0.3577 0.875
vt 0.101711875 0
vt 0.335788125 0
vt 0.375 0.09375
vt 0.0625 0.09375
vt 0.375 0.09375
vt 0.0625 0.09375
vt 0.101711875 0
vt 0.335788125 0
vt 0.4375 0.3125
vt 0.5625 0.3125
vt 0.5625 0
vt 0.4375 0
vt 0.4375 0.3125
vt 0.5625 0.3125
vt 0.5625 0
vt 0.4375 0
vt 0.4375 0.3125
vt 0.5625 0.3125
vt 0.5625 0
vt 0.4375 0
vt 0.4375 0.3125
vt 0.5625 0.3125
vt 0.5625 0
vt 0.4375 0
vt 0.4375 0.3125
vt 0.5625 0.3125
vt 0.5625 0
vt 0.4375 0
vt 0.4375 0.3125
vt 0.5625 0.3125
vt 0.5625 0
vt 0.4375 0
vt 0.4375 0.3125
vt 0.5625 0.3125
vt 0.5625 0
vt 0.4375 0
vt 0.4375 0.3125
vt 0.5625 0.3125
vt 0.5625 0
vt 0.4375 0
vn 0.7071062782250489 0 0.7071072841476885
vn -0.7071061097291197 0 -0.7071074526433377
vn 0 -1 0
vn 0 1 0
vn 1 0 0
vn -1 0 0
vn 0 -1 0
vn 0 1 0
vn 0.7071067811865476 0 -0.7071067811865476
vn -0.7071061097291198 0 0.7071074526433376
vn 0 -1 0
vn 0 1 0
vn 0 0 -1
vn 0 0 1
vn 0 -1 0
vn 0 1 0
vn -0.7071067811865476 0 -0.7071067811865476
vn 0.7071061097291198 0 0.7071074526433376
vn 0 -1 0
vn 0 1 0
vn -1 0 0
vn 1 0 0
vn 0 -1 0
vn 0 1 0
vn -0.7071062782250488 0 0.7071072841476885
vn 0.7071061097291197 0 -0.7071074526433377
vn 0 -1 0
vn 0 1 0
vn 0 0 1
vn 0 0 -1
vn 0 -1 0
vn 0 1 0
vn -1 0 0
vn -0.7071067811865476 0 -0.7071067811865476
vn 0 0 -1
vn 0.7071067811865476 0 -0.7071067811865476
vn 1 0 0
vn 0.7071062782250489 0 0.7071072841476885
vn 0 0 1
vn -0.7071062782250488 0 0.7071072841476885
usemtl m_1a375f9a-28e8-14c5-fdce-c14984e7260e
f 27/105/31 28/106/31 29/107/31 30/108/31
f 31/109/32 32/110/32 33/111/32 34/112/32
f 34/113/33 33/114/33 35/115/33 36/116/33
f 27/117/34 30/118/34 32/119/34 31/120/34
f 30/121/35 29/122/35 37/123/35 38/124/35
f 32/125/36 39/126/36 40/127/36 33/128/36
f 33/129/37 40/130/37 41/131/37 35/132/37
f 30/133/38 38/134/38 39/135/38 32/136/38
f 38/137/39 37/138/39 42/139/39 43/140/39
f 39/141/40 44/142/40 45/143/40 40/144/40
f 40/145/41 45/146/41 46/147/41 41/148/41
f 38/149/42 43/150/42 44/151/42 39/152/42
f 43/153/43 42/154/43 47/155/43 48/156/43
f 44/157/44 49/158/44 50/159/44 45/160/44
f 45/161/45 50/162/45 51/163/45 46/164/45
f 43/165/46 48/166/46 49/167/46 44/168/46
f 48/169/47 47/170/47 52/171/47 53/172/47
f 49/173/48 54/174/48 55/175/48 50/176/48
f 50/177/49 55/178/49 56/179/49 51/180/49
f 48/181/50 53/182/50 54/183/50 49/184/50
f 53/185/51 52/186/51 57/187/51 58/188/51
f 54/189/52 59/190/52 60/191/52 55/192/52
f 55/193/53 60/194/53 61/195/53 56/196/53
f 53/197/54 58/198/54 59/199/54 54/200/54
f 58/201/55 57/202/55 62/203/55 63/204/55
f 59/205/56 64/206/56 65/207/56 60/208/56
f 60/209/57 65/210/57 66/211/57 61/212/57
f 58/213/58 63/214/58 64/215/58 59/216/58
f 63/217/59 62/218/59 28/219/59 27/220/59
f 64/221/60 31/222/60 34/223/60 65/224/60
f 65/225/61 34/226/61 36/227/61 66/228/61
f 63/229/62 27/230/62 31/231/62 64/232/62
f 61/233/63 57/234/63 52/235/63 56/236/63
f 56/237/64 52/238/64 47/239/64 51/240/64
f 51/241/65 47/242/65 42/243/65 46/244/65
f 46/245/66 42/246/66 37/247/66 41/248/66
f 41/249/67 37/250/67 29/251/67 35/252/67
f 35/253/68 29/254/68 28/255/68 36/256/68
f 36/257/69 28/258/69 62/259/69 66/260/69
f 66/261/70 62/262/70 57/263/70 61/264/70
o chain_1
v 0.4375 0.9375 0.40625
v -0.375 0.9375 0.40625
v 0.4375 0.9375 0.59375
v -0.375 0.9375 0.59375
v 0.375 0.84375 0.5
v -0.375 0.84375 0.5
v 0.375 1.03125 0.5
v -0.375 1.03125 0.5
v 0.4375 0.06125000000000003 0.40625
v -0.375 0.06125000000000003 0.40625
v 0.4375 0.06125000000000003 0.59375
v -0.375 0.06125000000000003 0.59375
v 0.375 -0.03249999999999997 0.5
v -0.375 -0.03249999999999997 0.5
v 0.375 0.15500000000000003 0.5
v -0.375 0.15500000000000003 0.5
v -0.375 0.06187500000000001 0.40625
v -0.375 0.936875 0.40625
v -0.375 0.06187500000000001 0.59375
v -0.375 0.936875 0.59375
v -0.46875 -0.0006249999999999867 0.5
v -0.46875 0.999375 0.5
v -0.28125 -0.0006249999999999867 0.5
v -0.28125 0.999375 0.5
vt 0.1875 0.8125
vt 0.1875 0
vt 0.375 0
vt 0.375 0.8125
vt 0.1875 0.25
vt 0.1875 1
vt 0 1
vt 0 0.25
vt 0.1875 0.8125
vt 0.1875 0
vt 0.375 0
vt 0.375 0.8125
vt 0.1875 0.25
vt 0.1875 1
vt 0 1
vt 0 0.25
vt 0.375 0.0625
vt 0.375 0.9375
vt 0.1875 0.9375
vt 0.1875 0.0625
vt 0 1
vt 0 0
vt 0.1875 0
vt 0.1875 1
vn 0 1 0
vn 0 0 -1
vn 0 1 0
vn 0 0 -1
vn 1 0 0
vn 0 0 -1
usemtl m_aa4f5747-7eef-8fe7-321b-aa2937943ceb
f 67/265/71 68/266/71 70/267/71 69/268/71
f 71/269/72 72/270/72 74/271/72 73/272/72
f 75/273/73 76/274/73 78/275/73 77/276/73
f 79/277/74 80/278/74 82/279/74 81/280/74
f 83/281/75 84/282/75 86/283/75 85/284/75
f 87/285/76 88/286/76 90/287/76 89/288/76
o chain_2
v 0.5625 0.9375 0.59375
v 1.375 0.9375 0.59375
v 0.5625 0.9375 0.40625000000000006
v 1.375 0.9375 0.40624999999999994
v 0.625 0.84375 0.5
v 1.375 0.84375 0.49999999999999994
v 0.625 1.03125 0.5
v 1.375 1.03125 0.49999999999999994
v 0.5625 0.06125000000000003 0.59375
v 1.375 0.06125000000000003 0.59375
v 0.5625 0.06125000000000003 0.40625000000000006
v 1.375 0.06125000000000003 0.40624999999999994
v 0.625 -0.03249999999999997 0.5
v 1.375 -0.03249999999999997 0.49999999999999994
v 0.625 0.15500000000000003 0.5
v 1.375 0.15500000000000003 0.49999999999999994
v 1.375 0.06187500000000001 0.59375
v 1.375 0.936875 0.59375
v 1.375 0.06187500000000001 0.40624999999999994
v 1.375 0.936875 0.40624999999999994
v 1.46875 -0.0006249999999999867 0.49999999999999994
v 1.46875 0.999375 0.49999999999999994
v 1.28125 -0.0006249999999999867 0.49999999999999994
v 1.28125 0.999375 0.49999999999999994
vt 0.1875 0.8125
vt 0.1875 0
vt 0.375 0
vt 0.375 0.8125
vt 0.1875 0.25
vt 0.1875 1
vt 0 1
vt 0 0.25
vt 0.1875 0.8125
vt 0.1875 0
vt 0.375 0
vt 0.375 0.8125
vt 0.1875 0.25
vt 0.1875 1
vt 0 1
vt 0 0.25
vt 0.375 0.0625
vt 0.375 0.9375
vt 0.1875 0.9375
vt 0.1875 0.0625
vt 0 1
vt 0 0
vt 0.1875 0
vt 0.1875 1
vn 0 1 0
vn 1.2246467991473532e-16 0 1
vn 0 1 0
vn 1.2246467991473532e-16 0 1
vn -1 0 1.2246467991473532e-16
vn 1.2246467991473532e-16 0 1
usemtl m_aa4f5747-7eef-8fe7-321b-aa2937943ceb
f 91/289/77 92/290/77 94/291/77 93/292/77
f 95/293/78 96/294/78 98/295/78 97/296/78
f 99/297/79 100/298/79 102/299/79 101/300/79
f 103/301/80 104/302/80 106/303/80 105/304/80
f 107/305/81 108/306/81 110/307/81 109/308/81
f 111/309/82 112/310/82 114/311/82 113/312/82
o chain_3
v 0.59375 0.938125 0.4375
v 0.5937499999999998 0.938125 -0.375
v 0.40625 0.938125 0.4375
v 0.4062499999999998 0.938125 -0.375
v 0.5 0.844375 0.375
v 0.4999999999999998 0.844375 -0.375
v 0.5 1.0318749999999999 0.375
v 0.4999999999999998 1.0318749999999999 -0.375
v 0.59375 0.06187500000000001 0.4375
v 0.5937499999999998 0.06187500000000001 -0.375
v 0.40625 0.06187500000000001 0.4375
v 0.4062499999999998 0.06187500000000001 -0.375
v 0.5 -0.03187499999999999 0.375
v 0.4999999999999998 -0.03187499999999999 -0.375
v 0.5 0.155625 0.375
v 0.4999999999999998 0.155625 -0.375
v 0.5937499999999998 0.0625 -0.375
v 0.5937499999999998 0.9375 -0.375
v 0.4062499999999998 0.0625 -0.375
v 0.4062499999999998 0.9375 -0.375
v 0.4999999999999998 0 -0.46875
v 0.4999999999999998 1 -0.46875
v 0.49999999999999983 0 -0.28125
v 0.49999999999999983 1 -0.28125
vt 0.1875 0.8125
vt 0.1875 0
vt 0.375 0
vt 0.375 0.8125
vt 0.1875 0.25
vt 0.1875 1
vt 0 1
vt 0 0.25
vt 0.1875 0.8125
vt 0.1875 0
vt 0.375 0
vt 0.375 0.8125
vt 0.1875 0.25
vt 0.1875 1
vt 0 1
vt 0 0.25
vt 0.375 0.0625
vt 0.375 0.9375
vt 0.1875 0.9375
vt 0.1875 0.0625
vt 0 1
vt 0 0
vt 0.1875 0
vt 0.1875 1
vn 0 1 0
vn 1 0 -2.220446049250313e-16
vn 0 1 0
vn 1 0 -2.220446049250313e-16
vn 2.220446049250313e-16 0 1
vn 1 0 -2.220446049250313e-16
usemtl m_aa4f5747-7eef-8fe7-321b-aa2937943ceb
f 115/313/83 116/314/83 118/315/83 117/316/83
f 119/317/84 120/318/84 122/319/84 121/320/84
f 123/321/85 124/322/85 126/323/85 125/324/85
f 127/325/86 128/326/86 130/327/86 129/328/86
f 131/329/87 132/330/87 134/331/87 133/332/87
f 135/333/88 136/334/88 138/335/88 137/336/88
o chain_2
v 0.40625 0.938125 0.5625
v 0.4062499999999998 0.938125 1.375
v 0.59375 0.938125 0.5625
v 0.5937499999999998 0.938125 1.375
v 0.5 0.844375 0.625
v 0.4999999999999998 0.844375 1.375
v 0.5 1.0318749999999999 0.625
v 0.4999999999999998 1.0318749999999999 1.375
v 0.40625 0.06187500000000001 0.5625
v 0.4062499999999998 0.06187500000000001 1.375
v 0.59375 0.06187500000000001 0.5625
v 0.5937499999999998 0.06187500000000001 1.375
v 0.5 -0.03187499999999999 0.625
v 0.4999999999999998 -0.03187499999999999 1.375
v 0.5 0.155625 0.625
v 0.4999999999999998 0.155625 1.375
v 0.4062499999999998 0.0625 1.375
v 0.4062499999999998 0.9375 1.375
v 0.5937499999999998 0.0625 1.375
v 0.5937499999999998 0.9375 1.375
v 0.4999999999999998 0 1.4625
v 0.4999999999999998 1 1.4625
v 0.49999999999999983 0 1.275
v 0.49999999999999983 1 1.275
vt 0.1875 0.8125
vt 0.1875 0
vt 0.375 0
vt 0.375 0.8125
vt 0.1875 0.25
vt 0.1875 1
vt 0 1
vt 0 0.25
vt 0.1875 0.8125
vt 0.1875 0
vt 0.375 0
vt 0.375 0.8125
vt 0.1875 0.25
vt 0.1875 1
vt 0 1
vt 0 0.25
vt 0.375 0.0625
vt 0.375 0.9375
vt 0.1875 0.9375
vt 0.1875 0.0625
vt 0 1
vt 0 0
vt 0.1875 0
vt 0.1875 1
vn 0 1 0
vn -1 0 -2.220446049250313e-16
vn 0 1 0
vn -1 0 -2.220446049250313e-16
vn 2.220446049250313e-16 0 -1
vn -1 0 -2.220446049250313e-16
usemtl m_aa4f5747-7eef-8fe7-321b-aa2937943ceb
f 139/337/89 140/338/89 142/339/89 141/340/89
f 143/341/90 144/342/90 146/343/90 145/344/90
f 147/345/91 148/346/91 150/347/91 149/348/91
f 151/349/92 152/350/92 154/351/92 153/352/92
f 155/353/93 156/354/93 158/355/93 157/356/93
f 159/357/94 160/358/94 162/359/94 161/360/94
o shaft
v 0.375 1 0.375
v 0.625 1 0.375
v 0.625 0 0.375
v 0.375 0 0.375
v 0.375 1 0.625
v 0.375 0 0.625
v 0.625 1 0.625
v 0.625 0 0.625
vt 0.625 1
vt 0.375 1
vt 0.375 0
vt 0.625 0
vt 0.625 1
vt 0.375 1
vt 0.375 0
vt 0.625 0
vt 0.625 1
vt 0.375 1
vt 0.375 0
vt 0.625 0
vt 0.625 1
vt 0.375 1
vt 0.375 0
vt 0.625 0
vt 0.625 0.375
vt 0.625 0.625
vt 0.375 0.625
vt 0.375 0.375
vt 0.625 0.625
vt 0.375 0.625
vt 0.375 0.375
vt 0.625 0.375
vn 0 0 -1
vn -1 0 0
vn 0 0 1
vn 1 0 0
vn 0 -1 0
vn 0 1 0
usemtl m_ed1e2cec-a3df-02b9-a611-e7aff60e8142
f 163/361/95 164/362/95 165/363/95 166/364/95
f 167/365/96 163/366/96 166/367/96 168/368/96
f 169/369/97 167/370/97 168/371/97 170/372/97
f 164/373/98 169/374/98 170/375/98 165/376/98
usemtl m_5d2580b1-9820-46c6-19c1-aad5789ea6b7
f 170/377/99 168/378/99 166/379/99 165/380/99
f 164/381/100 163/382/100 167/383/100 169/384/100
o chain_3
v 0.40625 0.938125 0.5625
v 0.4062499999999998 0.938125 1.375
v 0.59375 0.938125 0.5625
v 0.5937499999999998 0.938125 1.375
v 0.5 0.844375 0.625
v 0.4999999999999998 0.844375 1.375
v 0.5 1.0318749999999999 0.625
v 0.4999999999999998 1.0318749999999999 1.375
v 0.40625 0.06187500000000001 0.5625
v 0.4062499999999998 0.06187500000000001 1.375
v 0.59375 0.06187500000000001 0.5625
v 0.5937499999999998 0.06187500000000001 1.375
v 0.5 -0.03187499999999999 0.625
v 0.4999999999999998 -0.03187499999999999 1.375
v 0.5 0.155625 0.625
v 0.4999999999999998 0.155625 1.375
v 0.4062499999999998 0.0625 1.375
v 0.4062499999999998 0.9375 1.375
v 0.5937499999999998 0.0625 1.375
v 0.5937499999999998 0.9375 1.375
v 0.4999999999999998 0 1.4625
v 0.4999999999999998 1 1.4625
v 0.49999999999999983 0 1.275
v 0.49999999999999983 1 1.275
vt 0.375 0
vt 0.1875 0
vt 0.1875 0.8125
vt 0.375 0.8125
vt 0 1
vt 0.1875 1
vt 0.1875 0.25
vt 0 0.25
vt 0.375 0
vt 0.1875 0
vt 0.1875 0.8125
vt 0.375 0.8125
vt 0 1
vt 0.1875 1
vt 0.1875 0.25
vt 0 0.25
vt 0.1875 0.9375
vt 0.375 0.9375
vt 0.375 0.0625
vt 0.1875 0.0625
vt 0.1875 0
vt 0 0
vt 0 1
vt 0.1875 1
vn 0 -1 0
vn 1 0 2.220446049250313e-16
vn 0 -1 0
vn 1 0 2.220446049250313e-16
vn -2.220446049250313e-16 0 1
vn 1 0 2.220446049250313e-16
usemtl m_aa4f5747-7eef-8fe7-321b-aa2937943ceb
f 174/385/101 172/386/101 171/387/101 173/388/101
f 178/389/102 176/390/102 175/391/102 177/392/102
f 182/393/103 180/394/103 179/395/103 181/396/103
f 186/397/104 184/398/104 183/399/104 185/400/104
f 190/401/105 188/402/105 187/403/105 189/404/105
f 194/405/106 192/406/106 191/407/106 193/408/106
o chain_4
v 0.59375 0.938125 0.4375
v 0.5937499999999998 0.938125 -0.375
v 0.40625 0.938125 0.4375
v 0.4062499999999998 0.938125 -0.375
v 0.5 0.844375 0.375
v 0.4999999999999998 0.844375 -0.375
v 0.5 1.0318749999999999 0.375
v 0.4999999999999998 1.0318749999999999 -0.375
v 0.59375 0.06187500000000001 0.4375
v 0.5937499999999998 0.06187500000000001 -0.375
v 0.40625 0.06187500000000001 0.4375
v 0.4062499999999998 0.06187500000000001 -0.375
v 0.5 -0.03187499999999999 0.375
v 0.4999999999999998 -0.03187499999999999 -0.375
v 0.5 0.155625 0.375
v 0.4999999999999998 0.155625 -0.375
v 0.5937499999999998 0.0625 -0.375
v 0.5937499999999998 0.9375 -0.375
v 0.4062499999999998 0.0625 -0.375
v 0.4062499999999998 0.9375 -0.375
v 0.4999999999999998 0 -0.46875
v 0.4999999999999998 1 -0.46875
v 0.49999999999999983 0 -0.28125
v 0.49999999999999983 1 -0.28125
vt 0.375 0
vt 0.1875 0
vt 0.1875 0.8125
vt 0.375 0.8125
vt 0 1
vt 0.1875 1
vt 0.1875 0.25
vt 0 0.25
vt 0.375 0
vt 0.1875 0
vt 0.1875 0.8125
vt 0.375 0.8125
vt 0 1
vt 0.1875 1
vt 0.1875 0.25
vt 0 0.25
vt 0.1875 0.9375
vt 0.375 0.9375
vt 0.375 0.0625
vt 0.1875 0.0625
vt 0.1875 0
vt 0 0
vt 0 1
vt 0.1875 1
vn 0 -1 0
vn -1 0 2.220446049250313e-16
vn 0 -1 0
vn -1 0 2.220446049250313e-16
vn -2.220446049250313e-16 0 -1
vn -1 0 2.220446049250313e-16
usemtl m_aa4f5747-7eef-8fe7-321b-aa2937943ceb
f 198/409/107 196/410/107 195/411/107 197/412/107
f 202/413/108 200/414/108 199/415/108 201/416/108
f 206/417/109 204/418/109 203/419/109 205/420/109
f 210/421/110 208/422/110 207/423/110 209/424/110
f 214/425/111 212/426/111 211/427/111 213/428/111
f 218/429/112 216/430/112 215/431/112 217/432/112
o chain_3
v 0.5625 0.9375 0.59375
v 1.375 0.9375 0.59375
v 0.5625 0.9375 0.40625000000000006
v 1.375 0.9375 0.40624999999999994
v 0.625 0.84375 0.5
v 1.375 0.84375 0.49999999999999994
v 0.625 1.03125 0.5
v 1.375 1.03125 0.49999999999999994
v 0.5625 0.06125000000000003 0.59375
v 1.375 0.06125000000000003 0.59375
v 0.5625 0.06125000000000003 0.40625000000000006
v 1.375 0.06125000000000003 0.40624999999999994
v 0.625 -0.03249999999999997 0.5
v 1.375 -0.03249999999999997 0.49999999999999994
v 0.625 0.15500000000000003 0.5
v 1.375 0.15500000000000003 0.49999999999999994
v 1.375 0.06187500000000001 0.59375
v 1.375 0.936875 0.59375
v 1.375 0.06187500000000001 0.40624999999999994
v 1.375 0.936875 0.40624999999999994
v 1.46875 -0.0006249999999999867 0.49999999999999994
v 1.46875 0.999375 0.49999999999999994
v 1.28125 -0.0006249999999999867 0.49999999999999994
v 1.28125 0.999375 0.49999999999999994
vt 0.375 0
vt 0.1875 0
vt 0.1875 0.8125
vt 0.375 0.8125
vt 0 1
vt 0.1875 1
vt 0.1875 0.25
vt 0 0.25
vt 0.375 0
vt 0.1875 0
vt 0.1875 0.8125
vt 0.375 0.8125
vt 0 1
vt 0.1875 1
vt 0.1875 0.25
vt 0 0.25
vt 0.1875 0.9375
vt 0.375 0.9375
vt 0.375 0.0625
vt 0.1875 0.0625
vt 0.1875 0
vt 0 0
vt 0 1
vt 0.1875 1
vn 0 -1 0
vn -1.2246467991473532e-16 0 -1
vn 0 -1 0
vn -1.2246467991473532e-16 0 -1
vn 1 0 -1.2246467991473532e-16
vn -1.2246467991473532e-16 0 -1
usemtl m_aa4f5747-7eef-8fe7-321b-aa2937943ceb
f 222/433/113 220/434/113 219/435/113 221/436/113
f 226/437/114 224/438/114 223/439/114 225/440/114
f 230/441/115 228/442/115 227/443/115 229/444/115
f 234/445/116 232/446/116 231/447/116 233/448/116
f 238/449/117 236/450/117 235/451/117 237/452/117
f 242/453/118 240/454/118 239/455/118 241/456/118
o chain_2
v 0.4375 0.9375 0.40625
v -0.375 0.9375 0.40625
v 0.4375 0.9375 0.59375
v -0.375 0.9375 0.59375
v 0.375 0.84375 0.5
v -0.375 0.84375 0.5
v 0.375 1.03125 0.5
v -0.375 1.03125 0.5
v 0.4375 0.06125000000000003 0.40625
v -0.375 0.06125000000000003 0.40625
v 0.4375 0.06125000000000003 0.59375
v -0.375 0.06125000000000003 0.59375
v 0.375 -0.03249999999999997 0.5
v -0.375 -0.03249999999999997 0.5
v 0.375 0.15500000000000003 0.5
v -0.375 0.15500000000000003 0.5
v -0.375 0.06187500000000001 0.40625
v -0.375 0.936875 0.40625
v -0.375 0.06187500000000001 0.59375
v -0.375 0.936875 0.59375
v -0.46875 -0.0006249999999999867 0.5
v -0.46875 0.999375 0.5
v -0.28125 -0.0006249999999999867 0.5
v -0.28125 0.999375 0.5
vt 0.375 0
vt 0.1875 0
vt 0.1875 0.8125
vt 0.375 0.8125
vt 0 1
vt 0.1875 1
vt 0.1875 0.25
vt 0 0.25
vt 0.375 0
vt 0.1875 0
vt 0.1875 0.8125
vt 0.375 0.8125
vt 0 1
vt 0.1875 1
vt 0.1875 0.25
vt 0 0.25
vt 0.1875 0.9375
vt 0.375 0.9375
vt 0.375 0.0625
vt 0.1875 0.0625
vt 0.1875 0
vt 0 0
vt 0 1
vt 0.1875 1
vn 0 -1 0
vn 0 0 1
vn 0 -1 0
vn 0 0 1
vn -1 0 0
vn 0 0 1
usemtl m_aa4f5747-7eef-8fe7-321b-aa2937943ceb
f 246/457/119 244/458/119 243/459/119 245/460/119
f 250/461/120 248/462/120 247/463/120 249/464/120
f 254/465/121 252/466/121 251/467/121 253/468/121
f 258/469/122 256/470/122 255/471/122 257/472/122
f 262/473/123 260/474/123 259/475/123 261/476/123
f 266/477/124 264/478/124 263/479/124 265/480/124