# Made in Blockbench 5.1.4
mtllib item.mtl

o belt_tire
v 1.328426875 0.0625 2.5
v 2.5 0.0625 1.328426875
v 2.5 0.9375 1.328426875
v 1.328426875 0.9375 2.5
v 1.07049 0.9375 1.877284375
v 1.877284375 0.9375 1.07049
v 1.877284375 0.0625 1.07049
v 1.07049 0.0625 1.877284375
v 2.5 0.0625 -0.328426875
v 2.5 0.9375 -0.328426875
v 1.877284375 0.9375 -0.07049
v 1.877284375 0.0625 -0.07049
v 1.328426875 0.0625 -1.5
v 1.328426875 0.9375 -1.5
v 1.07049 0.9375 -0.877284375
v 1.07049 0.0625 -0.877284375
v -0.328426875 0.0625 -1.5
v -0.328426875 0.9375 -1.5
v -0.07049 0.9375 -0.877284375
v -0.07049 0.0625 -0.877284375
v -1.5 0.0625 -0.328426875
v -1.5 0.9375 -0.328426875
v -0.877284375 0.9375 -0.07049
v -0.877284375 0.0625 -0.07049
v -1.5 0.0625 1.328426875
v -1.5 0.9375 1.328426875
v -0.877284375 0.9375 1.07049
v -0.877284375 0.0625 1.07049
v -0.328426875 0.0625 2.5
v -0.328426875 0.9375 2.5
v -0.07049 0.9375 1.877284375
v -0.07049 0.0625 1.877284375
vt 0 0.5625
vt 0.8125 0.5625
vt 0.8125 1
vt 0 1
vt 0.6875 0.34375
vt 0.125 0.34375
vt 0.125 0.3125
vt 0.6875 0.3125
vt 0.1264896875 0.3125
vt 0.6860103125 0.3125
vt 0.8125 0.625
vt 0 0.625
vt 0 0.625
vt 0.8125 0.625
vt 0.6860103125 0.3125
vt 0.1264896875 0.3125
vt 0 0.5625
vt 0.8125 0.5625
vt 0.8125 1
vt 0 1
vt 0.6875 0.34375
vt 0.125 0.34375
vt 0.125 0.3125
vt 0.6875 0.3125
vt 0.1264896875 0.3125
vt 0.6860103125 0.3125
vt 0.8125 0.625
vt 0 0.625
vt 0 0.625
vt 0.8125 0.625
vt 0.6860103125 0.3125
vt 0.1264896875 0.3125
vt 0 0.5625
vt 0.8125 0.5625
vt 0.8125 1
vt 0 1
vt 0.6875 0.34375
vt 0.125 0.34375
vt 0.125 0.3125
vt 0.6875 0.3125
vt 0.1264896875 0.3125
vt 0.6860103125 0.3125
vt 0.8125 0.625
vt 0 0.625
vt 0 0.625
vt 0.8125 0.625
vt 0.6860103125 0.3125
vt 0.1264896875 0.3125
vt 0 0.5625
vt 0.8125 0.5625
vt 0.8125 1
vt 0 1
vt 0.6875 0.34375
vt 0.125 0.34375
vt 0.125 0.3125
vt 0.6875 0.3125
vt 0.1264896875 0.3125
vt 0.6860103125 0.3125
vt 0.8125 0.625
vt 0 0.625
vt 0 0.625
vt 0.8125 0.625
vt 0.6860103125 0.3125
vt 0.1264896875 0.3125
vt 0 0.5625
vt 0.8125 0.5625
vt 0.8125 1
vt 0 1
vt 0.6875 0.34375
vt 0.125 0.34375
vt 0.125 0.3125
vt 0.6875 0.3125
vt 0.1264896875 0.3125
vt 0.6860103125 0.3125
vt 0.8125 0.625
vt 0 0.625
vt 0 0.625
vt 0.8125 0.625
vt 0.6860103125 0.3125
vt 0.1264896875 0.3125
vt 0 0.5625
vt 0.8125 0.5625
vt 0.8125 1
vt 0 1
vt 0.6875 0.34375
vt 0.125 0.34375
vt 0.125 0.3125
vt 0.6875 0.3125
vt 0.1264896875 0.3125
vt 0.6860103125 0.3125
vt 0.8125 0.625
vt 0 0.625
vt 0 0.625
vt 0.8125 0.625
vt 0.6860103125 0.3125
vt 0.1264896875 0.3125
vt 0 0.5625
vt 0.8125 0.5625
vt 0.8125 1
vt 0 1
vt 0.6875 0.34375
vt 0.125 0.34375
vt 0.125 0.3125
vt 0.6875 0.3125
vt 0.1264896875 0.3125
vt 0.6860103125 0.3125
vt 0.8125 0.625
vt 0 0.625
vt 0 0.625
vt 0.8125 0.625
vt 0.6860103125 0.3125
vt 0.1264896875 0.3125
vt 0 0.5625
vt 0.8125 0.5625
vt 0.8125 1
vt 0 1
vt 0.6875 0.34375
vt 0.125 0.34375
vt 0.125 0.3125
vt 0.6875 0.3125
vt 0.1264896875 0.3125
vt 0.6860103125 0.3125
vt 0.8125 0.625
vt 0 0.625
vt 0 0.625
vt 0.8125 0.625
vt 0.6860103125 0.3125
vt 0.1264896875 0.3125
vn 0.7071067811865476 0 0.7071067811865476
vn -0.7071067811865476 0 -0.7071067811865476
vn 0 -1 0
vn 0 1 0
vn 1 0 0
vn -1 0 0
vn 0 -1 0
vn 0 1 0
vn 0.7071067811865476 0 -0.7071067811865476
vn -0.7071067811865476 0 0.7071067811865476
vn 0 -1 0
vn 0 1 0
vn 0 0 -1
vn 0 0 1
vn 0 -1 0
vn 0 1 0
vn -0.7071067811865476 0 -0.7071067811865476
vn 0.7071067811865476 0 0.7071067811865476
vn 0 -1 0
vn 0 1 0
vn -1 0 0
vn 1 0 0
vn 0 -1 0
vn 0 1 0
vn -0.7071067811865476 0 0.7071067811865476
vn 0.7071067811865476 0 -0.7071067811865476
vn 0 -1 0
vn 0 1 0
vn 0 0 1
vn 0 0 -1
vn 0 -1 0
vn 0 1 0
usemtl m_7fa0f03d-4f75-07bf-1816-9b8037473ea1
f 1/1/1 2/2/1 3/3/1 4/4/1
f 5/5/2 6/6/2 7/7/2 8/8/2
f 8/9/3 7/10/3 2/11/3 1/12/3
f 4/13/4 3/14/4 6/15/4 5/16/4
f 2/17/5 9/18/5 10/19/5 3/20/5
f 6/21/6 11/22/6 12/23/6 7/24/6
f 7/25/7 12/26/7 9/27/7 2/28/7
f 3/29/8 10/30/8 11/31/8 6/32/8
f 9/33/9 13/34/9 14/35/9 10/36/9
f 11/37/10 15/38/10 16/39/10 12/40/10
f 12/41/11 16/42/11 13/43/11 9/44/11
f 10/45/12 14/46/12 15/47/12 11/48/12
f 13/49/13 17/50/13 18/51/13 14/52/13
f 15/53/14 19/54/14 20/55/14 16/56/14
f 16/57/15 20/58/15 17/59/15 13/60/15
f 14/61/16 18/62/16 19/63/16 15/64/16
f 17/65/17 21/66/17 22/67/17 18/68/17
f 19/69/18 23/70/18 24/71/18 20/72/18
f 20/73/19 24/74/19 21/75/19 17/76/19
f 18/77/20 22/78/20 23/79/20 19/80/20
f 21/81/21 25/82/21 26/83/21 22/84/21
f 23/85/22 27/86/22 28/87/22 24/88/22
f 24/89/23 28/90/23 25/91/23 21/92/23
f 22/93/24 26/94/24 27/95/24 23/96/24
f 25/97/25 29/98/25 30/99/25 26/100/25
f 27/101/26 31/102/26 32/103/26 28/104/26
f 28/105/27 32/106/27 29/107/27 25/108/27
f 26/109/28 30/110/28 31/111/28 27/112/28
f 29/113/29 1/114/29 4/115/29 30/116/29
f 31/117/30 5/118/30 8/119/30 32/120/30
f 32/121/31 8/122/31 1/123/31 29/124/31
f 30/125/32 4/126/32 5/127/32 31/128/32
o inner_rim
v 0.15625 0.875 1.3124975
v -0.3125 0.875 0.84375
v -0.3125 0.125 0.84375
v 0.15625 0.125 1.3125
v 0.21875 0.125 1.1875
v -0.1875 0.125 0.78125
v -0.1875 0.875 0.78125
v 0.21875 0.875 1.1875
v -0.3125 0.875 0.15625
v -0.3125 0.125 0.15625
v -0.1875 0.125 0.21875
v -0.1875 0.875 0.21875
v 0.15625 0.875 -0.3124975
v 0.15625 0.125 -0.3125
v 0.21875 0.125 -0.1875
v 0.21875 0.875 -0.1875
v 0.84375 0.875 -0.3124975
v 0.84375 0.125 -0.3125
v 0.78125 0.125 -0.1875
v 0.78125 0.875 -0.1875
v 1.3125 0.875 0.15625
v 1.3125 0.125 0.15625
v 1.1875 0.125 0.21875
v 1.1875 0.875 0.21875
v 1.3125 0.875 0.84375
v 1.3125 0.125 0.84375
v 1.1875 0.125 0.78125
v 1.1875 0.875 0.78125
v 0.84375 0.875 1.3124975
v 0.84375 0.125 1.3125
v 0.78125 0.125 1.1875
v 0.78125 0.875 1.1875
vt 0.625 0
vt 0.5625 0
vt 0.5625 0.375
vt 0.625 0.375
vt 0.625 0.375
vt 0.5625 0.375
vt 0.5625 0
vt 0.625 0
vt 0.6661271875 0.9375
vt 0.9588728125 0.9375
vt 0.984375 1
vt 0.640625 1
vt 0.984375 1
vt 0.640625 1
vt 0.6661278125 0.9375
vt 0.9588721875 0.9375
vt 0.625 0
vt 0.5625 0
vt 0.5625 0.375
vt 0.625 0.375
vt 0.625 0.375
vt 0.5625 0.375
vt 0.5625 0
vt 0.625 0
vt 0.6661271875 0.9375
vt 0.9588728125 0.9375
vt 0.984375 1
vt 0.640625 1
vt 0.984375 1
vt 0.640625 1
vt 0.6661278125 0.9375
vt 0.9588721875 0.9375
vt 0.625 0
vt 0.5625 0
vt 0.5625 0.375
vt 0.625 0.375
vt 0.625 0.375
vt 0.5625 0.375
vt 0.5625 0
vt 0.625 0
vt 0.6661271875 0.9375
vt 0.9588728125 0.9375
vt 0.984375 1
vt 0.640625 1
vt 0.984375 1
vt 0.640625 1
vt 0.6661278125 0.9375
vt 0.9588721875 0.9375
vt 0.625 0
vt 0.5625 0
vt 0.5625 0.375
vt 0.625 0.375
vt 0.625 0.375
vt 0.5625 0.375
vt 0.5625 0
vt 0.625 0
vt 0.6661271875 0.9375
vt 0.9588728125 0.9375
vt 0.984375 1
vt 0.640625 1
vt 0.984375 1
vt 0.640625 1
vt 0.6661278125 0.9375
vt 0.9588721875 0.9375
vt 0.625 0
vt 0.5625 0
vt 0.5625 0.375
vt 0.625 0.375
vt 0.625 0.375
vt 0.5625 0.375
vt 0.5625 0
vt 0.625 0
vt 0.6661271875 0.9375
vt 0.9588728125 0.9375
vt 0.984375 1
vt 0.640625 1
vt 0.984375 1
vt 0.640625 1
vt 0.6661278125 0.9375
vt 0.9588721875 0.9375
vt 0.625 0
vt 0.5625 0
vt 0.5625 0.375
vt 0.625 0.375
vt 0.625 0.375
vt 0.5625 0.375
vt 0.5625 0
vt 0.625 0
vt 0.6661271875 0.9375
vt 0.9588728125 0.9375
vt 0.984375 1
vt 0.640625 1
vt 0.984375 1
vt 0.640625 1
vt 0.6661278125 0.9375
vt 0.9588721875 0.9375
vt 0.625 0
vt 0.5625 0
vt 0.5625 0.375
vt 0.625 0.375
vt 0.625 0.375
vt 0.5625 0.375
vt 0.5625 0
vt 0.625 0
vt 0.6661271875 0.9375
vt 0.9588728125 0.9375
vt 0.984375 1
vt 0.640625 1
vt 0.984375 1
vt 0.640625 1
vt 0.6661278125 0.9375
vt 0.9588721875 0.9375
vt 0.625 0
vt 0.5625 0
vt 0.5625 0.375
vt 0.625 0.375
vt 0.625 0.375
vt 0.5625 0.375
vt 0.5625 0
vt 0.625 0
vt 0.6661271875 0.9375
vt 0.9588728125 0.9375
vt 0.984375 1
vt 0.640625 1
vt 0.984375 1
vt 0.640625 1
vt 0.6661278125 0.9375
vt 0.9588721875 0.9375
vn -0.7071048955609219 0 0.7071086668071448
vn 0.7071067811865476 0 -0.7071067811865476
vn 0 1 0
vn 0 -1 0
vn -1 0 0
vn 1 0 0
vn 0 1 0
vn 0 -1 0
vn -0.7071048955589576 0.0000023570288893730216 -0.7071086668051807
vn 0.7071067811865476 0 0.7071067811865476
vn 0 1 0
vn 0 -1 0
vn 0 0.000003333333333336652 -0.9999999999944444
vn 0 0 1
vn 0 1 0
vn 0 -1 0
vn 0.7071048955609219 0 -0.7071086668071449
vn -0.7071067811865476 0 0.7071067811865476
vn 0 1 0
vn 0 -1 0
vn 1 0 0
vn -1 0 0
vn 0 1 0
vn 0 -1 0
vn 0.7071048955589577 0.0000023570288892613704 0.7071086668051806
vn -0.7071067811865476 0 -0.7071067811865476
vn 0 1 0
vn 0 -1 0
vn 0 0.0000033333333331886224 0.9999999999944444
vn 0 0 -1
vn 0 1 0
vn 0 -1 0
usemtl m_26492c4a-f953-6bcb-0fa4-18b875b2f576
f 33/129/33 34/130/33 35/131/33 36/132/33
f 37/133/34 38/134/34 39/135/34 40/136/34
f 40/137/35 39/138/35 34/139/35 33/140/35
f 36/141/36 35/142/36 38/143/36 37/144/36
f 34/145/37 41/146/37 42/147/37 35/148/37
f 38/149/38 43/150/38 44/151/38 39/152/38
f 39/153/39 44/154/39 41/155/39 34/156/39
f 35/157/40 42/158/40 43/159/40 38/160/40
f 41/161/41 45/162/41 46/163/41 42/164/41
f 43/165/42 47/166/42 48/167/42 44/168/42
f 44/169/43 48/170/43 45/171/43 41/172/43
f 42/173/44 46/174/44 47/175/44 43/176/44
f 45/177/45 49/178/45 50/179/45 46/180/45
f 47/181/46 51/182/46 52/183/46 48/184/46
f 48/185/47 52/186/47 49/187/47 45/188/47
f 46/189/48 50/190/48 51/191/48 47/192/48
f 49/193/49 53/194/49 54/195/49 50/196/49
f 51/197/50 55/198/50 56/199/50 52/200/50
f 52/201/51 56/202/51 53/203/51 49/204/51
f 50/205/52 54/206/52 55/207/52 51/208/52
f 53/209/53 57/210/53 58/211/53 54/212/53
f 55/213/54 59/214/54 60/215/54 56/216/54
f 56/217/55 60/218/55 57/219/55 53/220/55
f 54/221/56 58/222/56 59/223/56 55/224/56
f 57/225/57 61/226/57 62/227/57 58/228/57
f 59/229/58 63/230/58 64/231/58 60/232/58
f 60/233/59 64/234/59 61/235/59 57/236/59
f 58/237/60 62/238/60 63/239/60 59/240/60
f 61/241/61 33/242/61 36/243/61 62/244/61
f 63/245/62 37/246/62 40/247/62 64/248/62
f 64/249/63 40/250/63 33/251/63 61/252/63
f 62/253/64 36/254/64 37/255/64 63/256/64
o outer
v -0.06954375 0.875 1.875
v -0.875 0.875 1.06954375
v -0.875 0.125 1.06954375
v -0.06954375 0.125 1.875
v -0.01291625 0.125 1.738289375
v -0.738289375 0.125 1.01291625
v -0.738289375 0.875 1.01291625
v -0.01291625 0.875 1.738289375
v -0.875 0.875 -0.06954375
v -0.875 0.125 -0.06954375
v -0.738289375 0.125 -0.01291625
v -0.738289375 0.875 -0.01291625
v -0.06954375 0.875 -0.875
v -0.06954375 0.125 -0.875
v -0.01291625 0.125 -0.738289375
v -0.01291625 0.875 -0.738289375
v 1.06954375 0.875 -0.875
v 1.06954375 0.125 -0.875
v 1.01291625 0.125 -0.738289375
v 1.01291625 0.875 -0.738289375
v 1.875 0.875 -0.06954375
v 1.875 0.125 -0.06954375
v 1.738289375 0.125 -0.01291625
v 1.738289375 0.875 -0.01291625
v 1.875 0.875 1.06954375
v 1.875 0.125 1.06954375
v 1.738289375 0.125 1.01291625
v 1.738289375 0.875 1.01291625
v 1.06954375 0.875 1.875
v 1.06954375 0.125 1.875
v 1.01291625 0.125 1.738289375
v 1.01291625 0.875 1.738289375
v 1.017766875 0.25 1.75
v 1.75 0.25 1.017766875
v 1.75 0.75 1.017766875
v 1.017766875 0.75 1.75
v 0.8364925 0.75 1.312365
v 1.312365 0.75 0.8364925
v 1.312365 0.25 0.8364925
v 0.8364925 0.25 1.312365
v 1.75 0.25 -0.017766875
v 1.75 0.75 -0.017766875
v 1.312365 0.75 0.1635075
v 1.312365 0.25 0.1635075
v 1.017766875 0.25 -0.75
v 1.017766875 0.75 -0.75
v 0.8364925 0.75 -0.312365
v 0.8364925 0.25 -0.312365
v -0.017766875 0.25 -0.75
v -0.017766875 0.75 -0.75
v 0.1635075 0.75 -0.312365
v 0.1635075 0.25 -0.312365
v -0.75 0.25 -0.017766875
v -0.75 0.75 -0.017766875
v -0.312365 0.75 0.1635075
v -0.312365 0.25 0.1635075
v -0.75 0.25 1.017766875
v -0.75 0.75 1.017766875
v -0.312365 0.75 0.8364925
v -0.312365 0.25 0.8364925
v -0.017766875 0.25 1.75
v -0.017766875 0.75 1.75
v 0.1635075 0.75 1.312365
v 0.1635075 0.25 1.312365
v -0.3125 0.875 0.3125
v -0.75 0.875 0.3125
v -0.75 0.875 0.6875
v -0.3125 0.875 0.6875
v -0.3125 0.125 0.6875
v -0.75 0.125 0.6875
v -0.75 0.125 0.3125
v -0.3125 0.125 0.3125
v -0.207106875 0.875 0.941941875
v -0.51646625 0.875 1.25130125
v -0.25130125 0.875 1.51646625
v 0.058058125 0.875 1.207106875
v 0.058058125 0.125 1.207106875
v -0.25130125 0.125 1.51646625
v -0.51646625 0.125 1.25130125
v -0.207106875 0.125 0.941941875
v 0.3125 0.875 1.3125
v 0.3125 0.875 1.75
v 0.6875 0.875 1.75
v 0.6875 0.875 1.3125
v 0.6875 0.125 1.3125
v 0.6875 0.125 1.75
v 0.3125 0.125 1.75
v 0.3125 0.125 1.3125
v 0.941941875 0.875 1.207106875
v 1.25130125 0.875 1.51646625
v 1.51646625 0.875 1.25130125
v 1.207106875 0.875 0.941941875
v 1.207106875 0.125 0.941941875
v 1.51646625 0.125 1.25130125
v 1.25130125 0.125 1.51646625
v 0.941941875 0.125 1.207106875
v 1.3125 0.875 0.6875
v 1.75 0.875 0.6875
v 1.75 0.875 0.3125
v 1.3125 0.875 0.3125
v 1.3125 0.125 0.3125
v 1.75 0.125 0.3125
v 1.75 0.125 0.6875
v 1.3125 0.125 0.6875
v 1.207106875 0.875 0.058058125
v 1.51646625 0.875 -0.25130125
v 1.25130125 0.875 -0.51646625
v 0.941941875 0.875 -0.207106875
v 0.941941875 0.125 -0.207106875
v 1.25130125 0.125 -0.51646625
v 1.51646625 0.125 -0.25130125
v 1.207106875 0.125 0.058058125
v 0.6875 0.875 -0.3125
v 0.6875 0.875 -0.75
v 0.3125 0.875 -0.75
v 0.3125 0.875 -0.3125
v 0.3125 0.125 -0.3125
v 0.3125 0.125 -0.75
v 0.6875 0.125 -0.75
v 0.6875 0.125 -0.3125
v 0.058058125 0.875 -0.207106875
v -0.25130125 0.875 -0.51646625
v -0.51646625 0.875 -0.25130125
v -0.207106875 0.875 0.058058125
v -0.207106875 0.125 0.058058125
v -0.51646625 0.125 -0.25130125
v -0.25130125 0.125 -0.51646625
v 0.058058125 0.125 -0.207106875
vt 0.625 0.375
vt 0.5625 0.375
vt 0.5625 0
vt 0.625 0
vt 0.625 0.375
vt 0.5625 0.375
vt 0.5625 0
vt 0.625 0
vt 0.1388909375 0.25
vt 0.6736090625 0.25
vt 0.703125 0.3125
vt 0.109375 0.3125
vt 0.703125 0.3125
vt 0.109375 0.3125
vt 0.1388909375 0.25
vt 0.6736090625 0.25
vt 0.625 0.375
vt 0.5625 0.375
vt 0.5625 0
vt 0.625 0
vt 0.625 0.375
vt 0.5625 0.375
vt 0.5625 0
vt 0.625 0
vt 0.1388909375 0.25
vt 0.6736090625 0.25
vt 0.703125 0.3125
vt 0.109375 0.3125
vt 0.703125 0.3125
vt 0.109375 0.3125
vt 0.1388909375 0.25
vt 0.6736090625 0.25
vt 0.625 0.375
vt 0.5625 0.375
vt 0.5625 0
vt 0.625 0
vt 0.625 0.375
vt 0.5625 0.375
vt 0.5625 0
vt 0.625 0
vt 0.1388909375 0.25
vt 0.6736090625 0.25
vt 0.703125 0.3125
vt 0.109375 0.3125
vt 0.703125 0.3125
vt 0.109375 0.3125
vt 0.1388909375 0.25
vt 0.6736090625 0.25
vt 0.625 0.375
vt 0.5625 0.375
vt 0.5625 0
vt 0.625 0
vt 0.625 0.375
vt 0.5625 0.375
vt 0.5625 0
vt 0.625 0
vt 0.1388909375 0.25
vt 0.6736090625 0.25
vt 0.703125 0.3125
vt 0.109375 0.3125
vt 0.703125 0.3125
vt 0.109375 0.3125
vt 0.1388909375 0.25
vt 0.6736090625 0.25
vt 0.625 0.375
vt 0.5625 0.375
vt 0.5625 0
vt 0.625 0
vt 0.625 0.375
vt 0.5625 0.375
vt 0.5625 0
vt 0.625 0
vt 0.1388909375 0.25
vt 0.6736090625 0.25
vt 0.703125 0.3125
vt 0.109375 0.3125
vt 0.703125 0.3125
vt 0.109375 0.3125
vt 0.1388909375 0.25
vt 0.6736090625 0.25
vt 0.625 0.375
vt 0.5625 0.375
vt 0.5625 0
vt 0.625 0
vt 0.625 0.375
vt 0.5625 0.375
vt 0.5625 0
vt 0.625 0
vt 0.1388909375 0.25
vt 0.6736090625 0.25
vt 0.703125 0.3125
vt 0.109375 0.3125
vt 0.703125 0.3125
vt 0.109375 0.3125
vt 0.1388909375 0.25
vt 0.6736090625 0.25
vt 0.625 0.375
vt 0.5625 0.375
vt 0.5625 0
vt 0.625 0
vt 0.625 0.375
vt 0.5625 0.375
vt 0.5625 0
vt 0.625 0
vt 0.1388909375 0.25
vt 0.6736090625 0.25
vt 0.703125 0.3125
vt 0.109375 0.3125
vt 0.703125 0.3125
vt 0.109375 0.3125
vt 0.1388909375 0.25
vt 0.6736090625 0.25
vt 0.625 0.375
vt 0.5625 0.375
vt 0.5625 0
vt 0.625 0
vt 0.625 0.375
vt 0.5625 0.375
vt 0.5625 0
vt 0.625 0
vt 0.1388909375 0.25
vt 0.6736090625 0.25
vt 0.703125 0.3125
vt 0.109375 0.3125
vt 0.703125 0.3125
vt 0.109375 0.3125
vt 0.1388909375 0.25
vt 0.6736090625 0.25
vt 0 0.625
vt 0.53125 0.625
vt 0.53125 1
vt 0 1
vt 0.15625 0.5625
vt 0.125 0.5625
vt 0.125 0.53125
vt 0.15625 0.53125
vt 0.2492475 0.03125
vt 0.5945025 0.03125
vt 0.6875 0.25
vt 0.15625 0.25
vt 0.671875 0.25
vt 0.140625 0.25
vt 0.2336225 0.03125
vt 0.5788775 0.03125
vt 0 0.625
vt 0.53125 0.625
vt 0.53125 1
vt 0 1
vt 0.15625 0.5625
vt 0.125 0.5625
vt 0.125 0.53125
vt 0.15625 0.53125
vt 0.2492475 0.03125
vt 0.5945025 0.03125
vt 0.6875 0.25
vt 0.15625 0.25
vt 0.671875 0.25
vt 0.140625 0.25
vt 0.2336225 0.03125
vt 0.5788775 0.03125
vt 0 0.625
vt 0.53125 0.625
vt 0.53125 1
vt 0 1
vt 0.15625 0.5625
vt 0.125 0.5625
vt 0.125 0.53125
vt 0.15625 0.53125
vt 0.2492475 0.03125
vt 0.5945025 0.03125
vt 0.6875 0.25
vt 0.15625 0.25
vt 0.671875 0.25
vt 0.140625 0.25
vt 0.2336225 0.03125
vt 0.5788775 0.03125
vt 0 0.625
vt 0.53125 0.625
vt 0.53125 1
vt 0 1
vt 0.15625 0.5625
vt 0.125 0.5625
vt 0.125 0.53125
vt 0.15625 0.53125
vt 0.2492475 0.03125
vt 0.5945025 0.03125
vt 0.6875 0.25
vt 0.15625 0.25
vt 0.671875 0.25
vt 0.140625 0.25
vt 0.2336225 0.03125
vt 0.5788775 0.03125
vt 0 0.625
vt 0.53125 0.625
vt 0.53125 1
vt 0 1
vt 0.15625 0.5625
vt 0.125 0.5625
vt 0.125 0.53125
vt 0.15625 0.53125
vt 0.2492475 0.03125
vt 0.5945025 0.03125
vt 0.6875 0.25
vt 0.15625 0.25
vt 0.671875 0.25
vt 0.140625 0.25
vt 0.2336225 0.03125
vt 0.5788775 0.03125
vt 0 0.625
vt 0.53125 0.625
vt 0.53125 1
vt 0 1
vt 0.15625 0.5625
vt 0.125 0.5625
vt 0.125 0.53125
vt 0.15625 0.53125
vt 0.2492475 0.03125
vt 0.5945025 0.03125
vt 0.6875 0.25
vt 0.15625 0.25
vt 0.671875 0.25
vt 0.140625 0.25
vt 0.2336225 0.03125
vt 0.5788775 0.03125
vt 0 0.625
vt 0.53125 0.625
vt 0.53125 1
vt 0 1
vt 0.15625 0.5625
vt 0.125 0.5625
vt 0.125 0.53125
vt 0.15625 0.53125
vt 0.2492475 0.03125
vt 0.5945025 0.03125
vt 0.6875 0.25
vt 0.15625 0.25
vt 0.671875 0.25
vt 0.140625 0.25
vt 0.2336225 0.03125
vt 0.5788775 0.03125
vt 0 0.625
vt 0.53125 0.625
vt 0.53125 1
vt 0 1
vt 0.15625 0.5625
vt 0.125 0.5625
vt 0.125 0.53125
vt 0.15625 0.53125
vt 0.2492475 0.03125
vt 0.5945025 0.03125
vt 0.6875 0.25
vt 0.15625 0.25
vt 0.671875 0.25
vt 0.140625 0.25
vt 0.2336225 0.03125
vt 0.5788775 0.03125
vt 1 0.78125
vt 1 1
vt 0.8125 1
vt 0.8125 0.78125
vt 1 0.78125
vt 1 1
vt 0.8125 1
vt 0.8125 0.78125
vt 1 0.96875
vt 1 1
vt 0.96875 1
vt 0.96875 0.96875
vt 1 0.96875
vt 1 1
vt 0.96875 1
vt 0.96875 0.96875
vt 1 0.78125
vt 1 1
vt 0.96875 1
vt 0.96875 0.78125
vt 1 0.78125
vt 1 1
vt 0.96875 1
vt 0.96875 0.78125
vt 1 0.78125
vt 1 1
vt 0.8125 1
vt 0.8125 0.78125
vt 1 0.78125
vt 1 1
vt 0.8125 1
vt 0.8125 0.78125
vt 1 0.96875
vt 1 1
vt 0.96875 1
vt 0.96875 0.96875
vt 1 0.96875
vt 1 1
vt 0.96875 1
vt 0.96875 0.96875
vt 1 0.78125
vt 1 1
vt 0.96875 1
vt 0.96875 0.78125
vt 1 0.78125
vt 1 1
vt 0.96875 1
vt 0.96875 0.78125
vt 1 0.78125
vt 1 1
vt 0.8125 1
vt 0.8125 0.78125
vt 1 0.78125
vt 1 1
vt 0.8125 1
vt 0.8125 0.78125
vt 1 0.96875
vt 1 1
vt 0.96875 1
vt 0.96875 0.96875
vt 1 0.96875
vt 1 1
vt 0.96875 1
vt 0.96875 0.96875
vt 1 0.78125
vt 1 1
vt 0.96875 1
vt 0.96875 0.78125
vt 1 0.78125
vt 1 1
vt 0.96875 1
vt 0.96875 0.78125
vt 1 0.78125
vt 1 1
vt 0.8125 1
vt 0.8125 0.78125
vt 1 0.78125
vt 1 1
vt 0.8125 1
vt 0.8125 0.78125
vt 1 0.96875
vt 1 1
vt 0.96875 1
vt 0.96875 0.96875
vt 1 0.96875
vt 1 1
vt 0.96875 1
vt 0.96875 0.96875
vt 1 0.78125
vt 1 1
vt 0.96875 1
vt 0.96875 0.78125
vt 1 0.78125
vt 1 1
vt 0.96875 1
vt 0.96875 0.78125
vt 1 0.78125
vt 1 1
vt 0.8125 1
vt 0.8125 0.78125
vt 1 0.78125
vt 1 1
vt 0.8125 1
vt 0.8125 0.78125
vt 1 0.96875
vt 1 1
vt 0.96875 1
vt 0.96875 0.96875
vt 1 0.96875
vt 1 1
vt 0.96875 1
vt 0.96875 0.96875
vt 1 0.78125
vt 1 1
vt 0.96875 1
vt 0.96875 0.78125
vt 1 0.78125
vt 1 1
vt 0.96875 1
vt 0.96875 0.78125
vt 1 0.78125
vt 1 1
vt 0.8125 1
vt 0.8125 0.78125
vt 1 0.78125
vt 1 1
vt 0.8125 1
vt 0.8125 0.78125
vt 1 0.96875
vt 1 1
vt 0.96875 1
vt 0.96875 0.96875
vt 1 0.96875
vt 1 1
vt 0.96875 1
vt 0.96875 0.96875
vt 1 0.78125
vt 1 1
vt 0.96875 1
vt 0.96875 0.78125
vt 1 0.78125
vt 1 1
vt 0.96875 1
vt 0.96875 0.78125
vt 1 0.78125
vt 1 1
vt 0.8125 1
vt 0.8125 0.78125
vt 1 0.78125
vt 1 1
vt 0.8125 1
vt 0.8125 0.78125
vt 1 0.96875
vt 1 1
vt 0.96875 1
vt 0.96875 0.96875
vt 1 0.96875
vt 1 1
vt 0.96875 1
vt 0.96875 0.96875
vt 1 0.78125
vt 1 1
vt 0.96875 1
vt 0.96875 0.78125
vt 1 0.78125
vt 1 1
vt 0.96875 1
vt 0.96875 0.78125
vt 1 0.78125
vt 1 1
vt 0.8125 1
vt 0.8125 0.78125
vt 1 0.78125
vt 1 1
vt 0.8125 1
vt 0.8125 0.78125
vt 1 0.96875
vt 1 1
vt 0.96875 1
vt 0.96875 0.96875
vt 1 0.96875
vt 1 1
vt 0.96875 1
vt 0.96875 0.96875
vt 1 0.78125
vt 1 1
vt 0.96875 1
vt 0.96875 0.78125
vt 1 0.78125
vt 1 1
vt 0.96875 1
vt 0.96875 0.78125
vn -0.7071067811865476 0 0.7071067811865476
vn 0.7071067811865475 0 -0.7071067811865476
vn 0 1 0
vn 0 -1 0
vn -1 0 0
vn 1 0 0
vn 0 1 0
vn 0 -1 0
vn -0.7071067811865476 0 -0.7071067811865476
vn 0.7071067811865476 0 0.7071067811865476
vn 0 1 0
vn 0 -1 0
vn 0 0 -1
vn 0 0 1
vn 0 1 0
vn 0 -1 0
vn 0.7071067811865476 0 -0.7071067811865476
vn -0.7071067811865476 0 0.7071067811865475
vn 0 1 0
vn 0 -1 0
vn 1 0 0
vn -1 0 0
vn 0 1 0
vn 0 -1 0
vn 0.7071067811865476 0 0.7071067811865476
vn -0.7071067811865476 0 -0.7071067811865476
vn 0 1 0
vn 0 -1 0
vn 0 0 1
vn 0 0 -1
vn 0 1 0
vn 0 -1 0
vn 0.7071067811865476 0 0.7071067811865476
vn -0.7071067811865476 0 -0.7071067811865476
vn 0 -1 0
vn 0 1 0
vn 1 0 0
vn -1 0 0
vn 0 -1 0
vn 0 1 0
vn 0.7071067811865476 0 -0.7071067811865476
vn -0.7071067811865476 0 0.7071067811865476
vn 0 -1 0
vn 0 1 0
vn 0 0 -1
vn 0 0 1
vn 0 -1 0
vn 0 1 0
vn -0.7071067811865476 0 -0.7071067811865476
vn 0.7071067811865476 0 0.7071067811865476
vn 0 -1 0
vn 0 1 0
vn -1 0 0
vn 1 0 0
vn 0 -1 0
vn 0 1 0
vn -0.7071067811865476 0 0.7071067811865476
vn 0.7071067811865476 0 -0.7071067811865476
vn 0 -1 0
vn 0 1 0
vn 0 0 1
vn 0 0 -1
vn 0 -1 0
vn 0 1 0
vn 0 1 0
vn 0 -1 0
vn -1 0 0
vn 1 0 0
vn 0 0 1
vn 0 0 -1
vn 0 1 0
vn 0 -1 0
vn -0.7071067811865474 0 0.7071067811865478
vn 0.7071067811865476 0 -0.7071067811865476
vn 0.7071067811865475 0 0.7071067811865477
vn -0.7071067811865476 0 -0.7071067811865476
vn 0 1 0
vn 0 -1 0
vn 0 0 1
vn 0 0 -1
vn 1 0 0
vn -1 0 0
vn 0 1 0
vn 0 -1 0
vn 0.7071067811865476 0 0.7071067811865476
vn -0.7071067811865476 0 -0.7071067811865476
vn 0.7071067811865477 0 -0.7071067811865475
vn -0.7071067811865475 0 0.7071067811865477
vn 0 1 0
vn 0 -1 0
vn 1 0 0
vn -1 0 0
vn 0 0 -1
vn 0 0 1
vn 0 1 0
vn 0 -1 0
vn 0.7071067811865478 0 -0.7071067811865474
vn -0.7071067811865476 0 0.7071067811865476
vn -0.7071067811865476 0 -0.7071067811865476
vn 0.7071067811865477 0 0.7071067811865475
vn 0 1 0
vn 0 -1 0
vn 0 0 -1
vn 0 0 1
vn -1 0 0
vn 1 0 0
vn 0 1 0
vn 0 -1 0
vn -0.7071067811865476 0 -0.7071067811865476
vn 0.7071067811865476 0 0.7071067811865476
vn -0.7071067811865476 0 0.7071067811865476
vn 0.7071067811865476 0 -0.7071067811865476
usemtl m_7fa0f03d-4f75-07bf-1816-9b8037473ea1
f 65/257/65 66/258/65 67/259/65 68/260/65
f 69/261/66 70/262/66 71/263/66 72/264/66
f 72/265/67 71/266/67 66/267/67 65/268/67
f 68/269/68 67/270/68 70/271/68 69/272/68
f 66/273/69 73/274/69 74/275/69 67/276/69
f 70/277/70 75/278/70 76/279/70 71/280/70
f 71/281/71 76/282/71 73/283/71 66/284/71
f 67/285/72 74/286/72 75/287/72 70/288/72
f 73/289/73 77/290/73 78/291/73 74/292/73
f 75/293/74 79/294/74 80/295/74 76/296/74
f 76/297/75 80/298/75 77/299/75 73/300/75
f 74/301/76 78/302/76 79/303/76 75/304/76
f 77/305/77 81/306/77 82/307/77 78/308/77
f 79/309/78 83/310/78 84/311/78 80/312/78
f 80/313/79 84/314/79 81/315/79 77/316/79
f 78/317/80 82/318/80 83/319/80 79/320/80
f 81/321/81 85/322/81 86/323/81 82/324/81
f 83/325/82 87/326/82 88/327/82 84/328/82
f 84/329/83 88/330/83 85/331/83 81/332/83
f 82/333/84 86/334/84 87/335/84 83/336/84
f 85/337/85 89/338/85 90/339/85 86/340/85
f 87/341/86 91/342/86 92/343/86 88/344/86
f 88/345/87 92/346/87 89/347/87 85/348/87
f 86/349/88 90/350/88 91/351/88 87/352/88
f 89/353/89 93/354/89 94/355/89 90/356/89
f 91/357/90 95/358/90 96/359/90 92/360/90
f 92/361/91 96/362/91 93/363/91 89/364/91
f 90/365/92 94/366/92 95/367/92 91/368/92
f 93/369/93 65/370/93 68/371/93 94/372/93
f 95/373/94 69/374/94 72/375/94 96/376/94
f 96/377/95 72/378/95 65/379/95 93/380/95
f 94/381/96 68/382/96 69/383/96 95/384/96
f 97/385/97 98/386/97 99/387/97 100/388/97
f 101/389/98 102/390/98 103/391/98 104/392/98
f 104/393/99 103/394/99 98/395/99 97/396/99
f 100/397/100 99/398/100 102/399/100 101/400/100
f 98/401/101 105/402/101 106/403/101 99/404/101
f 102/405/102 107/406/102 108/407/102 103/408/102
f 103/409/103 108/410/103 105/411/103 98/412/103
f 99/413/104 106/414/104 107/415/104 102/416/104
f 105/417/105 109/418/105 110/419/105 106/420/105
f 107/421/106 111/422/106 112/423/106 108/424/106
f 108/425/107 112/426/107 109/427/107 105/428/107
f 106/429/108 110/430/108 111/431/108 107/432/108
f 109/433/109 113/434/109 114/435/109 110/436/109
f 111/437/110 115/438/110 116/439/110 112/440/110
f 112/441/111 116/442/111 113/443/111 109/444/111
f 110/445/112 114/446/112 115/447/112 111/448/112
f 113/449/113 117/450/113 118/451/113 114/452/113
f 115/453/114 119/454/114 120/455/114 116/456/114
f 116/457/115 120/458/115 117/459/115 113/460/115
f 114/461/116 118/462/116 119/463/116 115/464/116
f 117/465/117 121/466/117 122/467/117 118/468/117
f 119/469/118 123/470/118 124/471/118 120/472/118
f 120/473/119 124/474/119 121/475/119 117/476/119
f 118/477/120 122/478/120 123/479/120 119/480/120
f 121/481/121 125/482/121 126/483/121 122/484/121
f 123/485/122 127/486/122 128/487/122 124/488/122
f 124/489/123 128/490/123 125/491/123 121/492/123
f 122/493/124 126/494/124 127/495/124 123/496/124
f 125/497/125 97/498/125 100/499/125 126/500/125
f 127/501/126 101/502/126 104/503/126 128/504/126
f 128/505/127 104/506/127 97/507/127 125/508/127
f 126/509/128 100/510/128 101/511/128 127/512/128
f 129/513/129 130/514/129 131/515/129 132/516/129
f 133/517/130 134/518/130 135/519/130 136/520/130
f 131/521/131 130/522/131 135/523/131 134/524/131
f 129/525/132 132/526/132 133/527/132 136/528/132
f 132/529/133 131/530/133 134/531/133 133/532/133
f 136/533/134 135/534/134 130/535/134 129/536/134
f 137/537/135 138/538/135 139/539/135 140/540/135
f 141/541/136 142/542/136 143/543/136 144/544/136
f 139/545/137 138/546/137 143/547/137 142/548/137
f 137/549/138 140/550/138 141/551/138 144/552/138
f 140/553/139 139/554/139 142/555/139 141/556/139
f 144/557/140 143/558/140 138/559/140 137/560/140
f 145/561/141 146/562/141 147/563/141 148/564/141
f 149/565/142 150/566/142 151/567/142 152/568/142
f 147/569/143 146/570/143 151/571/143 150/572/143
f 145/573/144 148/574/144 149/575/144 152/576/144
f 148/577/145 147/578/145 150/579/145 149/580/145
f 152/581/146 151/582/146 146/583/146 145/584/146
f 153/585/147 154/586/147 155/587/147 156/588/147
f 157/589/148 158/590/148 159/591/148 160/592/148
f 155/593/149 154/594/149 159/595/149 158/596/149
f 153/597/150 156/598/150 157/599/150 160/600/150
f 156/601/151 155/602/151 158/603/151 157/604/151
f 160/605/152 159/606/152 154/607/152 153/608/152
f 161/609/153 162/610/153 163/611/153 164/612/153
f 165/613/154 166/614/154 167/615/154 168/616/154
f 163/617/155 162/618/155 167/619/155 166/620/155
f 161/621/156 164/622/156 165/623/156 168/624/156
f 164/625/157 163/626/157 166/627/157 165/628/157
f 168/629/158 167/630/158 162/631/158 161/632/158
f 169/633/159 170/634/159 171/635/159 172/636/159
f 173/637/160 174/638/160 175/639/160 176/640/160
f 171/641/161 170/642/161 175/643/161 174/644/161
f 169/645/162 172/646/162 173/647/162 176/648/162
f 172/649/163 171/650/163 174/651/163 173/652/163
f 176/653/164 175/654/164 170/655/164 169/656/164
f 177/657/165 178/658/165 179/659/165 180/660/165
f 181/661/166 182/662/166 183/663/166 184/664/166
f 179/665/167 178/666/167 183/667/167 182/668/167
f 177/669/168 180/670/168 181/671/168 184/672/168
f 180/673/169 179/674/169 182/675/169 181/676/169
f 184/677/170 183/678/170 178/679/170 177/680/170
f 185/681/171 186/682/171 187/683/171 188/684/171
f 189/685/172 190/686/172 191/687/172 192/688/172
f 187/689/173 186/690/173 191/691/173 190/692/173
f 185/693/174 188/694/174 189/695/174 192/696/174
f 188/697/175 187/698/175 190/699/175 189/700/175
f 192/701/176 191/702/176 186/703/176 185/704/176
o spokes
v -0.1875 0.75 0.784771875
v 0.215228125 0.75 1.1875
v 0.5 0.75 0.5
v -0.1875 0.25 0.784771875
v 0.215228125 0.25 1.1875
v 0.5 0.25 0.5
v -0.1875 0.75 0.215228125
v -0.1875 0.25 0.215228125
v 0.215228125 0.75 -0.1875
v 0.215228125 0.25 -0.1875
v 0.784771875 0.75 -0.1875
v 0.784771875 0.25 -0.1875
v 1.1875 0.75 0.215228125
v 1.1875 0.25 0.215228125
v 1.1875 0.75 0.784771875
v 1.1875 0.25 0.784771875
v 0.784771875 0.75 1.1875
v 0.784771875 0.25 1.1875
vt 0.953125 0.9375
vt 0.671875 0.9375
vt 0.8125 0.59375
vt 0.671875 0.90625
vt 0.953125 0.90625
vt 0.953125 0.9375
vt 0.671875 0.9375
vt 0.953125 0.9375
vt 0.671875 0.9375
vt 0.8125 0.59375
vt 0.953125 0.9375
vt 0.671875 0.9375
vt 0.8125 0.59375
vt 0.671875 0.90625
vt 0.953125 0.90625
vt 0.953125 0.9375
vt 0.671875 0.9375
vt 0.953125 0.9375
vt 0.671875 0.9375
vt 0.8125 0.59375
vt 0.953125 0.9375
vt 0.671875 0.9375
vt 0.8125 0.59375
vt 0.671875 0.90625
vt 0.953125 0.90625
vt 0.953125 0.9375
vt 0.671875 0.9375
vt 0.953125 0.9375
vt 0.671875 0.9375
vt 0.8125 0.59375
vt 0.953125 0.9375
vt 0.671875 0.9375
vt 0.8125 0.59375
vt 0.671875 0.90625
vt 0.953125 0.90625
vt 0.953125 0.9375
vt 0.671875 0.9375
vt 0.953125 0.9375
vt 0.671875 0.9375
vt 0.8125 0.59375
vt 0.953125 0.9375
vt 0.671875 0.9375
vt 0.8125 0.59375
vt 0.671875 0.90625
vt 0.953125 0.90625
vt 0.953125 0.9375
vt 0.671875 0.9375
vt 0.953125 0.9375
vt 0.671875 0.9375
vt 0.8125 0.59375
vt 0.953125 0.9375
vt 0.671875 0.9375
vt 0.8125 0.59375
vt 0.671875 0.90625
vt 0.953125 0.90625
vt 0.953125 0.9375
vt 0.671875 0.9375
vt 0.953125 0.9375
vt 0.671875 0.9375
vt 0.8125 0.59375
vt 0.953125 0.9375
vt 0.671875 0.9375
vt 0.8125 0.59375
vt 0.671875 0.90625
vt 0.953125 0.90625
vt 0.953125 0.9375
vt 0.671875 0.9375
vt 0.953125 0.9375
vt 0.671875 0.9375
vt 0.8125 0.59375
vt 0.953125 0.9375
vt 0.671875 0.9375
vt 0.8125 0.59375
vt 0.671875 0.90625
vt 0.953125 0.90625
vt 0.953125 0.9375
vt 0.671875 0.9375
vt 0.953125 0.9375
vt 0.671875 0.9375
vt 0.8125 0.59375
vn 0 1 0
vn -0.7071067811865476 0 0.7071067811865476
vn 0 -1 0
vn 0 1 0
vn -1 0 0
vn 0 -1 0
vn 0 1 0
vn -0.7071067811865476 0 -0.7071067811865476
vn 0 -1 0
vn 0 1 0
vn 0 0 -1
vn 0 -1 0
vn 0 1 0
vn 0.7071067811865476 0 -0.7071067811865476
vn 0 -1 0
vn 0 1 0
vn 1 0 0
vn 0 -1 0
vn 0 1 0
vn 0.7071067811865476 0 0.7071067811865476
vn 0 -1 0
vn 0 1 0
vn 0 0 1
vn 0 -1 0
usemtl m_26492c4a-f953-6bcb-0fa4-18b875b2f576
f 193/705/177 194/706/177 195/707/177
f 194/708/178 193/709/178 196/710/178 197/711/178
f 197/712/179 196/713/179 198/714/179
f 199/715/180 193/716/180 195/717/180
f 193/718/181 199/719/181 200/720/181 196/721/181
f 196/722/182 200/723/182 198/724/182
f 201/725/183 199/726/183 195/727/183
f 199/728/184 201/729/184 202/730/184 200/731/184
f 200/732/185 202/733/185 198/734/185
f 203/735/186 201/736/186 195/737/186
f 201/738/187 203/739/187 204/740/187 202/741/187
f 202/742/188 204/743/188 198/744/188
f 205/745/189 203/746/189 195/747/189
f 203/748/190 205/749/190 206/750/190 204/751/190
f 204/752/191 206/753/191 198/754/191
f 207/755/192 205/756/192 195/757/192
f 205/758/193 207/759/193 208/760/193 206/761/193
f 206/762/194 208/763/194 198/764/194
f 209/765/195 207/766/195 195/767/195
f 207/768/196 209/769/196 210/770/196 208/771/196
f 208/772/197 210/773/197 198/774/197
f 194/775/198 209/776/198 195/777/198
f 209/778/199 194/779/199 197/780/199 210/781/199
f 210/782/200 197/783/200 198/784/200
o core
v 0.1875 0.9375 0.4375
v 0.0625 0.9375 0.4375
v 0.0625 0.9375 0.5625
v 0.1875 0.9375 0.5625
v 0.1875 0.0625 0.5625
v 0.0625 0.0625 0.5625
v 0.0625 0.0625 0.4375
v 0.1875 0.0625 0.4375
v -0.0625 0.875 0.6875
v 0.0625 0.875 0.6875
v 0.0625 0.875 0.3125
v -0.0625 0.875 0.3125
v -0.0625 0.125 0.3125
v 0.0625 0.125 0.3125
v 0.0625 0.125 0.6875
v -0.0625 0.125 0.6875
v 0.0625 0.875 0.6875
v 0.0625 0.875 0.3125
v 0.0625 0.125 0.3125
v 0.0625 0.125 0.6875
v 0.3125 0.875 0.0625
v 0.3125 0.125 0.0625
v 0.135416875 0.125 0.651015625
v 0.135416875 0.125 0.348985
v 0.6875 0.875 0.0625
v 0.6875 0.125 0.0625
v 0.348985 0.125 0.135416875
v 0.9375 0.875 0.3125
v 0.9375 0.125 0.3125
v 0.651015625 0.125 0.135416875
v 0.9375 0.875 0.6875
v 0.9375 0.125 0.6875
v 0.864583125 0.125 0.348985
v 0.6875 0.875 0.9375
v 0.6875 0.125 0.9375
v 0.864583125 0.125 0.651015625
v 0.3125 0.875 0.9375
v 0.3125 0.125 0.9375
v 0.651015 0.125 0.864583125
v 0.348984375 0.125 0.864583125
v 0.5 0.125 0.5
v 0.5 0.875 0.5
v 0.135416875 0.875 0.348984375
v 0.135416875 0.875 0.651015
v 0.348985 0.875 0.864583125
v 0.651015625 0.875 0.864583125
v 0.864583125 0.875 0.651015
v 0.864583125 0.875 0.348984375
v 0.651015625 0.875 0.135416875
v 0.348985 0.875 0.135416875
v 0.3125 0.875 -0.0625
v 0.3125 0.875 0.0625
v 0.6875 0.875 0.0625
v 0.6875 0.875 -0.0625
v 0.6875 0.125 -0.0625
v 0.6875 0.125 0.0625
v 0.3125 0.125 0.0625
v 0.3125 0.125 -0.0625
v 0.5625 0.9375 0.0625
v 0.4375 0.9375 0.0625
v 0.4375 0.9375 0.1875
v 0.5625 0.9375 0.1875
v 0.5625 0.0625 0.1875
v 0.4375 0.0625 0.1875
v 0.4375 0.0625 0.0625
v 0.5625 0.0625 0.0625
v 0.75 0.9375 0.25
v 0.25 0.9375 0.25
v 0.25 0.9375 0.75
v 0.75 0.9375 0.75
v 0.75 0.0625 0.75
v 0.25 0.0625 0.75
v 0.25 0.0625 0.25
v 0.75 0.0625 0.25
v 0.9375 0.9375 0.4375
v 0.8125 0.9375 0.4375
v 0.8125 0.9375 0.5625
v 0.9375 0.9375 0.5625
v 0.9375 0.0625 0.5625
v 0.8125 0.0625 0.5625
v 0.8125 0.0625 0.4375
v 0.9375 0.0625 0.4375
v 1.0625 0.875 0.3125
v 0.9375 0.875 0.3125
v 0.9375 0.875 0.6875
v 1.0625 0.875 0.6875
v 1.0625 0.125 0.6875
v 0.9375 0.125 0.6875
v 0.9375 0.125 0.3125
v 1.0625 0.125 0.3125
v 0.5625 0.9375 0.8125
v 0.4375 0.9375 0.8125
v 0.4375 0.9375 0.9375
v 0.5625 0.9375 0.9375
v 0.5625 0.0625 0.9375
v 0.4375 0.0625 0.9375
v 0.4375 0.0625 0.8125
v 0.5625 0.0625 0.8125
v 0.6875 0.875 1.0625
v 0.6875 0.875 0.9375
v 0.3125 0.875 0.9375
v 0.3125 0.875 1.0625
v 0.3125 0.125 1.0625
v 0.3125 0.125 0.9375
v 0.6875 0.125 0.9375
v 0.6875 0.125 1.0625
vt 0.8125 0.375
vt 0.8125 0.4375
vt 0.75 0.4375
vt 0.75 0.375
vt 0.75 0.375
vt 0.75 0.4375
vt 0.8125 0.4375
vt 0.8125 0.375
vt 0.8125 0.4375
vt 0.8125 0.375
vt 0.75 0.375
vt 0.75 0.4375
vt 0.8125 0.375
vt 0.8125 0.4375
vt 0.75 0.4375
vt 0.75 0.375
vt 0.8125 0.375
vt 0.8125 0.4375
vt 0.75 0.4375
vt 0.75 0.375
vt 0.8125 0.375
vt 0.8125 0.4375
vt 0.75 0.4375
vt 0.75 0.375
vt 0.8125 0.46875
vt 0.8125 0.40625
vt 1 0.40625
vt 1 0.46875
vt 0.8125 0.46875
vt 0.8125 0.40625
vt 1 0.40625
vt 1 0.46875
vt 0.5625 0
vt 0.625 0
vt 0.625 0.375
vt 0.5625 0.375
vt 0.5625 0
vt 0.625 0
vt 0.625 0.375
vt 0.5625 0.375
vt 0.5625 0
vt 0.625 0
vt 0.625 0.375
vt 0.5625 0.375
vt 0.5625 0
vt 0.625 0
vt 0.625 0.375
vt 0.5625 0.375
vt 0.5625 0
vt 0.625 0
vt 0.625 0.375
vt 0.5625 0.375
vt 0.5625 0
vt 0.625 0
vt 0.625 0.375
vt 0.5625 0.375
vt 0.981759375 0.375
vt 1 0.40625
vt 0.8125 0.40625
vt 0.83074375 0.375
vt 0.5625 0
vt 0.625 0
vt 0.625 0.375
vt 0.5625 0.375
vt 0.981759375 0.4375
vt 1 0.46875
vt 0.8125 0.46875
vt 0.83074375 0.4375
vt 0.5625 0
vt 0.625 0
vt 0.625 0.375
vt 0.5625 0.375
vt 0.981759375 0.375
vt 1 0.40625
vt 0.8125 0.40625
vt 0.83074375 0.375
vt 0.5625 0
vt 0.625 0
vt 0.625 0.375
vt 0.5625 0.375
vt 0.981759375 0.4375
vt 1 0.46875
vt 0.8125 0.46875
vt 0.83074375 0.4375
vt 0.5625 0
vt 0.625 0
vt 0.625 0.375
vt 0.5625 0.375
vt 0.981759375 0.375
vt 1 0.40625
vt 0.8125 0.40625
vt 0.83074375 0.375
vt 0.5625 0
vt 0.625 0
vt 0.625 0.375
vt 0.5625 0.375
vt 0.981759375 0.4375
vt 1 0.46875
vt 0.8125 0.46875
vt 0.83074375 0.4375
vt 0.5625 0
vt 0.625 0
vt 0.625 0.375
vt 0.5625 0.375
vt 0.981759375 0.375
vt 1 0.40625
vt 0.8125 0.40625
vt 0.83074375 0.375
vt 0.981759375 0.4375
vt 1 0.46875
vt 0.8125 0.46875
vt 0.83074375 0.4375
vt 0.8125 0.1875
vt 1 0.26249999999999996
vt 0.8875 0.375
vt 0.8125 0.1875
vt 1 0.11250000000000004
vt 1 0.26249999999999996
vt 0.8125 0.1875
vt 0.8875 0
vt 1 0.11250000000000004
vt 0.8125 0.1875
vt 0.7375 0
vt 0.8875 0
vt 0.8125 0.1875
vt 0.8875 0.375
vt 0.7375 0.375
vt 0.8125 0.1875
vt 0.7375 0.375
vt 0.625 0.26249999999999996
vt 0.8125 0.1875
vt 0.625 0.26249999999999996
vt 0.625 0.11250000000000004
vt 0.8125 0.1875
vt 0.625 0.11250000000000004
vt 0.7375 0
vt 0.8125 0.1875
vt 0.7375 0
vt 0.8875 0
vt 0.8125 0.1875
vt 0.625 0.11250000000000004
vt 0.7375 0
vt 0.8125 0.1875
vt 0.8875 0
vt 1 0.11250000000000004
vt 0.8125 0.1875
vt 1 0.11250000000000004
vt 1 0.26249999999999996
vt 0.8125 0.1875
vt 0.625 0.26249999999999996
vt 0.625 0.11250000000000004
vt 0.981759375 0.4375
vt 1 0.46875
vt 0.8125 0.46875
vt 0.83074375 0.4375
vt 0.8125 0.1875
vt 1 0.26249999999999996
vt 0.8875 0.375
vt 0.981759375 0.375
vt 1 0.40625
vt 0.8125 0.40625
vt 0.83074375 0.375
vt 0.981759375 0.4375
vt 1 0.46875
vt 0.8125 0.46875
vt 0.83074375 0.4375
vt 0.8125 0.1875
vt 0.7375 0.375
vt 0.625 0.26249999999999996
vt 0.981759375 0.4375
vt 1 0.46875
vt 0.8125 0.46875
vt 0.83074375 0.4375
vt 0.981759375 0.375
vt 1 0.40625
vt 0.8125 0.40625
vt 0.83074375 0.375
vt 0.981759375 0.375
vt 1 0.40625
vt 0.8125 0.40625
vt 0.83074375 0.375
vt 0.981759375 0.4375
vt 1 0.46875
vt 0.8125 0.46875
vt 0.83074375 0.4375
vt 0.8125 0.1875
vt 0.8875 0.375
vt 0.7375 0.375
vt 0.981759375 0.375
vt 1 0.40625
vt 0.8125 0.40625
vt 0.83074375 0.375
vt 0.8125 0.46875
vt 0.8125 0.40625
vt 1 0.40625
vt 1 0.46875
vt 0.8125 0.46875
vt 0.8125 0.40625
vt 1 0.40625
vt 1 0.46875
vt 0.5625 0
vt 0.625 0
vt 0.625 0.375
vt 0.5625 0.375
vt 0.5625 0
vt 0.625 0
vt 0.625 0.375
vt 0.5625 0.375
vt 0.5625 0
vt 0.625 0
vt 0.625 0.375
vt 0.5625 0.375
vt 0.5625 0
vt 0.625 0
vt 0.625 0.375
vt 0.5625 0.375
vt 0.8125 0.375
vt 0.8125 0.4375
vt 0.75 0.4375
vt 0.75 0.375
vt 0.75 0.375
vt 0.75 0.4375
vt 0.8125 0.4375
vt 0.8125 0.375
vt 0.8125 0.4375
vt 0.8125 0.375
vt 0.75 0.375
vt 0.75 0.4375
vt 0.8125 0.375
vt 0.8125 0.4375
vt 0.75 0.4375
vt 0.75 0.375
vt 0.8125 0.375
vt 0.8125 0.4375
vt 0.75 0.4375
vt 0.75 0.375
vt 0.8125 0.375
vt 0.8125 0.4375
vt 0.75 0.4375
vt 0.75 0.375
vt 0.9375 0.0625
vt 0.9375 0.3125
vt 0.6875 0.3125
vt 0.6875 0.0625
vt 0.9375 0.0625
vt 0.9375 0.3125
vt 0.6875 0.3125
vt 0.6875 0.0625
vt 0.5625 0.34375
vt 0.625 0.34375
vt 0.625 0.375
vt 0.5625 0.375
vt 0.5625 0.34375
vt 0.625 0.34375
vt 0.625 0.375
vt 0.5625 0.375
vt 0.5625 0.34375
vt 0.625 0.34375
vt 0.625 0.375
vt 0.5625 0.375
vt 0.5625 0.34375
vt 0.625 0.34375
vt 0.625 0.375
vt 0.5625 0.375
vt 0.8125 0.375
vt 0.8125 0.4375
vt 0.75 0.4375
vt 0.75 0.375
vt 0.75 0.375
vt 0.75 0.4375
vt 0.8125 0.4375
vt 0.8125 0.375
vt 0.8125 0.4375
vt 0.8125 0.375
vt 0.75 0.375
vt 0.75 0.4375
vt 0.8125 0.375
vt 0.8125 0.4375
vt 0.75 0.4375
vt 0.75 0.375
vt 0.8125 0.375
vt 0.8125 0.4375
vt 0.75 0.4375
vt 0.75 0.375
vt 0.8125 0.375
vt 0.8125 0.4375
vt 0.75 0.4375
vt 0.75 0.375
vt 0.8125 0.46875
vt 0.8125 0.40625
vt 1 0.40625
vt 1 0.46875
vt 0.8125 0.46875
vt 0.8125 0.40625
vt 1 0.40625
vt 1 0.46875
vt 0.5625 0
vt 0.625 0
vt 0.625 0.375
vt 0.5625 0.375
vt 0.5625 0
vt 0.625 0
vt 0.625 0.375
vt 0.5625 0.375
vt 0.5625 0
vt 0.625 0
vt 0.625 0.375
vt 0.5625 0.375
vt 0.5625 0
vt 0.625 0
vt 0.625 0.375
vt 0.5625 0.375
vt 0.8125 0.375
vt 0.8125 0.4375
vt 0.75 0.4375
vt 0.75 0.375
vt 0.75 0.375
vt 0.75 0.4375
vt 0.8125 0.4375
vt 0.8125 0.375
vt 0.8125 0.4375
vt 0.8125 0.375
vt 0.75 0.375
vt 0.75 0.4375
vt 0.8125 0.375
vt 0.8125 0.4375
vt 0.75 0.4375
vt 0.75 0.375
vt 0.8125 0.375
vt 0.8125 0.4375
vt 0.75 0.4375
vt 0.75 0.375
vt 0.8125 0.375
vt 0.8125 0.4375
vt 0.75 0.4375
vt 0.75 0.375
vt 0.8125 0.46875
vt 0.8125 0.40625
vt 1 0.40625
vt 1 0.46875
vt 0.8125 0.46875
vt 0.8125 0.40625
vt 1 0.40625
vt 1 0.46875
vt 0.5625 0
vt 0.625 0
vt 0.625 0.375
vt 0.5625 0.375
vt 0.5625 0
vt 0.625 0
vt 0.625 0.375
vt 0.5625 0.375
vt 0.5625 0
vt 0.625 0
vt 0.625 0.375
vt 0.5625 0.375
vt 0.5625 0
vt 0.625 0
vt 0.625 0.375
vt 0.5625 0.375
vn 0 1 0
vn 0 -1 0
vn -1 0 0
vn 1 0 0
vn 0 0 1
vn 0 0 -1
vn 0 1 0
vn 0 -1 0
vn 1 0 0
vn -1 0 0
vn 0 0 -1
vn 0 0 1
vn -1 0 0
vn -0.7071067811865476 0 -0.7071067811865476
vn 0 -1 0
vn 0 0 -1
vn 0 -1 0
vn 0.7071067811865476 0 -0.7071067811865476
vn 0 -1 0
vn 1 0 0
vn 0 -1 0
vn 0.7071067811865476 0 0.7071067811865476
vn 0 -1 0
vn 0 0 1
vn 0 -1 0
vn -0.7071067811865476 0 0.7071067811865476
vn 0 -1 0
vn 0 -1 0
vn 0 -1 0
vn 0 -1 0
vn 0 -1 0
vn 0 -1 0
vn 0 1 0
vn 0 1 0
vn 0 1 0
vn 0 -1 0
vn 0 1 0
vn 0 1 0
vn 0 1 0
vn 0 1 0
vn 0 -1 0
vn 0 1 0
vn 0 1 0
vn 0 1 0
vn 0 1 0
vn 0 -1 0
vn 0 1 0
vn 0 1 0
vn 0 1 0
vn 0 1 0
vn 0 -1 0
vn 0 1 0
vn 0 1 0
vn 0 -1 0
vn 0 0 1
vn 0 0 -1
vn 1 0 0
vn -1 0 0
vn 0 1 0
vn 0 -1 0
vn -1 0 0
vn 1 0 0
vn 0 0 1
vn 0 0 -1
vn 0 1 0
vn 0 -1 0
vn -1 0 0
vn 1 0 0
vn 0 0 1
vn 0 0 -1
vn 0 1 0
vn 0 -1 0
vn -1 0 0
vn 1 0 0
vn 0 0 1
vn 0 0 -1
vn 0 1 0
vn 0 -1 0
vn -1 0 0
vn 1 0 0
vn 0 0 1
vn 0 0 -1
vn 0 1 0
vn 0 -1 0
vn -1 0 0
vn 1 0 0
vn 0 0 1
vn 0 0 -1
vn 0 1 0
vn 0 -1 0
vn 0 0 -1
vn 0 0 1
vn -1 0 0
vn 1 0 0
usemtl m_26492c4a-f953-6bcb-0fa4-18b875b2f576
f 211/785/201 212/786/201 213/787/201 214/788/201
f 215/789/202 216/790/202 217/791/202 218/792/202
f 213/793/203 212/794/203 217/795/203 216/796/203
f 211/797/204 214/798/204 215/799/204 218/800/204
f 214/801/205 213/802/205 216/803/205 215/804/205
f 218/805/206 217/806/206 212/807/206 211/808/206
f 219/809/207 220/810/207 221/811/207 222/812/207
f 223/813/208 224/814/208 225/815/208 226/816/208
f 221/817/209 220/818/209 225/819/209 224/820/209
f 219/821/210 222/822/210 223/823/210 226/824/210
f 222/825/211 221/826/211 224/827/211 223/828/211
f 226/829/212 225/830/212 220/831/212 219/832/212
f 227/833/213 228/834/213 229/835/213 230/836/213
f 228/837/214 231/838/214 232/839/214 229/840/214
f 233/841/215 230/842/215 229/843/215 234/844/215
f 231/845/216 235/846/216 236/847/216 232/848/216
f 234/849/217 229/850/217 232/851/217 237/852/217
f 235/853/218 238/854/218 239/855/218 236/856/218
f 237/857/219 232/858/219 236/859/219 240/860/219
f 238/861/220 241/862/220 242/863/220 239/864/220
f 240/865/221 236/866/221 239/867/221 243/868/221
f 241/869/222 244/870/222 245/871/222 242/872/222
f 243/873/223 239/874/223 242/875/223 246/876/223
f 244/877/224 247/878/224 248/879/224 245/880/224
f 246/881/225 242/882/225 245/883/225 249/884/225
f 247/885/226 227/886/226 230/887/226 248/888/226
f 249/889/227 245/890/227 248/891/227 250/892/227
f 250/893/228 248/894/228 230/895/228 233/896/228
f 251/897/229 250/898/229 233/899/229
f 251/900/230 249/901/230 250/902/230
f 251/903/231 246/904/231 249/905/231
f 251/906/232 243/907/232 246/908/232
f 252/909/233 253/910/233 254/911/233
f 252/912/234 254/913/234 255/914/234
f 252/915/235 255/916/235 256/917/235
f 251/918/236 240/919/236 243/920/236
f 252/921/237 257/922/237 258/923/237
f 252/924/238 256/925/238 257/926/238
f 252/927/239 258/928/239 259/929/239
f 252/930/240 259/931/240 260/932/240
f 251/933/241 237/934/241 240/935/241
f 260/936/242 231/937/242 228/938/242 253/939/242
f 252/940/243 260/941/243 253/942/243
f 259/943/244 235/944/244 231/945/244 260/946/244
f 258/947/245 238/948/245 235/949/245 259/950/245
f 251/951/246 234/952/246 237/953/246
f 256/954/247 244/955/247 241/956/247 257/957/247
f 257/958/248 241/959/248 238/960/248 258/961/248
f 255/962/249 247/963/249 244/964/249 256/965/249
f 254/966/250 227/967/250 247/968/250 255/969/250
f 251/970/251 233/971/251 234/972/251
f 253/973/252 228/974/252 227/975/252 254/976/252
f 261/977/253 262/978/253 263/979/253 264/980/253
f 265/981/254 266/982/254 267/983/254 268/984/254
f 263/985/255 262/986/255 267/987/255 266/988/255
f 261/989/256 264/990/256 265/991/256 268/992/256
f 264/993/257 263/994/257 266/995/257 265/996/257
f 268/997/258 267/998/258 262/999/258 261/1000/258
f 269/1001/259 270/1002/259 271/1003/259 272/1004/259
f 273/1005/260 274/1006/260 275/1007/260 276/1008/260
f 271/1009/261 270/1010/261 275/1011/261 274/1012/261
f 269/1013/262 272/1014/262 273/1015/262 276/1016/262
f 272/1017/263 271/1018/263 274/1019/263 273/1020/263
f 276/1021/264 275/1022/264 270/1023/264 269/1024/264
f 277/1025/265 278/1026/265 279/1027/265 280/1028/265
f 281/1029/266 282/1030/266 283/1031/266 284/1032/266
f 279/1033/267 278/1034/267 283/1035/267 282/1036/267
f 277/1037/268 280/1038/268 281/1039/268 284/1040/268
f 280/1041/269 279/1042/269 282/1043/269 281/1044/269
f 284/1045/270 283/1046/270 278/1047/270 277/1048/270
f 285/1049/271 286/1050/271 287/1051/271 288/1052/271
f 289/1053/272 290/1054/272 291/1055/272 292/1056/272
f 287/1057/273 286/1058/273 291/1059/273 290/1060/273
f 285/1061/274 288/1062/274 289/1063/274 292/1064/274
f 288/1065/275 287/1066/275 290/1067/275 289/1068/275
f 292/1069/276 291/1070/276 286/1071/276 285/1072/276
f 293/1073/277 294/1074/277 295/1075/277 296/1076/277
f 297/1077/278 298/1078/278 299/1079/278 300/1080/278
f 295/1081/279 294/1082/279 299/1083/279 298/1084/279
f 293/1085/280 296/1086/280 297/1087/280 300/1088/280
f 296/1089/281 295/1090/281 298/1091/281 297/1092/281
f 300/1093/282 299/1094/282 294/1095/282 293/1096/282
f 301/1097/283 302/1098/283 303/1099/283 304/1100/283
f 305/1101/284 306/1102/284 307/1103/284 308/1104/284
f 303/1105/285 302/1106/285 307/1107/285 306/1108/285
f 301/1109/286 304/1110/286 305/1111/286 308/1112/286
f 304/1113/287 303/1114/287 306/1115/287 305/1116/287
f 308/1117/288 307/1118/288 302/1119/288 301/1120/288
f 309/1121/289 310/1122/289 311/1123/289 312/1124/289
f 313/1125/290 314/1126/290 315/1127/290 316/1128/290
f 311/1129/291 310/1130/291 315/1131/291 314/1132/291
f 309/1133/292 312/1134/292 313/1135/292 316/1136/292
f 312/1137/293 311/1138/293 314/1139/293 313/1140/293
f 316/1141/294 315/1142/294 310/1143/294 309/1144/294
o chain_1
v -0.5625 0.938125 0.40625
v -1.5625 0.938125 0.40625
v -0.5625 0.938125 0.59375
v -1.5625 0.938125 0.59375
v -0.5625 0.844375 0.5
v -1.5625 0.844375 0.5
v -0.5625 1.0318749999999999 0.5
v -1.5625 1.0318749999999999 0.5
v -0.5625 0.06187500000000001 0.40625
v -1.5625 0.06187500000000001 0.40625
v -0.5625 0.06187500000000001 0.59375
v -1.5625 0.06187500000000001 0.59375
v -0.5625 -0.03187499999999999 0.5
v -1.5625 -0.03187499999999999 0.5
v -0.5625 0.155625 0.5
v -1.5625 0.155625 0.5
v -1.5625 0.0625 0.40625
v -1.5625 0.9375 0.40625
v -1.5625 0.0625 0.59375
v -1.5625 0.9375 0.59375
v -1.65625 0 0.5
v -1.65625 1 0.5
v -1.46875 0 0.5
v -1.46875 1 0.5
v 0.125 0.938125 0.40625
v -0.5625 0.938125 0.40625
v 0.125 0.938125 0.59375
v -0.5625 0.938125 0.59375
v 0.125 0.844375 0.5
v -0.5625 0.844375 0.5
v 0.125 1.0318749999999999 0.5
v -0.5625 1.0318749999999999 0.5
v 0.125 0.06187500000000001 0.40625
v -0.5625 0.06187500000000001 0.40625
v 0.125 0.06187500000000001 0.59375
v -0.5625 0.06187500000000001 0.59375
v 0.125 -0.03187499999999999 0.5
v -0.5625 -0.03187499999999999 0.5
v 0.125 0.155625 0.5
v -0.5625 0.155625 0.5
vt 0.1875 1
vt 0.1875 0
vt 0.375 0
vt 0.375 1
vt 0 1
vt 0 0
vt 0.1875 0
vt 0.1875 1
vt 0.1875 1
vt 0.1875 0
vt 0.375 0
vt 0.375 1
vt 0 1
vt 0 0
vt 0.1875 0
vt 0.1875 1
vt 0.375 0.0625
vt 0.375 0.9375
vt 0.1875 0.9375
vt 0.1875 0.0625
vt 0 1
vt 0 0
vt 0.1875 0
vt 0.1875 1
vt 0.1875 1
vt 0.1875 0.3125
vt 0.375 0.3125
vt 0.375 1
vt 0.1875 0
vt 0.1875 0.6875
vt 0 0.6875
vt 0 0
vt 0.1875 1
vt 0.1875 0.3125
vt 0.375 0.3125
vt 0.375 1
vt 0.1875 0
vt 0.1875 0.6875
vt 0 0.6875
vt 0 0
vn 0 1 0
vn 0 0 -1
vn 0 1 0
vn 0 0 -1
vn 1 0 0
vn 0 0 -1
vn 0 1 0
vn 0 0 -1
vn 0 1 0
vn 0 0 -1
usemtl m_82f0fc91-35f7-00c2-b12c-504d00f11aa3
f 317/1145/295 318/1146/295 320/1147/295 319/1148/295
f 321/1149/296 322/1150/296 324/1151/296 323/1152/296
f 325/1153/297 326/1154/297 328/1155/297 327/1156/297
f 329/1157/298 330/1158/298 332/1159/298 331/1160/298
f 333/1161/299 334/1162/299 336/1163/299 335/1164/299
f 337/1165/300 338/1166/300 340/1167/300 339/1168/300
f 341/1169/301 342/1170/301 344/1171/301 343/1172/301
f 345/1173/302 346/1174/302 348/1175/302 347/1176/302
f 349/1177/303 350/1178/303 352/1179/303 351/1180/303
f 353/1181/304 354/1182/304 356/1183/304 355/1184/304
o chain_2
v 1.5625 0.938125 0.59375
v 2.5625 0.938125 0.59375
v 1.5625 0.938125 0.40625000000000006
v 2.5625 0.938125 0.40624999999999994
v 1.5625 0.844375 0.5000000000000001
v 2.5625 0.844375 0.49999999999999994
v 1.5625 1.0318749999999999 0.5000000000000001
v 2.5625 1.0318749999999999 0.49999999999999994
v 1.5625 0.06187500000000001 0.59375
v 2.5625 0.06187500000000001 0.59375
v 1.5625 0.06187500000000001 0.40625000000000006
v 2.5625 0.06187500000000001 0.40624999999999994
v 1.5625 -0.03187499999999999 0.5000000000000001
v 2.5625 -0.03187499999999999 0.49999999999999994
v 1.5625 0.155625 0.5000000000000001
v 2.5625 0.155625 0.49999999999999994
v 2.5625 0.0625 0.59375
v 2.5625 0.9375 0.59375
v 2.5625 0.0625 0.40624999999999994
v 2.5625 0.9375 0.40624999999999994
v 2.65625 0 0.49999999999999994
v 2.65625 1 0.49999999999999994
v 2.46875 0 0.49999999999999994
v 2.46875 1 0.49999999999999994
v 0.875 0.938125 0.5937500000000001
v 1.5625 0.938125 0.59375
v 0.875 0.938125 0.4062500000000001
v 1.5625 0.938125 0.40625000000000006
v 0.875 0.844375 0.5000000000000001
v 1.5625 0.844375 0.5000000000000001
v 0.875 1.0318749999999999 0.5000000000000001
v 1.5625 1.0318749999999999 0.5000000000000001
v 0.875 0.06187500000000001 0.5937500000000001
v 1.5625 0.06187500000000001 0.59375
v 0.875 0.06187500000000001 0.4062500000000001
v 1.5625 0.06187500000000001 0.40625000000000006
v 0.875 -0.03187499999999999 0.5000000000000001
v 1.5625 -0.03187499999999999 0.5000000000000001
v 0.875 0.155625 0.5000000000000001
v 1.5625 0.155625 0.5000000000000001
vt 0.1875 1
vt 0.1875 0
vt 0.375 0
vt 0.375 1
vt 0 1
vt 0 0
vt 0.1875 0
vt 0.1875 1
vt 0.1875 1
vt 0.1875 0
vt 0.375 0
vt 0.375 1
vt 0 1
vt 0 0
vt 0.1875 0
vt 0.1875 1
vt 0.375 0.0625
vt 0.375 0.9375
vt 0.1875 0.9375
vt 0.1875 0.0625
vt 0 1
vt 0 0
vt 0.1875 0
vt 0.1875 1
vt 0.1875 1
vt 0.1875 0.3125
vt 0.375 0.3125
vt 0.375 1
vt 0.1875 0
vt 0.1875 0.6875
vt 0 0.6875
vt 0 0
vt 0.1875 1
vt 0.1875 0.3125
vt 0.375 0.3125
vt 0.375 1
vt 0.1875 0
vt 0.1875 0.6875
vt 0 0.6875
vt 0 0
vn 0 1 0
vn 1.2246467991473532e-16 0 1
vn 0 1 0
vn 1.2246467991473532e-16 0 1
vn -1 0 1.2246467991473532e-16
vn 1.2246467991473532e-16 0 1
vn 0 1 0
vn 1.2246467991473532e-16 0 1
vn 0 1 0
vn 1.2246467991473532e-16 0 1
usemtl m_82f0fc91-35f7-00c2-b12c-504d00f11aa3
f 357/1185/305 358/1186/305 360/1187/305 359/1188/305
f 361/1189/306 362/1190/306 364/1191/306 363/1192/306
f 365/1193/307 366/1194/307 368/1195/307 367/1196/307
f 369/1197/308 370/1198/308 372/1199/308 371/1200/308
f 373/1201/309 374/1202/309 376/1203/309 375/1204/309
f 377/1205/310 378/1206/310 380/1207/310 379/1208/310
f 381/1209/311 382/1210/311 384/1211/311 383/1212/311
f 385/1213/312 386/1214/312 388/1215/312 387/1216/312
f 389/1217/313 390/1218/313 392/1219/313 391/1220/313
f 393/1221/314 394/1222/314 396/1223/314 395/1224/314
o chain_3
v 0.5937499999999998 0.938125 -0.5625
v 0.5937499999999996 0.938125 -1.5625
v 0.4062499999999998 0.938125 -0.5625
v 0.40624999999999956 0.938125 -1.5625
v 0.4999999999999998 0.844375 -0.5625
v 0.49999999999999956 0.844375 -1.5625
v 0.4999999999999998 1.0318749999999999 -0.5625
v 0.49999999999999956 1.0318749999999999 -1.5625
v 0.5937499999999998 0.06187500000000001 -0.5625
v 0.5937499999999996 0.06187500000000001 -1.5625
v 0.4062499999999998 0.06187500000000001 -0.5625
v 0.40624999999999956 0.06187500000000001 -1.5625
v 0.4999999999999998 -0.03187499999999999 -0.5625
v 0.49999999999999956 -0.03187499999999999 -1.5625
v 0.4999999999999998 0.155625 -0.5625
v 0.49999999999999956 0.155625 -1.5625
v 0.5937499999999996 0.0625 -1.5625
v 0.5937499999999996 0.9375 -1.5625
v 0.40624999999999956 0.0625 -1.5625
v 0.40624999999999956 0.9375 -1.5625
v 0.4999999999999995 0 -1.65625
v 0.4999999999999995 1 -1.65625
v 0.49999999999999956 0 -1.46875
v 0.49999999999999956 1 -1.46875
v 0.5937499999999999 0.938125 0.125
v 0.5937499999999998 0.938125 -0.5625
v 0.4062499999999999 0.938125 0.125
v 0.4062499999999998 0.938125 -0.5625
v 0.4999999999999999 0.844375 0.125
v 0.4999999999999998 0.844375 -0.5625
v 0.4999999999999999 1.0318749999999999 0.125
v 0.4999999999999998 1.0318749999999999 -0.5625
v 0.5937499999999999 0.06187500000000001 0.125
v 0.5937499999999998 0.06187500000000001 -0.5625
v 0.4062499999999999 0.06187500000000001 0.125
v 0.4062499999999998 0.06187500000000001 -0.5625
v 0.4999999999999999 -0.03187499999999999 0.125
v 0.4999999999999998 -0.03187499999999999 -0.5625
v 0.4999999999999999 0.155625 0.125
v 0.4999999999999998 0.155625 -0.5625
vt 0.1875 1
vt 0.1875 0
vt 0.375 0
vt 0.375 1
vt 0 1
vt 0 0
vt 0.1875 0
vt 0.1875 1
vt 0.1875 1
vt 0.1875 0
vt 0.375 0
vt 0.375 1
vt 0 1
vt 0 0
vt 0.1875 0
vt 0.1875 1
vt 0.375 0.0625
vt 0.375 0.9375
vt 0.1875 0.9375
vt 0.1875 0.0625
vt 0 1
vt 0 0
vt 0.1875 0
vt 0.1875 1
vt 0.1875 1
vt 0.1875 0.3125
vt 0.375 0.3125
vt 0.375 1
vt 0.1875 0
vt 0.1875 0.6875
vt 0 0.6875
vt 0 0
vt 0.1875 1
vt 0.1875 0.3125
vt 0.375 0.3125
vt 0.375 1
vt 0.1875 0
vt 0.1875 0.6875
vt 0 0.6875
vt 0 0
vn 0 1 0
vn 1 0 -2.220446049250313e-16
vn 0 1 0
vn 1 0 -2.220446049250313e-16
vn 2.220446049250313e-16 0 1
vn 1 0 -2.220446049250313e-16
vn 0 1 0
vn 1 0 -2.220446049250313e-16
vn 0 1 0
vn 1 0 -2.220446049250313e-16
usemtl m_82f0fc91-35f7-00c2-b12c-504d00f11aa3
f 397/1225/315 398/1226/315 400/1227/315 399/1228/315
f 401/1229/316 402/1230/316 404/1231/316 403/1232/316
f 405/1233/317 406/1234/317 408/1235/317 407/1236/317
f 409/1237/318 410/1238/318 412/1239/318 411/1240/318
f 413/1241/319 414/1242/319 416/1243/319 415/1244/319
f 417/1245/320 418/1246/320 420/1247/320 419/1248/320
f 421/1249/321 422/1250/321 424/1251/321 423/1252/321
f 425/1253/322 426/1254/322 428/1255/322 427/1256/322
f 429/1257/323 430/1258/323 432/1259/323 431/1260/323
f 433/1261/324 434/1262/324 436/1263/324 435/1264/324
o chain_2
v 0.4062499999999998 0.938125 1.5625
v 0.40624999999999956 0.938125 2.5625
v 0.5937499999999998 0.938125 1.5625
v 0.5937499999999996 0.938125 2.5625
v 0.4999999999999998 0.844375 1.5625
v 0.49999999999999956 0.844375 2.5625
v 0.4999999999999998 1.0318749999999999 1.5625
v 0.49999999999999956 1.0318749999999999 2.5625
v 0.4062499999999998 0.06187500000000001 1.5625
v 0.40624999999999956 0.06187500000000001 2.5625
v 0.5937499999999998 0.06187500000000001 1.5625
v 0.5937499999999996 0.06187500000000001 2.5625
v 0.4999999999999998 -0.03187499999999999 1.5625
v 0.49999999999999956 -0.03187499999999999 2.5625
v 0.4999999999999998 0.155625 1.5625
v 0.49999999999999956 0.155625 2.5625
v 0.40624999999999956 0.0625 2.5625
v 0.40624999999999956 0.9375 2.5625
v 0.5937499999999996 0.0625 2.5625
v 0.5937499999999996 0.9375 2.5625
v 0.4999999999999995 0 2.65625
v 0.4999999999999995 1 2.65625
v 0.49999999999999956 0 2.46875
v 0.49999999999999956 1 2.46875
v 0.4062499999999999 0.938125 0.875
v 0.4062499999999998 0.938125 1.5625
v 0.5937499999999999 0.938125 0.875
v 0.5937499999999998 0.938125 1.5625
v 0.4999999999999999 0.844375 0.875
v 0.4999999999999998 0.844375 1.5625
v 0.4999999999999999 1.0318749999999999 0.875
v 0.4999999999999998 1.0318749999999999 1.5625
v 0.4062499999999999 0.06187500000000001 0.875
v 0.4062499999999998 0.06187500000000001 1.5625
v 0.5937499999999999 0.06187500000000001 0.875
v 0.5937499999999998 0.06187500000000001 1.5625
v 0.4999999999999999 -0.03187499999999999 0.875
v 0.4999999999999998 -0.03187499999999999 1.5625
v 0.4999999999999999 0.155625 0.875
v 0.4999999999999998 0.155625 1.5625
vt 0.1875 1
vt 0.1875 0
vt 0.375 0
vt 0.375 1
vt 0 1
vt 0 0
vt 0.1875 0
vt 0.1875 1
vt 0.1875 1
vt 0.1875 0
vt 0.375 0
vt 0.375 1
vt 0 1
vt 0 0
vt 0.1875 0
vt 0.1875 1
vt 0.375 0.0625
vt 0.375 0.9375
vt 0.1875 0.9375
vt 0.1875 0.0625
vt 0 1
vt 0 0
vt 0.1875 0
vt 0.1875 1
vt 0.1875 1
vt 0.1875 0.3125
vt 0.375 0.3125
vt 0.375 1
vt 0.1875 0
vt 0.1875 0.6875
vt 0 0.6875
vt 0 0
vt 0.1875 1
vt 0.1875 0.3125
vt 0.375 0.3125
vt 0.375 1
vt 0.1875 0
vt 0.1875 0.6875
vt 0 0.6875
vt 0 0
vn 0 1 0
vn -1 0 -2.220446049250313e-16
vn 0 1 0
vn -1 0 -2.220446049250313e-16
vn 2.220446049250313e-16 0 -1
vn -1 0 -2.220446049250313e-16
vn 0 1 0
vn -1 0 -2.220446049250313e-16
vn 0 1 0
vn -1 0 -2.220446049250313e-16
usemtl m_82f0fc91-35f7-00c2-b12c-504d00f11aa3
f 437/1265/325 438/1266/325 440/1267/325 439/1268/325
f 441/1269/326 442/1270/326 444/1271/326 443/1272/326
f 445/1273/327 446/1274/327 448/1275/327 447/1276/327
f 449/1277/328 450/1278/328 452/1279/328 451/1280/328
f 453/1281/329 454/1282/329 456/1283/329 455/1284/329
f 457/1285/330 458/1286/330 460/1287/330 459/1288/330
f 461/1289/331 462/1290/331 464/1291/331 463/1292/331
f 465/1293/332 466/1294/332 468/1295/332 467/1296/332
f 469/1297/333 470/1298/333 472/1299/333 471/1300/333
f 473/1301/334 474/1302/334 476/1303/334 475/1304/334
o chain_3
v 1.185009694274468 0.938125 1.3175922157469455
v 1.8921164754610151 0.9381250000000001 2.024698996933493
v 1.3175922157469455 0.938125 1.1850096942744681
v 2.024698996933493 0.9381250000000001 1.8921164754610154
v 1.2513009550107066 0.844375 1.2513009550107068
v 1.958407736197254 0.8443750000000001 1.9584077361972543
v 1.2513009550107066 1.031875 1.2513009550107068
v 1.958407736197254 1.031875 1.9584077361972543
v 1.1850096942744681 0.06187500000000001 1.3175922157469455
v 1.8921164754610151 0.061875000000000124 2.024698996933493
v 1.3175922157469455 0.06187500000000001 1.1850096942744681
v 2.024698996933493 0.061875000000000124 1.8921164754610154
v 1.2513009550107068 -0.03187499999999999 1.2513009550107068
v 1.958407736197254 -0.031874999999999876 1.9584077361972543
v 1.2513009550107068 0.155625 1.2513009550107068
v 1.958407736197254 0.15562500000000012 1.9584077361972543
v 1.8921164754610151 0.06250000000000011 2.024698996933493
v 1.8921164754610151 0.9375 2.024698996933493
v 2.024698996933493 0.06250000000000011 1.8921164754610154
v 2.024698996933493 0.9375000000000001 1.8921164754610154
v 2.024698996933493 1.1102230246251565e-16 2.024698996933493
v 2.024698996933493 1 2.024698996933493
v 1.8921164754610154 1.1102230246251565e-16 1.8921164754610156
v 1.8921164754610154 1 1.8921164754610156
v 0.6988737822087164 0.938125 0.8314563036811942
v 1.185009694274468 0.938125 1.3175922157469455
v 0.8314563036811942 0.938125 0.6988737822087165
v 1.3175922157469455 0.938125 1.1850096942744681
v 0.7651650429449552 0.844375 0.7651650429449554
v 1.2513009550107066 0.844375 1.2513009550107068
v 0.7651650429449552 1.031875 0.7651650429449554
v 1.2513009550107066 1.031875 1.2513009550107068
v 0.6988737822087165 0.06187500000000001 0.8314563036811942
v 1.1850096942744681 0.06187500000000001 1.3175922157469455
v 0.8314563036811942 0.06187500000000001 0.6988737822087165
v 1.3175922157469455 0.06187500000000001 1.1850096942744681
v 0.7651650429449555 -0.03187499999999999 0.7651650429449552
v 1.2513009550107068 -0.03187499999999999 1.2513009550107068
v 0.7651650429449554 0.155625 0.7651650429449552
v 1.2513009550107068 0.155625 1.2513009550107068
vt 0.1875 1
vt 0.1875 0
vt 0.375 0
vt 0.375 1
vt 0 1
vt 0 0
vt 0.1875 0
vt 0.1875 1
vt 0.1875 1
vt 0.1875 0
vt 0.375 0
vt 0.375 1
vt 0 1
vt 0 0
vt 0.1875 0
vt 0.1875 1
vt 0.375 0.0625
vt 0.375 0.9375
vt 0.1875 0.9375
vt 0.1875 0.0625
vt 0 1
vt 0 0
vt 0.1875 0
vt 0.1875 1
vt 0.1875 1
vt 0.1875 0.3125
vt 0.375 0.3125
vt 0.375 1
vt 0.1875 0
vt 0.1875 0.6875
vt 0 0.6875
vt 0 0
vt 0.1875 1
vt 0.1875 0.3125
vt 0.375 0.3125
vt 0.375 1
vt 0.1875 0
vt 0.1875 0.6875
vt 0 0.6875
vt 0 0
vn -8.65956056235493e-17 1 3.586907429118598e-17
vn -0.7071067811865476 -8.65956056235493e-17 0.7071067811865475
vn -8.65956056235493e-17 1 3.586907429118598e-17
vn -0.7071067811865476 -8.65956056235493e-17 0.7071067811865475
vn -0.7071067811865475 -3.586907429118598e-17 -0.7071067811865476
vn -0.7071067811865476 -8.65956056235493e-17 0.7071067811865475
vn -8.65956056235493e-17 1 3.586907429118598e-17
vn -0.7071067811865476 -8.65956056235493e-17 0.7071067811865475
vn -8.65956056235493e-17 1 3.586907429118598e-17
vn -0.7071067811865476 -8.65956056235493e-17 0.7071067811865475
usemtl m_82f0fc91-35f7-00c2-b12c-504d00f11aa3
f 477/1305/335 478/1306/335 480/1307/335 479/1308/335
f 481/1309/336 482/1310/336 484/1311/336 483/1312/336
f 485/1313/337 486/1314/337 488/1315/337 487/1316/337
f 489/1317/338 490/1318/338 492/1319/338 491/1320/338
f 493/1321/339 494/1322/339 496/1323/339 495/1324/339
f 497/1325/340 498/1326/340 500/1327/340 499/1328/340
f 501/1329/341 502/1330/341 504/1331/341 503/1332/341
f 505/1333/342 506/1334/342 508/1335/342 507/1336/342
f 509/1337/343 510/1338/343 512/1339/343 511/1340/343
f 513/1341/344 514/1342/344 516/1343/344 515/1344/344
o chain_4
v -0.1850096942744679 0.938125 -0.3175922157469456
v -0.8921164754610151 0.938125 -1.0246989969334932
v -0.3175922157469455 0.938125 -0.185009694274468
v -1.024698996933493 0.938125 -0.8921164754610154
v -0.2513009550107067 0.844375 -0.2513009550107068
v -0.9584077361972541 0.844375 -0.9584077361972543
v -0.2513009550107067 1.0318749999999999 -0.2513009550107068
v -0.9584077361972541 1.0318749999999999 -0.9584077361972543
v -0.1850096942744679 0.06187500000000001 -0.3175922157469456
v -0.8921164754610151 0.06187500000000001 -1.0246989969334932
v -0.3175922157469455 0.06187500000000001 -0.185009694274468
v -1.024698996933493 0.06187500000000001 -0.8921164754610154
v -0.2513009550107067 -0.03187499999999999 -0.2513009550107068
v -0.9584077361972541 -0.03187499999999999 -0.9584077361972543
v -0.2513009550107067 0.155625 -0.2513009550107068
v -0.9584077361972541 0.155625 -0.9584077361972543
v -0.8921164754610151 0.0625 -1.0246989969334932
v -0.8921164754610151 0.9375 -1.0246989969334932
v -1.024698996933493 0.0625 -0.8921164754610154
v -1.024698996933493 0.9375 -0.8921164754610154
v -1.024698996933493 0 -1.0246989969334932
v -1.024698996933493 1 -1.0246989969334932
v -0.8921164754610154 0 -0.8921164754610156
v -0.8921164754610154 1 -0.8921164754610156
v 0.30112621779128357 0.938125 0.16854369631880584
v -0.1850096942744679 0.938125 -0.3175922157469456
v 0.16854369631880584 0.938125 0.30112621779128346
v -0.3175922157469455 0.938125 -0.185009694274468
v 0.2348349570550447 0.844375 0.23483495705504465
v -0.2513009550107067 0.844375 -0.2513009550107068
v 0.2348349570550447 1.0318749999999999 0.23483495705504465
v -0.2513009550107067 1.0318749999999999 -0.2513009550107068
v 0.30112621779128357 0.06187500000000001 0.16854369631880584
v -0.1850096942744679 0.06187500000000001 -0.3175922157469456
v 0.16854369631880584 0.06187500000000001 0.30112621779128346
v -0.3175922157469455 0.06187500000000001 -0.185009694274468
v 0.2348349570550447 -0.03187499999999999 0.23483495705504465
v -0.2513009550107067 -0.03187499999999999 -0.2513009550107068
v 0.2348349570550447 0.155625 0.23483495705504465
v -0.2513009550107067 0.155625 -0.2513009550107068
vt 0.1875 1
vt 0.1875 0
vt 0.375 0
vt 0.375 1
vt 0 1
vt 0 0
vt 0.1875 0
vt 0.1875 1
vt 0.1875 1
vt 0.1875 0
vt 0.375 0
vt 0.375 1
vt 0 1
vt 0 0
vt 0.1875 0
vt 0.1875 1
vt 0.375 0.0625
vt 0.375 0.9375
vt 0.1875 0.9375
vt 0.1875 0.0625
vt 0 1
vt 0 0
vt 0.1875 0
vt 0.1875 1
vt 0.1875 1
vt 0.1875 0.3125
vt 0.375 0.3125
vt 0.375 1
vt 0.1875 0
vt 0.1875 0.6875
vt 0 0.6875
vt 0 0
vt 0.1875 1
vt 0.1875 0.3125
vt 0.375 0.3125
vt 0.375 1
vt 0.1875 0
vt 0.1875 0.6875
vt 0 0.6875
vt 0 0
vn 0 1 0
vn 0.7071067811865476 0 -0.7071067811865475
vn 0 1 0
vn 0.7071067811865476 0 -0.7071067811865475
vn 0.7071067811865475 0 0.7071067811865476
vn 0.7071067811865476 0 -0.7071067811865475
vn 0 1 0
vn 0.7071067811865476 0 -0.7071067811865475
vn 0 1 0
vn 0.7071067811865476 0 -0.7071067811865475
usemtl m_82f0fc91-35f7-00c2-b12c-504d00f11aa3
f 517/1345/345 518/1346/345 520/1347/345 519/1348/345
f 521/1349/346 522/1350/346 524/1351/346 523/1352/346
f 525/1353/347 526/1354/347 528/1355/347 527/1356/347
f 529/1357/348 530/1358/348 532/1359/348 531/1360/348
f 533/1361/349 534/1362/349 536/1363/349 535/1364/349
f 537/1365/350 538/1366/350 540/1367/350 539/1368/350
f 541/1369/351 542/1370/351 544/1371/351 543/1372/351
f 545/1373/352 546/1374/352 548/1375/352 547/1376/352
f 549/1377/353 550/1378/353 552/1379/353 551/1380/353
f 553/1381/354 554/1382/354 556/1383/354 555/1384/354
o chain_3
v 1.3175922157469455 0.938125 -0.185009694274468
v 2.024698996933493 0.9381249999999999 -0.8921164754610154
v 1.185009694274468 0.938125 -0.3175922157469456
v 1.8921164754610151 0.9381249999999999 -1.0246989969334932
v 1.2513009550107066 0.844375 -0.2513009550107068
v 1.958407736197254 0.8443749999999999 -0.9584077361972543
v 1.2513009550107066 1.0318749999999999 -0.2513009550107068
v 1.958407736197254 1.0318749999999999 -0.9584077361972543
v 1.3175922157469455 0.06187500000000001 -0.185009694274468
v 2.024698996933493 0.0618749999999999 -0.8921164754610154
v 1.1850096942744677 0.06187500000000001 -0.3175922157469456
v 1.8921164754610151 0.0618749999999999 -1.0246989969334932
v 1.2513009550107066 -0.03187499999999999 -0.2513009550107068
v 1.958407736197254 -0.0318750000000001 -0.9584077361972543
v 1.2513009550107066 0.155625 -0.2513009550107068
v 1.958407736197254 0.1556249999999999 -0.9584077361972543
v 2.024698996933493 0.06249999999999989 -0.8921164754610154
v 2.024698996933493 0.9374999999999999 -0.8921164754610154
v 1.8921164754610151 0.06249999999999989 -1.0246989969334932
v 1.8921164754610151 0.9374999999999999 -1.0246989969334932
v 2.024698996933493 -1.1102230246251565e-16 -1.0246989969334932
v 2.024698996933493 0.9999999999999999 -1.0246989969334932
v 1.8921164754610154 -1.1102230246251565e-16 -0.8921164754610156
v 1.8921164754610154 0.9999999999999999 -0.8921164754610156
v 0.8314563036811942 0.938125 0.30112621779128346
v 1.3175922157469455 0.938125 -0.185009694274468
v 0.6988737822087164 0.938125 0.16854369631880584
v 1.185009694274468 0.938125 -0.3175922157469456
v 0.7651650429449552 0.844375 0.23483495705504465
v 1.2513009550107066 0.844375 -0.2513009550107068
v 0.7651650429449552 1.0318749999999999 0.23483495705504465
v 1.2513009550107066 1.0318749999999999 -0.2513009550107068
v 0.831456303681194 0.06187500000000001 0.3011262177912834
v 1.3175922157469455 0.06187500000000001 -0.185009694274468
v 0.6988737822087164 0.06187500000000001 0.16854369631880578
v 1.1850096942744677 0.06187500000000001 -0.3175922157469456
v 0.7651650429449552 -0.03187499999999999 0.2348349570550446
v 1.2513009550107066 -0.03187499999999999 -0.2513009550107068
v 0.7651650429449552 0.155625 0.2348349570550446
v 1.2513009550107066 0.155625 -0.2513009550107068
vt 0.1875 1
vt 0.1875 0
vt 0.375 0
vt 0.375 1
vt 0 1
vt 0 0
vt 0.1875 0
vt 0.1875 1
vt 0.1875 1
vt 0.1875 0
vt 0.375 0
vt 0.375 1
vt 0 1
vt 0 0
vt 0.1875 0
vt 0.1875 1
vt 0.375 0.0625
vt 0.375 0.9375
vt 0.1875 0.9375
vt 0.1875 0.0625
vt 0 1
vt 0 0
vt 0.1875 0
vt 0.1875 1
vt 0.1875 1
vt 0.1875 0.3125
vt 0.375 0.3125
vt 0.375 1
vt 0.1875 0
vt 0.1875 0.6875
vt 0 0.6875
vt 0 0
vt 0.1875 1
vt 0.1875 0.3125
vt 0.375 0.3125
vt 0.375 1
vt 0.1875 0
vt 0.1875 0.6875
vt 0 0.6875
vt 0 0
vn 8.65956056235493e-17 1 3.586907429118598e-17
vn 0.7071067811865476 -8.65956056235493e-17 0.7071067811865475
vn 8.65956056235493e-17 1 3.586907429118598e-17
vn 0.7071067811865476 -8.65956056235493e-17 0.7071067811865475
vn -0.7071067811865475 3.586907429118598e-17 0.7071067811865476
vn 0.7071067811865476 -8.65956056235493e-17 0.7071067811865475
vn 8.65956056235493e-17 1 3.586907429118598e-17
vn 0.7071067811865476 -8.65956056235493e-17 0.7071067811865475
vn 8.65956056235493e-17 1 3.586907429118598e-17
vn 0.7071067811865476 -8.65956056235493e-17 0.7071067811865475
usemtl m_82f0fc91-35f7-00c2-b12c-504d00f11aa3
f 557/1385/355 558/1386/355 560/1387/355 559/1388/355
f 561/1389/356 562/1390/356 564/1391/356 563/1392/356
f 565/1393/357 566/1394/357 568/1395/357 567/1396/357
f 569/1397/358 570/1398/358 572/1399/358 571/1400/358
f 573/1401/359 574/1402/359 576/1403/359 575/1404/359
f 577/1405/360 578/1406/360 580/1407/360 579/1408/360
f 581/1409/361 582/1410/361 584/1411/361 583/1412/361
f 585/1413/362 586/1414/362 588/1415/362 587/1416/362
f 589/1417/363 590/1418/363 592/1419/363 591/1420/363
f 593/1421/364 594/1422/364 596/1423/364 595/1424/364
o chain_2
v -0.3175922157469455 0.938125 1.1850096942744681
v -1.024698996933493 0.938125 1.8921164754610154
v -0.1850096942744679 0.938125 1.3175922157469455
v -0.8921164754610151 0.938125 2.024698996933493
v -0.2513009550107067 0.844375 1.2513009550107068
v -0.9584077361972541 0.844375 1.9584077361972543
v -0.2513009550107067 1.0318749999999999 1.2513009550107068
v -0.9584077361972541 1.0318749999999999 1.9584077361972543
v -0.3175922157469455 0.06187500000000001 1.1850096942744681
v -1.024698996933493 0.06187500000000001 1.8921164754610154
v -0.1850096942744679 0.06187500000000001 1.3175922157469455
v -0.8921164754610151 0.06187500000000001 2.024698996933493
v -0.2513009550107067 -0.03187499999999999 1.2513009550107068
v -0.9584077361972541 -0.03187499999999999 1.9584077361972543
v -0.2513009550107067 0.155625 1.2513009550107068
v -0.9584077361972541 0.155625 1.9584077361972543
v -1.024698996933493 0.0625 1.8921164754610154
v -1.024698996933493 0.9375 1.8921164754610154
v -0.8921164754610151 0.0625 2.024698996933493
v -0.8921164754610151 0.9375 2.024698996933493
v -1.024698996933493 0 2.024698996933493
v -1.024698996933493 1 2.024698996933493
v -0.8921164754610154 0 1.8921164754610156
v -0.8921164754610154 1 1.8921164754610156
v 0.16854369631880584 0.938125 0.6988737822087165
v -0.3175922157469455 0.938125 1.1850096942744681
v 0.30112621779128357 0.938125 0.8314563036811942
v -0.1850096942744679 0.938125 1.3175922157469455
v 0.2348349570550447 0.844375 0.7651650429449554
v -0.2513009550107067 0.844375 1.2513009550107068
v 0.2348349570550447 1.0318749999999999 0.7651650429449554
v -0.2513009550107067 1.0318749999999999 1.2513009550107068
v 0.16854369631880584 0.06187500000000001 0.6988737822087165
v -0.3175922157469455 0.06187500000000001 1.1850096942744681
v 0.30112621779128357 0.06187500000000001 0.8314563036811942
v -0.1850096942744679 0.06187500000000001 1.3175922157469455
v 0.2348349570550447 -0.03187499999999999 0.7651650429449554
v -0.2513009550107067 -0.03187499999999999 1.2513009550107068
v 0.2348349570550447 0.155625 0.7651650429449554
v -0.2513009550107067 0.155625 1.2513009550107068
vt 0.1875 1
vt 0.1875 0
vt 0.375 0
vt 0.375 1
vt 0 1
vt 0 0
vt 0.1875 0
vt 0.1875 1
vt 0.1875 1
vt 0.1875 0
vt 0.375 0
vt 0.375 1
vt 0 1
vt 0 0
vt 0.1875 0
vt 0.1875 1
vt 0.375 0.0625
vt 0.375 0.9375
vt 0.1875 0.9375
vt 0.1875 0.0625
vt 0 1
vt 0 0
vt 0.1875 0
vt 0.1875 1
vt 0.1875 1
vt 0.1875 0.3125
vt 0.375 0.3125
vt 0.375 1
vt 0.1875 0
vt 0.1875 0.6875
vt 0 0.6875
vt 0 0
vt 0.1875 1
vt 0.1875 0.3125
vt 0.375 0.3125
vt 0.375 1
vt 0.1875 0
vt 0.1875 0.6875
vt 0 0.6875
vt 0 0
vn 0 1 0
vn -0.7071067811865476 0 -0.7071067811865475
vn 0 1 0
vn -0.7071067811865476 0 -0.7071067811865475
vn 0.7071067811865475 0 -0.7071067811865476
vn -0.7071067811865476 0 -0.7071067811865475
vn 0 1 0
vn -0.7071067811865476 0 -0.7071067811865475
vn 0 1 0
vn -0.7071067811865476 0 -0.7071067811865475
usemtl m_82f0fc91-35f7-00c2-b12c-504d00f11aa3
f 597/1425/365 598/1426/365 600/1427/365 599/1428/365
f 601/1429/366 602/1430/366 604/1431/366 603/1432/366
f 605/1433/367 606/1434/367 608/1435/367 607/1436/367
f 609/1437/368 610/1438/368 612/1439/368 611/1440/368
f 613/1441/369 614/1442/369 616/1443/369 615/1444/369
f 617/1445/370 618/1446/370 620/1447/370 619/1448/370
f 621/1449/371 622/1450/371 624/1451/371 623/1452/371
f 625/1453/372 626/1454/372 628/1455/372 627/1456/372
f 629/1457/373 630/1458/373 632/1459/373 631/1460/373
f 633/1461/374 634/1462/374 636/1463/374 635/1464/374
o shaft
v 0.375 1 0.375
v 0.625 1 0.375
v 0.625 0 0.375
v 0.375 0 0.375
v 0.375 1 0.625
v 0.375 0 0.625
v 0.625 1 0.625
v 0.625 0 0.625
vt 0.625 1
vt 0.375 1
vt 0.375 0
vt 0.625 0
vt 0.625 1
vt 0.375 1
vt 0.375 0
vt 0.625 0
vt 0.625 1
vt 0.375 1
vt 0.375 0
vt 0.625 0
vt 0.625 1
vt 0.375 1
vt 0.375 0
vt 0.625 0
vt 0.625 0.375
vt 0.625 0.625
vt 0.375 0.625
vt 0.375 0.375
vt 0.625 0.625
vt 0.375 0.625
vt 0.375 0.375
vt 0.625 0.375
vn 0 0 -1
vn -1 0 0
vn 0 0 1
vn 1 0 0
vn 0 -1 0
vn 0 1 0
usemtl m_57ea7fa6-5cd4-749a-bcf7-752485237e93
f 637/1465/375 638/1466/375 639/1467/375 640/1468/375
f 641/1469/376 637/1470/376 640/1471/376 642/1472/376
f 643/1473/377 641/1474/377 642/1475/377 644/1476/377
f 638/1477/378 643/1478/378 644/1479/378 639/1480/378
usemtl m_a404515f-954d-26b2-52ad-c2b4ef5dbf6a
f 644/1481/379 642/1482/379 640/1483/379 639/1484/379
f 638/1485/380 637/1486/380 641/1487/380 643/1488/380
o chain_3
v -0.3175922157469455 0.938125 1.1850096942744681
v -1.024698996933493 0.938125 1.8921164754610154
v -0.1850096942744679 0.938125 1.3175922157469455
v -0.8921164754610151 0.938125 2.024698996933493
v -0.2513009550107067 0.844375 1.2513009550107068
v -0.9584077361972541 0.844375 1.9584077361972543
v -0.2513009550107067 1.0318749999999999 1.2513009550107068
v -0.9584077361972541 1.0318749999999999 1.9584077361972543
v -0.3175922157469455 0.06187500000000001 1.1850096942744681
v -1.024698996933493 0.06187500000000001 1.8921164754610154
v -0.1850096942744679 0.06187500000000001 1.3175922157469455
v -0.8921164754610151 0.06187500000000001 2.024698996933493
v -0.2513009550107067 -0.03187499999999999 1.2513009550107068
v -0.9584077361972541 -0.03187499999999999 1.9584077361972543
v -0.2513009550107067 0.155625 1.2513009550107068
v -0.9584077361972541 0.155625 1.9584077361972543
v -1.024698996933493 0.0625 1.8921164754610154
v -1.024698996933493 0.9375 1.8921164754610154
v -0.8921164754610151 0.0625 2.024698996933493
v -0.8921164754610151 0.9375 2.024698996933493
v -1.024698996933493 0 2.024698996933493
v -1.024698996933493 1 2.024698996933493
v -0.8921164754610154 0 1.8921164754610156
v -0.8921164754610154 1 1.8921164754610156
v 0.16854369631880584 0.938125 0.6988737822087165
v -0.3175922157469455 0.938125 1.1850096942744681
v 0.30112621779128357 0.938125 0.8314563036811942
v -0.1850096942744679 0.938125 1.3175922157469455
v 0.2348349570550447 0.844375 0.7651650429449554
v -0.2513009550107067 0.844375 1.2513009550107068
v 0.2348349570550447 1.0318749999999999 0.7651650429449554
v -0.2513009550107067 1.0318749999999999 1.2513009550107068
v 0.16854369631880584 0.06187500000000001 0.6988737822087165
v -0.3175922157469455 0.06187500000000001 1.1850096942744681
v 0.30112621779128357 0.06187500000000001 0.8314563036811942
v -0.1850096942744679 0.06187500000000001 1.3175922157469455
v 0.2348349570550447 -0.03187499999999999 0.7651650429449554
v -0.2513009550107067 -0.03187499999999999 1.2513009550107068
v 0.2348349570550447 0.155625 0.7651650429449554
v -0.2513009550107067 0.155625 1.2513009550107068
vt 0.375 0
vt 0.1875 0
vt 0.1875 1
vt 0.375 1
vt 0.1875 0
vt 0 0
vt 0 1
vt 0.1875 1
vt 0.375 0
vt 0.1875 0
vt 0.1875 1
vt 0.375 1
vt 0.1875 0
vt 0 0
vt 0 1
vt 0.1875 1
vt 0.1875 0.9375
vt 0.375 0.9375
vt 0.375 0.0625
vt 0.1875 0.0625
vt 0.1875 0
vt 0 0
vt 0 1
vt 0.1875 1
vt 0.375 0.3125
vt 0.1875 0.3125
vt 0.1875 1
vt 0.375 1
vt 0 0.6875
vt 0.1875 0.6875
vt 0.1875 0
vt 0 0
vt 0.375 0.3125
vt 0.1875 0.3125
vt 0.1875 1
vt 0.375 1
vt 0 0.6875
vt 0.1875 0.6875
vt 0.1875 0
vt 0 0
vn 0 -1 0
vn 0.7071067811865476 0 0.7071067811865475
vn 0 -1 0
vn 0.7071067811865476 0 0.7071067811865475
vn -0.7071067811865475 0 0.7071067811865476
vn 0.7071067811865476 0 0.7071067811865475
vn 0 -1 0
vn 0.7071067811865476 0 0.7071067811865475
vn 0 -1 0
vn 0.7071067811865476 0 0.7071067811865475
usemtl m_82f0fc91-35f7-00c2-b12c-504d00f11aa3
f 648/1489/381 646/1490/381 645/1491/381 647/1492/381
f 652/1493/382 650/1494/382 649/1495/382 651/1496/382
f 656/1497/383 654/1498/383 653/1499/383 655/1500/383
f 660/1501/384 658/1502/384 657/1503/384 659/1504/384
f 664/1505/385 662/1506/385 661/1507/385 663/1508/385
f 668/1509/386 666/1510/386 665/1511/386 667/1512/386
f 672/1513/387 670/1514/387 669/1515/387 671/1516/387
f 676/1517/388 674/1518/388 673/1519/388 675/1520/388
f 680/1521/389 678/1522/389 677/1523/389 679/1524/389
f 684/1525/390 682/1526/390 681/1527/390 683/1528/390
o chain_4
v 1.3175922157469455 0.938125 -0.185009694274468
v 2.024698996933493 0.9381249999999999 -0.8921164754610154
v 1.185009694274468 0.938125 -0.3175922157469456
v 1.8921164754610151 0.9381249999999999 -1.0246989969334932
v 1.2513009550107066 0.844375 -0.2513009550107068
v 1.958407736197254 0.8443749999999999 -0.9584077361972543
v 1.2513009550107066 1.0318749999999999 -0.2513009550107068
v 1.958407736197254 1.0318749999999999 -0.9584077361972543
v 1.3175922157469455 0.06187500000000001 -0.185009694274468
v 2.024698996933493 0.0618749999999999 -0.8921164754610154
v 1.1850096942744677 0.06187500000000001 -0.3175922157469456
v 1.8921164754610151 0.0618749999999999 -1.0246989969334932
v 1.2513009550107066 -0.03187499999999999 -0.2513009550107068
v 1.958407736197254 -0.0318750000000001 -0.9584077361972543
v 1.2513009550107066 0.155625 -0.2513009550107068
v 1.958407736197254 0.1556249999999999 -0.9584077361972543
v 2.024698996933493 0.06249999999999989 -0.8921164754610154
v 2.024698996933493 0.9374999999999999 -0.8921164754610154
v 1.8921164754610151 0.06249999999999989 -1.0246989969334932
v 1.8921164754610151 0.9374999999999999 -1.0246989969334932
v 2.024698996933493 -1.1102230246251565e-16 -1.0246989969334932
v 2.024698996933493 0.9999999999999999 -1.0246989969334932
v 1.8921164754610154 -1.1102230246251565e-16 -0.8921164754610156
v 1.8921164754610154 0.9999999999999999 -0.8921164754610156
v 0.8314563036811942 0.938125 0.30112621779128346
v 1.3175922157469455 0.938125 -0.185009694274468
v 0.6988737822087164 0.938125 0.16854369631880584
v 1.185009694274468 0.938125 -0.3175922157469456
v 0.7651650429449552 0.844375 0.23483495705504465
v 1.2513009550107066 0.844375 -0.2513009550107068
v 0.7651650429449552 1.0318749999999999 0.23483495705504465
v 1.2513009550107066 1.0318749999999999 -0.2513009550107068
v 0.831456303681194 0.06187500000000001 0.3011262177912834
v 1.3175922157469455 0.06187500000000001 -0.185009694274468
v 0.6988737822087164 0.06187500000000001 0.16854369631880578
v 1.1850096942744677 0.06187500000000001 -0.3175922157469456
v 0.7651650429449552 -0.03187499999999999 0.2348349570550446
v 1.2513009550107066 -0.03187499999999999 -0.2513009550107068
v 0.7651650429449552 0.155625 0.2348349570550446
v 1.2513009550107066 0.155625 -0.2513009550107068
vt 0.375 0
vt 0.1875 0
vt 0.1875 1
vt 0.375 1
vt 0.1875 0
vt 0 0
vt 0 1
vt 0.1875 1
vt 0.375 0
vt 0.1875 0
vt 0.1875 1
vt 0.375 1
vt 0.1875 0
vt 0 0
vt 0 1
vt 0.1875 1
vt 0.1875 0.9375
vt 0.375 0.9375
vt 0.375 0.0625
vt 0.1875 0.0625
vt 0.1875 0
vt 0 0
vt 0 1
vt 0.1875 1
vt 0.375 0.3125
vt 0.1875 0.3125
vt 0.1875 1
vt 0.375 1
vt 0 0.6875
vt 0.1875 0.6875
vt 0.1875 0
vt 0 0
vt 0.375 0.3125
vt 0.1875 0.3125
vt 0.1875 1
vt 0.375 1
vt 0 0.6875
vt 0.1875 0.6875
vt 0.1875 0
vt 0 0
vn -8.65956056235493e-17 -1 -3.586907429118598e-17
vn -0.7071067811865476 8.65956056235493e-17 -0.7071067811865475
vn -8.65956056235493e-17 -1 -3.586907429118598e-17
vn -0.7071067811865476 8.65956056235493e-17 -0.7071067811865475
vn 0.7071067811865475 -3.586907429118598e-17 -0.7071067811865476
vn -0.7071067811865476 8.65956056235493e-17 -0.7071067811865475
vn -8.65956056235493e-17 -1 -3.586907429118598e-17
vn -0.7071067811865476 8.65956056235493e-17 -0.7071067811865475
vn -8.65956056235493e-17 -1 -3.586907429118598e-17
vn -0.7071067811865476 8.65956056235493e-17 -0.7071067811865475
usemtl m_82f0fc91-35f7-00c2-b12c-504d00f11aa3
f 688/1529/391 686/1530/391 685/1531/391 687/1532/391
f 692/1533/392 690/1534/392 689/1535/392 691/1536/392
f 696/1537/393 694/1538/393 693/1539/393 695/1540/393
f 700/1541/394 698/1542/394 697/1543/394 699/1544/394
f 704/1545/395 702/1546/395 701/1547/395 703/1548/395
f 708/1549/396 706/1550/396 705/1551/396 707/1552/396
f 712/1553/397 710/1554/397 709/1555/397 711/1556/397
f 716/1557/398 714/1558/398 713/1559/398 715/1560/398
f 720/1561/399 718/1562/399 717/1563/399 719/1564/399
f 724/1565/400 722/1566/400 721/1567/400 723/1568/400
o chain_5
v -0.1850096942744679 0.938125 -0.3175922157469456
v -0.8921164754610151 0.938125 -1.0246989969334932
v -0.3175922157469455 0.938125 -0.185009694274468
v -1.024698996933493 0.938125 -0.8921164754610154
v -0.2513009550107067 0.844375 -0.2513009550107068
v -0.9584077361972541 0.844375 -0.9584077361972543
v -0.2513009550107067 1.0318749999999999 -0.2513009550107068
v -0.9584077361972541 1.0318749999999999 -0.9584077361972543
v -0.1850096942744679 0.06187500000000001 -0.3175922157469456
v -0.8921164754610151 0.06187500000000001 -1.0246989969334932
v -0.3175922157469455 0.06187500000000001 -0.185009694274468
v -1.024698996933493 0.06187500000000001 -0.8921164754610154
v -0.2513009550107067 -0.03187499999999999 -0.2513009550107068
v -0.9584077361972541 -0.03187499999999999 -0.9584077361972543
v -0.2513009550107067 0.155625 -0.2513009550107068
v -0.9584077361972541 0.155625 -0.9584077361972543
v -0.8921164754610151 0.0625 -1.0246989969334932
v -0.8921164754610151 0.9375 -1.0246989969334932
v -1.024698996933493 0.0625 -0.8921164754610154
v -1.024698996933493 0.9375 -0.8921164754610154
v -1.024698996933493 0 -1.0246989969334932
v -1.024698996933493 1 -1.0246989969334932
v -0.8921164754610154 0 -0.8921164754610156
v -0.8921164754610154 1 -0.8921164754610156
v 0.30112621779128357 0.938125 0.16854369631880584
v -0.1850096942744679 0.938125 -0.3175922157469456
v 0.16854369631880584 0.938125 0.30112621779128346
v -0.3175922157469455 0.938125 -0.185009694274468
v 0.2348349570550447 0.844375 0.23483495705504465
v -0.2513009550107067 0.844375 -0.2513009550107068
v 0.2348349570550447 1.0318749999999999 0.23483495705504465
v -0.2513009550107067 1.0318749999999999 -0.2513009550107068
v 0.30112621779128357 0.06187500000000001 0.16854369631880584
v -0.1850096942744679 0.06187500000000001 -0.3175922157469456
v 0.16854369631880584 0.06187500000000001 0.30112621779128346
v -0.3175922157469455 0.06187500000000001 -0.185009694274468
v 0.2348349570550447 -0.03187499999999999 0.23483495705504465
v -0.2513009550107067 -0.03187499999999999 -0.2513009550107068
v 0.2348349570550447 0.155625 0.23483495705504465
v -0.2513009550107067 0.155625 -0.2513009550107068
vt 0.375 0
vt 0.1875 0
vt 0.1875 1
vt 0.375 1
vt 0.1875 0
vt 0 0
vt 0 1
vt 0.1875 1
vt 0.375 0
vt 0.1875 0
vt 0.1875 1
vt 0.375 1
vt 0.1875 0
vt 0 0
vt 0 1
vt 0.1875 1
vt 0.1875 0.9375
vt 0.375 0.9375
vt 0.375 0.0625
vt 0.1875 0.0625
vt 0.1875 0
vt 0 0
vt 0 1
vt 0.1875 1
vt 0.375 0.3125
vt 0.1875 0.3125
vt 0.1875 1
vt 0.375 1
vt 0 0.6875
vt 0.1875 0.6875
vt 0.1875 0
vt 0 0
vt 0.375 0.3125
vt 0.1875 0.3125
vt 0.1875 1
vt 0.375 1
vt 0 0.6875
vt 0.1875 0.6875
vt 0.1875 0
vt 0 0
vn 0 -1 0
vn -0.7071067811865476 0 0.7071067811865475
vn 0 -1 0
vn -0.7071067811865476 0 0.7071067811865475
vn -0.7071067811865475 0 -0.7071067811865476
vn -0.7071067811865476 0 0.7071067811865475
vn 0 -1 0
vn -0.7071067811865476 0 0.7071067811865475
vn 0 -1 0
vn -0.7071067811865476 0 0.7071067811865475
usemtl m_82f0fc91-35f7-00c2-b12c-504d00f11aa3
f 728/1569/401 726/1570/401 725/1571/401 727/1572/401
f 732/1573/402 730/1574/402 729/1575/402 731/1576/402
f 736/1577/403 734/1578/403 733/1579/403 735/1580/403
f 740/1581/404 738/1582/404 737/1583/404 739/1584/404
f 744/1585/405 742/1586/405 741/1587/405 743/1588/405
f 748/1589/406 746/1590/406 745/1591/406 747/1592/406
f 752/1593/407 750/1594/407 749/1595/407 751/1596/407
f 756/1597/408 754/1598/408 753/1599/408 755/1600/408
f 760/1601/409 758/1602/409 757/1603/409 759/1604/409
f 764/1605/410 762/1606/410 761/1607/410 763/1608/410
o chain_4
v 1.185009694274468 0.938125 1.3175922157469455
v 1.8921164754610151 0.9381250000000001 2.024698996933493
v 1.3175922157469455 0.938125 1.1850096942744681
v 2.024698996933493 0.9381250000000001 1.8921164754610154
v 1.2513009550107066 0.844375 1.2513009550107068
v 1.958407736197254 0.8443750000000001 1.9584077361972543
v 1.2513009550107066 1.031875 1.2513009550107068
v 1.958407736197254 1.031875 1.9584077361972543
v 1.1850096942744681 0.06187500000000001 1.3175922157469455
v 1.8921164754610151 0.061875000000000124 2.024698996933493
v 1.3175922157469455 0.06187500000000001 1.1850096942744681
v 2.024698996933493 0.061875000000000124 1.8921164754610154
v 1.2513009550107068 -0.03187499999999999 1.2513009550107068
v 1.958407736197254 -0.031874999999999876 1.9584077361972543
v 1.2513009550107068 0.155625 1.2513009550107068
v 1.958407736197254 0.15562500000000012 1.9584077361972543
v 1.8921164754610151 0.06250000000000011 2.024698996933493
v 1.8921164754610151 0.9375 2.024698996933493
v 2.024698996933493 0.06250000000000011 1.8921164754610154
v 2.024698996933493 0.9375000000000001 1.8921164754610154
v 2.024698996933493 1.1102230246251565e-16 2.024698996933493
v 2.024698996933493 1 2.024698996933493
v 1.8921164754610154 1.1102230246251565e-16 1.8921164754610156
v 1.8921164754610154 1 1.8921164754610156
v 0.6988737822087164 0.938125 0.8314563036811942
v 1.185009694274468 0.938125 1.3175922157469455
v 0.8314563036811942 0.938125 0.6988737822087165
v 1.3175922157469455 0.938125 1.1850096942744681
v 0.7651650429449552 0.844375 0.7651650429449554
v 1.2513009550107066 0.844375 1.2513009550107068
v 0.7651650429449552 1.031875 0.7651650429449554
v 1.2513009550107066 1.031875 1.2513009550107068
v 0.6988737822087165 0.06187500000000001 0.8314563036811942
v 1.1850096942744681 0.06187500000000001 1.3175922157469455
v 0.8314563036811942 0.06187500000000001 0.6988737822087165
v 1.3175922157469455 0.06187500000000001 1.1850096942744681
v 0.7651650429449555 -0.03187499999999999 0.7651650429449552
v 1.2513009550107068 -0.03187499999999999 1.2513009550107068
v 0.7651650429449554 0.155625 0.7651650429449552
v 1.2513009550107068 0.155625 1.2513009550107068
vt 0.375 0
vt 0.1875 0
vt 0.1875 1
vt 0.375 1
vt 0.1875 0
vt 0 0
vt 0 1
vt 0.1875 1
vt 0.375 0
vt 0.1875 0
vt 0.1875 1
vt 0.375 1
vt 0.1875 0
vt 0 0
vt 0 1
vt 0.1875 1
vt 0.1875 0.9375
vt 0.375 0.9375
vt 0.375 0.0625
vt 0.1875 0.0625
vt 0.1875 0
vt 0 0
vt 0 1
vt 0.1875 1
vt 0.375 0.3125
vt 0.1875 0.3125
vt 0.1875 1
vt 0.375 1
vt 0 0.6875
vt 0.1875 0.6875
vt 0.1875 0
vt 0 0
vt 0.375 0.3125
vt 0.1875 0.3125
vt 0.1875 1
vt 0.375 1
vt 0 0.6875
vt 0.1875 0.6875
vt 0.1875 0
vt 0 0
vn 8.65956056235493e-17 -1 -3.586907429118598e-17
vn 0.7071067811865476 8.65956056235493e-17 -0.7071067811865475
vn 8.65956056235493e-17 -1 -3.586907429118598e-17
vn 0.7071067811865476 8.65956056235493e-17 -0.7071067811865475
vn 0.7071067811865475 3.586907429118598e-17 0.7071067811865476
vn 0.7071067811865476 8.65956056235493e-17 -0.7071067811865475
vn 8.65956056235493e-17 -1 -3.586907429118598e-17
vn 0.7071067811865476 8.65956056235493e-17 -0.7071067811865475
vn 8.65956056235493e-17 -1 -3.586907429118598e-17
vn 0.7071067811865476 8.65956056235493e-17 -0.7071067811865475
usemtl m_82f0fc91-35f7-00c2-b12c-504d00f11aa3
f 768/1609/411 766/1610/411 765/1611/411 767/1612/411
f 772/1613/412 770/1614/412 769/1615/412 771/1616/412
f 776/1617/413 774/1618/413 773/1619/413 775/1620/413
f 780/1621/414 778/1622/414 777/1623/414 779/1624/414
f 784/1625/415 782/1626/415 781/1627/415 783/1628/415
f 788/1629/416 786/1630/416 785/1631/416 787/1632/416
f 792/1633/417 790/1634/417 789/1635/417 791/1636/417
f 796/1637/418 794/1638/418 793/1639/418 795/1640/418
f 800/1641/419 798/1642/419 797/1643/419 799/1644/419
f 804/1645/420 802/1646/420 801/1647/420 803/1648/420
o chain_3
v 0.4062499999999998 0.938125 1.5625
v 0.40624999999999956 0.938125 2.5625
v 0.5937499999999998 0.938125 1.5625
v 0.5937499999999996 0.938125 2.5625
v 0.4999999999999998 0.844375 1.5625
v 0.49999999999999956 0.844375 2.5625
v 0.4999999999999998 1.0318749999999999 1.5625
v 0.49999999999999956 1.0318749999999999 2.5625
v 0.4062499999999998 0.06187500000000001 1.5625
v 0.40624999999999956 0.06187500000000001 2.5625
v 0.5937499999999998 0.06187500000000001 1.5625
v 0.5937499999999996 0.06187500000000001 2.5625
v 0.4999999999999998 -0.03187499999999999 1.5625
v 0.49999999999999956 -0.03187499999999999 2.5625
v 0.4999999999999998 0.155625 1.5625
v 0.49999999999999956 0.155625 2.5625
v 0.40624999999999956 0.0625 2.5625
v 0.40624999999999956 0.9375 2.5625
v 0.5937499999999996 0.0625 2.5625
v 0.5937499999999996 0.9375 2.5625
v 0.4999999999999995 0 2.65625
v 0.4999999999999995 1 2.65625
v 0.49999999999999956 0 2.46875
v 0.49999999999999956 1 2.46875
v 0.4062499999999999 0.938125 0.875
v 0.4062499999999998 0.938125 1.5625
v 0.5937499999999999 0.938125 0.875
v 0.5937499999999998 0.938125 1.5625
v 0.4999999999999999 0.844375 0.875
v 0.4999999999999998 0.844375 1.5625
v 0.4999999999999999 1.0318749999999999 0.875
v 0.4999999999999998 1.0318749999999999 1.5625
v 0.4062499999999999 0.06187500000000001 0.875
v 0.4062499999999998 0.06187500000000001 1.5625
v 0.5937499999999999 0.06187500000000001 0.875
v 0.5937499999999998 0.06187500000000001 1.5625
v 0.4999999999999999 -0.03187499999999999 0.875
v 0.4999999999999998 -0.03187499999999999 1.5625
v 0.4999999999999999 0.155625 0.875
v 0.4999999999999998 0.155625 1.5625
vt 0.375 0
vt 0.1875 0
vt 0.1875 1
vt 0.375 1
vt 0.1875 0
vt 0 0
vt 0 1
vt 0.1875 1
vt 0.375 0
vt 0.1875 0
vt 0.1875 1
vt 0.375 1
vt 0.1875 0
vt 0 0
vt 0 1
vt 0.1875 1
vt 0.1875 0.9375
vt 0.375 0.9375
vt 0.375 0.0625
vt 0.1875 0.0625
vt 0.1875 0
vt 0 0
vt 0 1
vt 0.1875 1
vt 0.375 0.3125
vt 0.1875 0.3125
vt 0.1875 1
vt 0.375 1
vt 0 0.6875
vt 0.1875 0.6875
vt 0.1875 0
vt 0 0
vt 0.375 0.3125
vt 0.1875 0.3125
vt 0.1875 1
vt 0.375 1
vt 0 0.6875
vt 0.1875 0.6875
vt 0.1875 0
vt 0 0
vn 0 -1 0
vn 1 0 2.220446049250313e-16
vn 0 -1 0
vn 1 0 2.220446049250313e-16
vn -2.220446049250313e-16 0 1
vn 1 0 2.220446049250313e-16
vn 0 -1 0
vn 1 0 2.220446049250313e-16
vn 0 -1 0
vn 1 0 2.220446049250313e-16
usemtl m_82f0fc91-35f7-00c2-b12c-504d00f11aa3
f 808/1649/421 806/1650/421 805/1651/421 807/1652/421
f 812/1653/422 810/1654/422 809/1655/422 811/1656/422
f 816/1657/423 814/1658/423 813/1659/423 815/1660/423
f 820/1661/424 818/1662/424 817/1663/424 819/1664/424
f 824/1665/425 822/1666/425 821/1667/425 823/1668/425
f 828/1669/426 826/1670/426 825/1671/426 827/1672/426
f 832/1673/427 830/1674/427 829/1675/427 831/1676/427
f 836/1677/428 834/1678/428 833/1679/428 835/1680/428
f 840/1681/429 838/1682/429 837/1683/429 839/1684/429
f 844/1685/430 842/1686/430 841/1687/430 843/1688/430
o chain_4
v 0.5937499999999998 0.938125 -0.5625
v 0.5937499999999996 0.938125 -1.5625
v 0.4062499999999998 0.938125 -0.5625
v 0.40624999999999956 0.938125 -1.5625
v 0.4999999999999998 0.844375 -0.5625
v 0.49999999999999956 0.844375 -1.5625
v 0.4999999999999998 1.0318749999999999 -0.5625
v 0.49999999999999956 1.0318749999999999 -1.5625
v 0.5937499999999998 0.06187500000000001 -0.5625
v 0.5937499999999996 0.06187500000000001 -1.5625
v 0.4062499999999998 0.06187500000000001 -0.5625
v 0.40624999999999956 0.06187500000000001 -1.5625
v 0.4999999999999998 -0.03187499999999999 -0.5625
v 0.49999999999999956 -0.03187499999999999 -1.5625
v 0.4999999999999998 0.155625 -0.5625
v 0.49999999999999956 0.155625 -1.5625
v 0.5937499999999996 0.0625 -1.5625
v 0.5937499999999996 0.9375 -1.5625
v 0.40624999999999956 0.0625 -1.5625
v 0.40624999999999956 0.9375 -1.5625
v 0.4999999999999995 0 -1.65625
v 0.4999999999999995 1 -1.65625
v 0.49999999999999956 0 -1.46875
v 0.49999999999999956 1 -1.46875
v 0.5937499999999999 0.938125 0.125
v 0.5937499999999998 0.938125 -0.5625
v 0.4062499999999999 0.938125 0.125
v 0.4062499999999998 0.938125 -0.5625
v 0.4999999999999999 0.844375 0.125
v 0.4999999999999998 0.844375 -0.5625
v 0.4999999999999999 1.0318749999999999 0.125
v 0.4999999999999998 1.0318749999999999 -0.5625
v 0.5937499999999999 0.06187500000000001 0.125
v 0.5937499999999998 0.06187500000000001 -0.5625
v 0.4062499999999999 0.06187500000000001 0.125
v 0.4062499999999998 0.06187500000000001 -0.5625
v 0.4999999999999999 -0.03187499999999999 0.125
v 0.4999999999999998 -0.03187499999999999 -0.5625
v 0.4999999999999999 0.155625 0.125
v 0.4999999999999998 0.155625 -0.5625
vt 0.375 0
vt 0.1875 0
vt 0.1875 1
vt 0.375 1
vt 0.1875 0
vt 0 0
vt 0 1
vt 0.1875 1
vt 0.375 0
vt 0.1875 0
vt 0.1875 1
vt 0.375 1
vt 0.1875 0
vt 0 0
vt 0 1
vt 0.1875 1
vt 0.1875 0.9375
vt 0.375 0.9375
vt 0.375 0.0625
vt 0.1875 0.0625
vt 0.1875 0
vt 0 0
vt 0 1
vt 0.1875 1
vt 0.375 0.3125
vt 0.1875 0.3125
vt 0.1875 1
vt 0.375 1
vt 0 0.6875
vt 0.1875 0.6875
vt 0.1875 0
vt 0 0
vt 0.375 0.3125
vt 0.1875 0.3125
vt 0.1875 1
vt 0.375 1
vt 0 0.6875
vt 0.1875 0.6875
vt 0.1875 0
vt 0 0
vn 0 -1 0
vn -1 0 2.220446049250313e-16
vn 0 -1 0
vn -1 0 2.220446049250313e-16
vn -2.220446049250313e-16 0 -1
vn -1 0 2.220446049250313e-16
vn 0 -1 0
vn -1 0 2.220446049250313e-16
vn 0 -1 0
vn -1 0 2.220446049250313e-16
usemtl m_82f0fc91-35f7-00c2-b12c-504d00f11aa3
f 848/1689/431 846/1690/431 845/1691/431 847/1692/431
f 852/1693/432 850/1694/432 849/1695/432 851/1696/432
f 856/1697/433 854/1698/433 853/1699/433 855/1700/433
f 860/1701/434 858/1702/434 857/1703/434 859/1704/434
f 864/1705/435 862/1706/435 861/1707/435 863/1708/435
f 868/1709/436 866/1710/436 865/1711/436 867/1712/436
f 872/1713/437 870/1714/437 869/1715/437 871/1716/437
f 876/1717/438 874/1718/438 873/1719/438 875/1720/438
f 880/1721/439 878/1722/439 877/1723/439 879/1724/439
f 884/1725/440 882/1726/440 881/1727/440 883/1728/440
o chain_3
v 1.5625 0.938125 0.59375
v 2.5625 0.938125 0.59375
v 1.5625 0.938125 0.40625000000000006
v 2.5625 0.938125 0.40624999999999994
v 1.5625 0.844375 0.5000000000000001
v 2.5625 0.844375 0.49999999999999994
v 1.5625 1.0318749999999999 0.5000000000000001
v 2.5625 1.0318749999999999 0.49999999999999994
v 1.5625 0.06187500000000001 0.59375
v 2.5625 0.06187500000000001 0.59375
v 1.5625 0.06187500000000001 0.40625000000000006
v 2.5625 0.06187500000000001 0.40624999999999994
v 1.5625 -0.03187499999999999 0.5000000000000001
v 2.5625 -0.03187499999999999 0.49999999999999994
v 1.5625 0.155625 0.5000000000000001
v 2.5625 0.155625 0.49999999999999994
v 2.5625 0.0625 0.59375
v 2.5625 0.9375 0.59375
v 2.5625 0.0625 0.40624999999999994
v 2.5625 0.9375 0.40624999999999994
v 2.65625 0 0.49999999999999994
v 2.65625 1 0.49999999999999994
v 2.46875 0 0.49999999999999994
v 2.46875 1 0.49999999999999994
v 0.875 0.938125 0.5937500000000001
v 1.5625 0.938125 0.59375
v 0.875 0.938125 0.4062500000000001
v 1.5625 0.938125 0.40625000000000006
v 0.875 0.844375 0.5000000000000001
v 1.5625 0.844375 0.5000000000000001
v 0.875 1.0318749999999999 0.5000000000000001
v 1.5625 1.0318749999999999 0.5000000000000001
v 0.875 0.06187500000000001 0.5937500000000001
v 1.5625 0.06187500000000001 0.59375
v 0.875 0.06187500000000001 0.4062500000000001
v 1.5625 0.06187500000000001 0.40625000000000006
v 0.875 -0.03187499999999999 0.5000000000000001
v 1.5625 -0.03187499999999999 0.5000000000000001
v 0.875 0.155625 0.5000000000000001
v 1.5625 0.155625 0.5000000000000001
vt 0.375 0
vt 0.1875 0
vt 0.1875 1
vt 0.375 1
vt 0.1875 0
vt 0 0
vt 0 1
vt 0.1875 1
vt 0.375 0
vt 0.1875 0
vt 0.1875 1
vt 0.375 1
vt 0.1875 0
vt 0 0
vt 0 1
vt 0.1875 1
vt 0.1875 0.9375
vt 0.375 0.9375
vt 0.375 0.0625
vt 0.1875 0.0625
vt 0.1875 0
vt 0 0
vt 0 1
vt 0.1875 1
vt 0.375 0.3125
vt 0.1875 0.3125
vt 0.1875 1
vt 0.375 1
vt 0 0.6875
vt 0.1875 0.6875
vt 0.1875 0
vt 0 0
vt 0.375 0.3125
vt 0.1875 0.3125
vt 0.1875 1
vt 0.375 1
vt 0 0.6875
vt 0.1875 0.6875
vt 0.1875 0
vt 0 0
vn 0 -1 0
vn -1.2246467991473532e-16 0 -1
vn 0 -1 0
vn -1.2246467991473532e-16 0 -1
vn 1 0 -1.2246467991473532e-16
vn -1.2246467991473532e-16 0 -1
vn 0 -1 0
vn -1.2246467991473532e-16 0 -1
vn 0 -1 0
vn -1.2246467991473532e-16 0 -1
usemtl m_82f0fc91-35f7-00c2-b12c-504d00f11aa3
f 888/1729/441 886/1730/441 885/1731/441 887/1732/441
f 892/1733/442 890/1734/442 889/1735/442 891/1736/442
f 896/1737/443 894/1738/443 893/1739/443 895/1740/443
f 900/1741/444 898/1742/444 897/1743/444 899/1744/444
f 904/1745/445 902/1746/445 901/1747/445 903/1748/445
f 908/1749/446 906/1750/446 905/1751/446 907/1752/446
f 912/1753/447 910/1754/447 909/1755/447 911/1756/447
f 916/1757/448 914/1758/448 913/1759/448 915/1760/448
f 920/1761/449 918/1762/449 917/1763/449 919/1764/449
f 924/1765/450 922/1766/450 921/1767/450 923/1768/450
o chain_2
v -0.5625 0.938125 0.40625
v -1.5625 0.938125 0.40625
v -0.5625 0.938125 0.59375
v -1.5625 0.938125 0.59375
v -0.5625 0.844375 0.5
v -1.5625 0.844375 0.5
v -0.5625 1.0318749999999999 0.5
v -1.5625 1.0318749999999999 0.5
v -0.5625 0.06187500000000001 0.40625
v -1.5625 0.06187500000000001 0.40625
v -0.5625 0.06187500000000001 0.59375
v -1.5625 0.06187500000000001 0.59375
v -0.5625 -0.03187499999999999 0.5
v -1.5625 -0.03187499999999999 0.5
v -0.5625 0.155625 0.5
v -1.5625 0.155625 0.5
v -1.5625 0.0625 0.40625
v -1.5625 0.9375 0.40625
v -1.5625 0.0625 0.59375
v -1.5625 0.9375 0.59375
v -1.65625 0 0.5
v -1.65625 1 0.5
v -1.46875 0 0.5
v -1.46875 1 0.5
v 0.125 0.938125 0.40625
v -0.5625 0.938125 0.40625
v 0.125 0.938125 0.59375
v -0.5625 0.938125 0.59375
v 0.125 0.844375 0.5
v -0.5625 0.844375 0.5
v 0.125 1.0318749999999999 0.5
v -0.5625 1.0318749999999999 0.5
v 0.125 0.06187500000000001 0.40625
v -0.5625 0.06187500000000001 0.40625
v 0.125 0.06187500000000001 0.59375
v -0.5625 0.06187500000000001 0.59375
v 0.125 -0.03187499999999999 0.5
v -0.5625 -0.03187499999999999 0.5
v 0.125 0.155625 0.5
v -0.5625 0.155625 0.5
vt 0.375 0
vt 0.1875 0
vt 0.1875 1
vt 0.375 1
vt 0.1875 0
vt 0 0
vt 0 1
vt 0.1875 1
vt 0.375 0
vt 0.1875 0
vt 0.1875 1
vt 0.375 1
vt 0.1875 0
vt 0 0
vt 0 1
vt 0.1875 1
vt 0.1875 0.9375
vt 0.375 0.9375
vt 0.375 0.0625
vt 0.1875 0.0625
vt 0.1875 0
vt 0 0
vt 0 1
vt 0.1875 1
vt 0.375 0.3125
vt 0.1875 0.3125
vt 0.1875 1
vt 0.375 1
vt 0 0.6875
vt 0.1875 0.6875
vt 0.1875 0
vt 0 0
vt 0.375 0.3125
vt 0.1875 0.3125
vt 0.1875 1
vt 0.375 1
vt 0 0.6875
vt 0.1875 0.6875
vt 0.1875 0
vt 0 0
vn 0 -1 0
vn 0 0 1
vn 0 -1 0
vn 0 0 1
vn -1 0 0
vn 0 0 1
vn 0 -1 0
vn 0 0 1
vn 0 -1 0
vn 0 0 1
usemtl m_82f0fc91-35f7-00c2-b12c-504d00f11aa3
f 928/1769/451 926/1770/451 925/1771/451 927/1772/451
f 932/1773/452 930/1774/452 929/1775/452 931/1776/452
f 936/1777/453 934/1778/453 933/1779/453 935/1780/453
f 940/1781/454 938/1782/454 937/1783/454 939/1784/454
f 944/1785/455 942/1786/455 941/1787/455 943/1788/455
f 948/1789/456 946/1790/456 945/1791/456 947/1792/456
f 952/1793/457 950/1794/457 949/1795/457 951/1796/457
f 956/1797/458 954/1798/458 953/1799/458 955/1800/458
f 960/1801/459 958/1802/459 957/1803/459 959/1804/459
f 964/1805/460 962/1806/460 961/1807/460 963/1808/460